<?xml version="1.0" encoding="utf-8"?>
<!-- Generator: Adobe Illustrator 15.0.2, SVG Export Plug-In . SVG Version: 6.00 Build 0)  -->
<!DOCTYPE svg PUBLIC "-//W3C//DTD SVG 1.1//EN" "http://www.w3.org/Graphics/SVG/1.1/DTD/svg11.dtd">
<svg version="1.1" id="Layer_1" xmlns="http://www.w3.org/2000/svg" xmlns:xlink="http://www.w3.org/1999/xlink" x="0px" y="0px"
	 width="469.897px" height="878.52px" viewBox="0 -40.52 469.897 878.52" enable-background="new 0 -40.52 469.897 878.52"
	 xml:space="preserve">
<circle cx="236.129" cy="792.5" r="16.335"/>
<g opacity="0.08">
	<g>
		<path fill="#FFFFFF" d="M141.572,242.077v-2.084c0-5.056-2.198-7.584-6.603-7.584h-5.729v17.196h5.729
			C139.374,249.604,141.572,247.095,141.572,242.077z M164.099,80.538c3.512,0,6.194-1.342,8.048-4.024
			c1.85-2.683,2.779-6.822,2.779-12.419v-5.791c0-3.087-0.245-5.674-0.726-7.759c-0.48-2.084-1.178-3.763-2.082-5.037
			c-0.908-1.273-2.036-2.18-3.387-2.72c-1.354-0.541-2.896-0.812-4.633-0.812c-1.737,0-3.283,0.291-4.634,0.869
			c-1.351,0.579-2.481,1.516-3.386,2.808c-0.908,1.294-1.603,2.974-2.086,5.037c-0.484,2.065-0.723,4.604-0.723,7.614v5.791
			c0,5.597,0.927,9.736,2.78,12.419C157.9,79.196,160.583,80.538,164.099,80.538z M362.604,291.003
			c-0.908-1.275-2.036-2.18-3.387-2.72c-1.351-0.541-2.896-0.811-4.63-0.811c-1.737,0-3.283,0.289-4.634,0.867
			c-1.351,0.578-2.481,1.514-3.386,2.808c-0.908,1.294-1.603,2.972-2.086,5.039c-0.483,2.063-0.723,4.602-0.723,7.611v5.789
			c0,5.598,0.927,9.738,2.777,12.42c1.854,2.683,4.535,4.024,8.051,4.024c3.512,0,6.194-1.341,8.048-4.024
			c1.851-2.683,2.776-6.823,2.776-12.42v-5.789c0-3.088-0.241-5.673-0.722-7.756C364.205,293.956,363.511,292.278,362.604,291.003z
			 M320.269,159.311c5.34,0,9.418-2.037,12.235-6.116c2.814-4.078,4.222-10.371,4.222-18.878v-8.802c0-4.693-0.367-8.624-1.1-11.792
			c-0.734-3.168-1.79-5.72-3.166-7.657c-1.382-1.937-3.098-3.314-5.151-4.137c-2.052-0.82-4.398-1.231-7.04-1.231
			c-2.639,0-4.988,0.44-7.039,1.319c-2.055,0.881-3.77,2.304-5.148,4.269c-1.379,1.966-2.435,4.519-3.17,7.657
			c-0.735,3.14-1.1,6.997-1.1,11.572v8.802c0,8.507,1.407,14.8,4.225,18.878C310.852,157.274,314.929,159.311,320.269,159.311z
			 M134.995,193.934c1.196-1.369,1.796-3.542,1.796-6.513v-2.084c0-3.088-0.609-5.278-1.825-6.571
			c-1.215-1.292-2.905-1.939-5.066-1.939h-5.44v19.165h6.019C132.293,195.99,133.798,195.305,134.995,193.934z M245.558,242.077
			v-2.084c0-5.056-2.199-7.584-6.601-7.584h-5.729v17.196h5.729C243.358,249.604,245.558,247.095,245.558,242.077z M236.646,80.538
			c3.512,0,6.194-1.342,8.048-4.024s2.78-6.822,2.78-12.419v-5.791c0-3.087-0.242-5.674-0.726-7.759
			c-0.484-2.084-1.179-3.763-2.083-5.037c-0.908-1.273-2.039-2.18-3.39-2.72c-1.351-0.541-2.893-0.812-4.63-0.812
			s-3.283,0.291-4.63,0.869c-1.354,0.579-2.481,1.516-3.39,2.808c-0.908,1.294-1.603,2.974-2.083,5.037
			c-0.483,2.065-0.726,4.604-0.726,7.614v5.791c0,5.597,0.927,9.736,2.78,12.419S233.134,80.538,236.646,80.538z M208.101,75.935
			c1.081-1.332,1.938-3.126,2.579-5.384c0.635-2.258,0.955-5.104,0.955-8.541v-2.895c0-3.125-0.32-5.75-0.955-7.873
			c-0.641-2.124-1.508-3.831-2.607-5.125c-1.099-1.293-2.365-2.22-3.794-2.778c-1.427-0.56-2.935-0.841-4.515-0.841h-6.254v37.056
			h6.254c1.621,0,3.145-0.27,4.574-0.81C205.767,78.202,207.021,77.266,208.101,75.935z M342.019,257.363h11.001l-5.561-16.561
			L342.019,257.363z M238.7,424.113h11l-5.557-16.561L238.7,424.113z M169.859,424.113h11.001l-5.558-16.561L169.859,424.113z
			 M218.728,408.828v-2.085c0-5.054-2.202-7.583-6.603-7.583h-5.729v17.195h5.729C216.525,416.354,218.728,413.845,218.728,408.828z
			 M385.839,47.666C360.929,22.769,330.035,4.38,296.42-5.512c-19.212-5.636-39.165-8.5-59.392-8.5
			c-56.229,0-109.063,21.909-148.819,61.678c-39.75,39.737-61.606,92.57-61.606,148.757l0.892,19.355
			c2.636,28.936,11.095,56.5,25.074,81.935c0.154,1.42,79.247,143.238,79.247,231.855l2.689,26.227
			c4.284,17.497,13.218,26.38,26.534,26.38h151.927c13.365,0,22.277-8.883,26.556-26.38l2.688-26.227
			c0-88.617,79.088-230.436,79.898-231.855c13.338-25.435,21.784-52.999,24.423-81.935l0.898-19.355
			C447.43,140.217,425.554,87.403,385.839,47.666z M370.344,99.113c1.41,0,2.654,0.076,3.741,0.22
			c1.087,0.148,2.113,0.368,3.081,0.661s1.919,0.674,2.858,1.144c0.939,0.469,1.938,0.999,2.994,1.584l2.551-3.257
			c0.354-0.468,0.675-0.704,0.971-0.704c0.352,0,0.527,0.294,0.527,0.88v15.665c0,0.588-0.207,0.881-0.615,0.881
			c-0.472,0-0.735-0.293-0.795-0.881c-0.232-1.877-0.72-3.695-1.451-5.456c-0.735-1.759-1.716-3.314-2.947-4.665
			c-1.234-1.348-2.761-2.433-4.576-3.256c-1.819-0.82-3.934-1.231-6.339-1.231c-1.584,0-3.154,0.22-4.706,0.66
			c-1.555,0.439-2.938,1.101-4.137,1.98c-1.203,0.879-2.187,2.01-2.95,3.388c-0.763,1.379-1.144,2.979-1.144,4.797
			c0,1.937,0.469,3.639,1.408,5.104c0.938,1.467,2.317,2.552,4.137,3.256c1.643,0.647,3.138,1.188,4.488,1.628
			c1.348,0.44,2.643,0.835,3.873,1.188c1.232,0.352,2.435,0.675,3.606,0.967c1.175,0.295,2.435,0.647,3.785,1.057
			c3.989,1.175,6.908,3.124,8.758,5.852c1.848,2.729,2.771,6.06,2.771,9.989c0,2.876-0.512,5.56-1.539,8.053
			c-1.027,2.494-2.419,4.65-4.181,6.468c-1.759,1.82-3.842,3.243-6.248,4.269s-5.017,1.541-7.831,1.541
			c-1.526,0-3.01-0.191-4.445-0.573c-1.438-0.382-2.789-0.865-4.049-1.451c-1.263-0.586-2.406-1.233-3.434-1.937
			s-1.891-1.377-2.595-2.024l-3.169,4.577c-0.412,0.586-0.792,0.879-1.144,0.879c-0.528,0-0.792-0.381-0.792-1.144V143.47
			c0-0.821,0.204-1.231,0.616-1.231c0.468,0,0.791,0.382,0.968,1.144c0.644,2.464,1.57,4.694,2.773,6.688
			c1.199,1.996,2.623,3.669,4.266,5.017c1.643,1.351,3.434,2.392,5.371,3.125c1.936,0.734,3.958,1.1,6.072,1.1
			c1.815,0,3.606-0.322,5.369-0.967c1.759-0.646,3.313-1.555,4.661-2.729c1.351-1.173,2.435-2.626,3.258-4.357
			c0.822-1.729,1.231-3.653,1.231-5.764c0-1.701-0.353-3.39-1.056-5.061c-0.704-1.673-2.055-2.978-4.05-3.917
			c-1.583-0.762-2.978-1.363-4.178-1.803c-1.203-0.44-2.394-0.85-3.564-1.233c-1.176-0.38-2.435-0.777-3.786-1.188
			c-1.351-0.41-2.99-0.938-4.929-1.585c-4.049-1.349-7.026-3.313-8.93-5.896c-1.91-2.581-2.862-5.427-2.862-8.537
			c0-2.289,0.408-4.459,1.231-6.513c0.823-2.053,2.026-3.872,3.609-5.457c1.583-1.583,3.506-2.844,5.765-3.784
			C364.902,99.585,367.469,99.113,370.344,99.113z M384.168,269.464v0.927h-15.574v-0.927h4.979v-37.056h-4.979v-0.927h15.574v0.927
			h-4.979v37.056H384.168z M353.309,258.29H341.67l-3.646,11.174h6.832v0.927h-12.854v-0.927h4.979l12.681-38.502h0.694
			l12.679,38.502h5.038v0.927h-16.966v-0.927h5.965L353.309,258.29z M335.422,325.048v0.924h-14.88v-0.924h4.63v-36.303
			l-12.91,37.227h-0.754l-12.911-36.998v36.074h4.631v0.924h-10.19v-0.924h4.634v-37.054h-4.634v-0.93h10.712l10.655,29.76
			l10.306-29.76h10.712v0.93h-4.633v37.054H335.422z M249.989,425.04h-11.635l-3.65,11.174h6.836v0.927h-12.854v-0.745
			c-0.363,0.177-0.77,0.351-1.244,0.513c-0.562,0.194-1.168,0.357-1.828,0.493c-0.653,0.135-1.31,0.204-1.966,0.204
			c-0.773,0-1.496-0.098-2.171-0.292c-0.676-0.192-1.267-0.56-1.769-1.1c-0.541-0.578-0.937-1.272-1.185-2.083
			c-0.254-0.811-0.424-1.699-0.521-2.664c-0.097-0.964-0.153-1.969-0.173-3.012c-0.019-1.04-0.088-2.064-0.204-3.069
			c-0.191-1.658-0.512-3.019-0.955-4.08c-0.442-1.062-0.964-1.892-1.561-2.491c-0.604-0.597-1.247-1.002-1.941-1.216
			c-0.697-0.21-1.351-0.317-1.97-0.317h-4.803v18.933h4.976v0.927h-32.424v-0.927h5.965l-3.763-11.174h-11.639l-3.647,11.174h6.833
			v0.927h-12.854v-0.927h4.979l12.681-38.502h0.694l12.682,38.502h9.9V399.16h-4.981v-0.927h16.328c1.658,0,3.232,0.21,4.718,0.638
			c1.486,0.424,2.771,1.04,3.852,1.85c1.08,0.811,1.941,1.815,2.576,3.013c0.637,1.197,0.954,2.547,0.954,4.052
			c0,2.432-0.81,4.448-2.431,6.05s-3.937,2.673-6.949,3.213c1.159,0.311,2.24,0.647,3.242,1.015
			c1.005,0.368,1.891,0.867,2.664,1.505c0.772,0.638,1.429,1.457,1.97,2.459c0.54,1.006,0.927,2.277,1.159,3.823
			c0.112,0.772,0.182,1.583,0.2,2.432c0.02,0.848,0.038,1.681,0.057,2.491c0.022,0.811,0.06,1.561,0.12,2.255
			c0.056,0.697,0.145,1.237,0.257,1.624c0.349,0.965,1.122,1.445,2.318,1.445c0.965,0,1.835-0.271,2.604-0.811
			c0.153-0.075,0.27-0.116,0.349-0.116c0.113,0,0.173,0.06,0.173,0.176s-0.06,0.229-0.173,0.346
			c-0.168,0.167-0.428,0.341-0.75,0.521h4.626l12.682-38.502h0.694l12.681,38.502h5.039v0.927h-16.966v-0.927h5.962L249.989,425.04z
			 M134.219,269.464v0.927h-15.577v-0.927h4.981v-37.056h-4.981v-0.927h16.328c1.658,0,3.235,0.213,4.718,0.638
			c1.489,0.424,2.771,1.041,3.852,1.852c1.08,0.812,1.941,1.815,2.575,3.011c0.642,1.197,0.959,2.548,0.959,4.054
			c0,2.432-0.811,4.448-2.436,6.05c-1.62,1.602-3.933,2.673-6.945,3.213c1.16,0.308,2.24,0.647,3.242,1.012
			c1.002,0.37,1.891,0.87,2.664,1.508c0.77,0.634,1.429,1.457,1.97,2.459c0.54,1.005,0.923,2.277,1.155,3.823
			c0.116,0.772,0.183,1.583,0.201,2.432c0.022,0.848,0.041,1.677,0.06,2.487c0.02,0.811,0.06,1.564,0.116,2.262
			c0.057,0.691,0.145,1.231,0.261,1.621c0.349,0.961,1.118,1.445,2.315,1.445c0.965,0,1.834-0.271,2.607-0.811
			c0.15-0.075,0.27-0.113,0.346-0.113c0.116,0,0.176,0.057,0.176,0.17c0,0.119-0.06,0.232-0.176,0.349
			c-0.169,0.166-0.428,0.341-0.754,0.521h4.925v-37.056h-4.981v-0.927h11.405l17.949,29.354v-28.427h-4.979v-0.927h10.885v0.927
			h-4.979v38.447h-1.966l-22.41-36.769v35.377h4.982v0.927h-10.888v-0.894c-0.032,0.017-0.054,0.034-0.088,0.051
			c-0.402,0.213-0.886,0.418-1.445,0.61c-0.559,0.194-1.168,0.357-1.825,0.493c-0.656,0.135-1.31,0.204-1.97,0.204
			c-0.772,0-1.495-0.101-2.167-0.289c-0.679-0.195-1.27-0.562-1.769-1.103c-0.54-0.581-0.937-1.272-1.185-2.083
			c-0.254-0.811-0.427-1.699-0.521-2.664c-0.101-0.967-0.157-1.97-0.176-3.012c-0.019-1.04-0.088-2.064-0.201-3.069
			c-0.194-1.659-0.515-3.019-0.955-4.081c-0.445-1.062-0.967-1.891-1.563-2.491c-0.601-0.597-1.244-1.002-1.941-1.216
			c-0.694-0.21-1.352-0.317-1.967-0.317h-4.806v18.933H134.219z M113.86,176.825v-0.927h16.039c1.854,0,3.524,0.251,5.007,0.752
			c1.489,0.503,2.752,1.216,3.795,2.143s1.841,2.037,2.4,3.33c0.559,1.292,0.842,2.711,0.842,4.254c0,1.583-0.283,3.022-0.842,4.315
			c-0.56,1.292-1.339,2.401-2.344,3.328c-1.005,0.926-2.212,1.641-3.619,2.142c-1.407,0.502-2.962,0.754-4.661,0.754h-6.019v16.964
			h4.976v0.925H113.86v-0.925h4.982v-37.056H113.86z M230.294,193.848c0.852,0,1.526-0.126,2.029-0.377
			c0.502-0.25,0.898-0.608,1.188-1.071c0.289-0.463,0.509-1.022,0.666-1.679c0.15-0.657,0.308-1.39,0.461-2.201
			c0.117-0.54,0.271-0.81,0.462-0.81c0.232,0,0.349,0.232,0.349,0.694v11.755c0,0.503-0.116,0.752-0.349,0.752
			c-0.191,0-0.345-0.27-0.462-0.811c-0.153-0.811-0.311-1.544-0.461-2.201c-0.157-0.655-0.377-1.215-0.666-1.679
			s-0.686-0.82-1.188-1.071c-0.503-0.25-1.178-0.375-2.029-0.375h-4.574v19.106h9.324c1.351,0,2.469-0.232,3.357-0.696
			s1.621-1.129,2.202-1.998c0.578-0.867,1.043-1.901,1.389-3.098c0.345-1.195,0.675-2.527,0.986-3.994
			c0.15-0.811,0.364-1.217,0.634-1.217c0.309,0,0.465,0.463,0.465,1.39v8.686c0,1.234-0.562,1.852-1.68,1.852h-27.213v-0.925h4.919
			v-37.056h-4.976v-0.927h25.878c0.967,0,1.451,0.463,1.451,1.39v8.801c0,0.501-0.139,0.752-0.408,0.752
			c-0.309,0-0.462-0.27-0.462-0.811c-0.041-0.848-0.186-1.805-0.437-2.866c-0.252-1.062-0.647-2.063-1.185-3.011
			c-0.543-0.945-1.254-1.737-2.143-2.373c-0.889-0.638-1.988-0.955-3.301-0.955h-8.803v17.022H230.294z M217.71,269.464h9.901
			v-37.056h-4.982v-0.927h16.328c1.659,0,3.232,0.213,4.719,0.638c1.485,0.424,2.771,1.041,3.851,1.852
			c1.081,0.812,1.938,1.815,2.576,3.011c0.638,1.197,0.955,2.548,0.955,4.054c0,2.432-0.811,4.448-2.432,6.05
			s-3.936,2.673-6.948,3.213c1.159,0.308,2.239,0.647,3.245,1.012c1.002,0.37,1.891,0.87,2.66,1.508
			c0.773,0.634,1.43,1.457,1.97,2.459c0.54,1.005,0.927,2.277,1.159,3.823c0.116,0.772,0.183,1.583,0.201,2.432
			c0.019,0.848,0.037,1.677,0.06,2.487c0.019,0.811,0.057,1.564,0.116,2.262c0.057,0.691,0.145,1.231,0.261,1.621
			c0.346,0.961,1.118,1.445,2.315,1.445c0.964,0,1.831-0.271,2.604-0.811c0.154-0.075,0.271-0.113,0.349-0.113
			c0.116,0,0.173,0.057,0.173,0.17c0,0.119-0.057,0.232-0.173,0.349c-0.194,0.191-0.493,0.396-0.898,0.606
			c-0.405,0.213-0.889,0.418-1.448,0.61c-0.559,0.194-1.165,0.357-1.821,0.493c-0.656,0.135-1.313,0.204-1.97,0.204
			c-0.772,0-1.495-0.101-2.171-0.289c-0.675-0.195-1.266-0.562-1.765-1.103c-0.541-0.581-0.937-1.272-1.188-2.083
			c-0.252-0.811-0.424-1.699-0.521-2.664c-0.098-0.967-0.154-1.97-0.173-3.012c-0.022-1.04-0.088-2.064-0.204-3.069
			c-0.191-1.659-0.513-3.019-0.955-4.081c-0.443-1.062-0.965-1.891-1.562-2.491c-0.6-0.597-1.247-1.002-1.941-1.216
			c-0.697-0.21-1.351-0.317-1.97-0.317h-4.803v18.933h4.976v0.927h-32.424v-0.927h5.966l-3.764-11.174h-11.639l-3.646,11.174h6.832
			v0.927h-12.854v-0.927h4.979l12.682-38.502h0.693L217.71,269.464z M245.522,176.825v-0.927h10.712l10.651,29.76l10.307-29.76
			h10.712v0.927h-4.63v37.056h4.63v0.925h-14.88v-0.925h4.633v-36.304l-12.913,37.229h-0.751l-12.91-36.998v36.073h4.63v0.925
			h-10.19v-0.925h4.634v-37.056H245.522z M293.672,233.971c1.08,0.812,1.941,1.815,2.575,3.011c0.639,1.197,0.955,2.548,0.955,4.054
			c0,2.432-0.811,4.448-2.431,6.05c-1.621,1.602-3.937,2.673-6.948,3.213c1.158,0.308,2.239,0.647,3.244,1.012
			c1.002,0.37,1.892,0.87,2.664,1.508c0.77,0.634,1.426,1.457,1.967,2.459c0.54,1.005,0.926,2.277,1.158,3.823
			c0.117,0.772,0.183,1.583,0.201,2.432c0.02,0.848,0.038,1.677,0.061,2.487c0.019,0.811,0.056,1.564,0.115,2.262
			c0.057,0.691,0.145,1.231,0.262,1.621c0.345,0.961,1.118,1.445,2.314,1.445c0.965,0,1.832-0.271,2.604-0.811
			c0.153-0.075,0.27-0.113,0.349-0.113c0.116,0,0.173,0.057,0.173,0.17c0,0.119-0.057,0.232-0.173,0.349
			c-0.195,0.191-0.493,0.396-0.898,0.606c-0.405,0.213-0.889,0.418-1.448,0.61c-0.56,0.194-1.165,0.357-1.822,0.493
			c-0.656,0.135-1.312,0.204-1.97,0.204c-0.772,0-1.495-0.101-2.17-0.289c-0.676-0.195-1.266-0.562-1.766-1.103
			c-0.54-0.581-0.936-1.272-1.188-2.083c-0.251-0.811-0.424-1.699-0.521-2.664c-0.098-0.967-0.154-1.97-0.173-3.012
			c-0.021-1.04-0.088-2.064-0.204-3.069c-0.191-1.659-0.512-3.019-0.955-4.081c-0.442-1.062-0.964-1.891-1.564-2.491
			c-0.597-0.597-1.243-1.002-1.938-1.216c-0.694-0.21-1.351-0.317-1.97-0.317h-4.806v18.933h4.981v0.927h-15.577v-0.927h4.981
			v-37.056h-4.981v-0.927h16.328c1.658,0,3.232,0.213,4.718,0.638C291.307,232.543,292.591,233.16,293.672,233.971z M290.047,200.68
			v-3.127h10.366v3.127H290.047z M325.424,202.445c-0.462-1.1-1.351-1.959-2.664-2.576c-1.043-0.502-1.96-0.898-2.749-1.188
			c-0.791-0.289-1.573-0.559-2.346-0.811c-0.773-0.251-1.603-0.512-2.488-0.782c-0.889-0.27-1.97-0.617-3.245-1.041
			c-2.66-0.888-4.62-2.182-5.874-3.879c-1.257-1.698-1.882-3.57-1.882-5.617c0-1.506,0.268-2.934,0.811-4.284
			c0.54-1.351,1.332-2.548,2.372-3.591c1.043-1.041,2.306-1.871,3.795-2.489c1.485-0.617,3.172-0.927,5.063-0.927
			c0.927,0,1.746,0.049,2.462,0.146c0.714,0.096,1.389,0.24,2.026,0.434c0.638,0.193,1.263,0.444,1.882,0.752
			c0.615,0.309,1.272,0.656,1.97,1.043l1.677-2.143c0.233-0.31,0.443-0.463,0.639-0.463c0.232,0,0.348,0.193,0.348,0.58v10.305
			c0,0.387-0.138,0.58-0.408,0.58c-0.308,0-0.48-0.193-0.518-0.58c-0.157-1.234-0.475-2.431-0.958-3.589
			c-0.481-1.159-1.128-2.182-1.938-3.069s-1.815-1.602-3.01-2.142c-1.196-0.541-2.588-0.811-4.171-0.811
			c-1.04,0-2.073,0.145-3.098,0.434c-1.021,0.29-1.929,0.724-2.72,1.304c-0.792,0.578-1.439,1.322-1.938,2.229
			c-0.503,0.908-0.754,1.96-0.754,3.155c0,1.273,0.308,2.394,0.927,3.358c0.615,0.966,1.523,1.679,2.72,2.142
			c1.081,0.426,2.064,0.782,2.953,1.071c0.889,0.291,1.737,0.55,2.548,0.782c0.811,0.231,1.602,0.444,2.374,0.636
			c0.773,0.193,1.603,0.425,2.488,0.696c2.626,0.772,4.546,2.055,5.761,3.85c1.219,1.795,1.825,3.986,1.825,6.571
			c0,1.893-0.339,3.658-1.012,5.298c-0.678,1.642-1.592,3.06-2.751,4.256s-2.529,2.133-4.112,2.808
			c-1.583,0.674-3.298,1.014-5.151,1.014c-1.006,0-1.979-0.126-2.925-0.377c-0.945-0.252-1.834-0.57-2.664-0.955
			c-0.829-0.387-1.583-0.811-2.258-1.274c-0.676-0.463-1.244-0.906-1.706-1.332l-2.086,3.011c-0.27,0.385-0.521,0.579-0.754,0.579
			c-0.346,0-0.519-0.251-0.519-0.754v-10.363c0-0.541,0.132-0.811,0.405-0.811c0.309,0,0.519,0.251,0.635,0.752
			c0.424,1.621,1.033,3.088,1.825,4.401c0.792,1.312,1.728,2.413,2.809,3.3c1.08,0.887,2.258,1.572,3.53,2.056
			c1.275,0.482,2.607,0.723,3.996,0.723c1.196,0,2.375-0.212,3.53-0.637c1.159-0.424,2.181-1.022,3.069-1.795
			c0.889-0.771,1.602-1.726,2.143-2.866c0.54-1.137,0.811-2.403,0.811-3.792C326.118,204.655,325.889,203.544,325.424,202.445z
			 M328.179,231.481c0.964,0,1.447,0.463,1.447,1.39v8.8c0,0.502-0.135,0.754-0.404,0.754c-0.309,0-0.462-0.27-0.462-0.81
			c-0.041-0.85-0.186-1.805-0.434-2.867c-0.255-1.062-0.647-2.065-1.188-3.011c-0.544-0.945-1.257-1.737-2.143-2.375
			c-0.889-0.636-1.988-0.955-3.302-0.955h-8.801v17.023h4.576c0.849,0,1.523-0.125,2.026-0.377c0.499-0.251,0.896-0.609,1.188-1.071
			c0.289-0.461,0.509-1.023,0.666-1.68c0.15-0.653,0.308-1.388,0.462-2.199c0.115-0.541,0.27-0.811,0.461-0.811
			c0.232,0,0.349,0.23,0.349,0.694v11.751c0,0.503-0.116,0.754-0.349,0.754c-0.191,0-0.346-0.27-0.461-0.811
			c-0.154-0.81-0.312-1.542-0.462-2.198c-0.157-0.657-0.377-1.216-0.666-1.678c-0.292-0.465-0.688-0.823-1.188-1.074
			c-0.503-0.251-1.178-0.377-2.026-0.377h-4.576v19.108h9.322c1.352,0,2.47-0.229,3.358-0.694s1.621-1.131,2.199-1.998
			c0.581-0.867,1.043-1.9,1.392-3.097c0.346-1.197,0.675-2.529,0.982-3.996c0.154-0.811,0.368-1.216,0.639-1.216
			c0.308,0,0.461,0.462,0.461,1.392v8.683c0,1.237-0.559,1.854-1.677,1.854h-27.213v-0.927h4.919v-37.056h-4.979v-0.927H328.179z
			 M345.688,193.848c0.849,0,1.523-0.126,2.026-0.377c0.503-0.25,0.898-0.608,1.188-1.071c0.289-0.463,0.512-1.022,0.666-1.679
			c0.153-0.657,0.308-1.39,0.465-2.201c0.113-0.54,0.267-0.81,0.462-0.81c0.232,0,0.349,0.232,0.349,0.694v11.755
			c0,0.503-0.116,0.752-0.349,0.752c-0.195,0-0.349-0.27-0.462-0.811c-0.157-0.811-0.312-1.544-0.465-2.201
			c-0.154-0.655-0.377-1.215-0.666-1.679s-0.685-0.82-1.188-1.071c-0.503-0.25-1.178-0.375-2.026-0.375h-4.573v19.106h9.323
			c1.351,0,2.469-0.232,3.357-0.696c0.886-0.463,1.621-1.129,2.199-1.998c0.578-0.867,1.043-1.901,1.389-3.098
			c0.349-1.195,0.675-2.527,0.986-3.994c0.153-0.811,0.364-1.217,0.638-1.217c0.308,0,0.462,0.463,0.462,1.39v8.686
			c0,1.234-0.56,1.852-1.678,1.852h-27.216v-0.925h4.922v-37.056h-4.979v-0.927h25.881c0.965,0,1.448,0.463,1.448,1.39v8.801
			c0,0.501-0.136,0.752-0.405,0.752c-0.312,0-0.465-0.27-0.465-0.811c-0.038-0.848-0.183-1.805-0.434-2.866
			s-0.647-2.063-1.188-3.011c-0.54-0.945-1.253-1.737-2.143-2.373c-0.886-0.638-1.988-0.955-3.298-0.955h-8.802v17.022H345.688z
			 M275.031,325.048v0.924h-15.574v-0.924h4.979v-37.054h-4.979v-0.93h16.328c1.659,0,3.232,0.213,4.719,0.638
			c1.485,0.424,2.771,1.043,3.851,1.854c1.081,0.81,1.938,1.812,2.576,3.012c0.638,1.194,0.955,2.545,0.955,4.052
			c0,2.431-0.811,4.448-2.432,6.05c-1.621,1.602-3.936,2.673-6.948,3.213c1.159,0.308,2.239,0.644,3.241,1.015
			c1.006,0.364,1.892,0.867,2.664,1.501c0.773,0.641,1.43,1.458,1.97,2.463c0.54,1.005,0.927,2.277,1.156,3.819
			c0.116,0.773,0.185,1.583,0.204,2.432c0.019,0.852,0.037,1.681,0.057,2.491c0.019,0.811,0.06,1.564,0.116,2.258
			c0.06,0.694,0.145,1.238,0.261,1.621c0.349,0.968,1.118,1.448,2.314,1.448c0.965,0,1.835-0.27,2.607-0.811
			c0.154-0.078,0.271-0.116,0.349-0.116c0.113,0,0.173,0.057,0.173,0.176c0,0.113-0.06,0.229-0.173,0.345
			c-0.194,0.195-0.493,0.396-0.898,0.609c-0.405,0.211-0.889,0.415-1.448,0.606c-0.559,0.191-1.168,0.355-1.824,0.493
			c-0.657,0.132-1.311,0.201-1.967,0.201c-0.772,0-1.498-0.094-2.171-0.289c-0.679-0.195-1.266-0.559-1.769-1.1
			c-0.54-0.578-0.936-1.275-1.188-2.086c-0.251-0.81-0.424-1.696-0.518-2.663c-0.098-0.965-0.157-1.967-0.176-3.01
			c-0.02-1.043-0.085-2.067-0.201-3.069c-0.195-1.662-0.513-3.019-0.955-4.081c-0.446-1.062-0.968-1.891-1.564-2.491
			c-0.6-0.6-1.244-1.002-1.938-1.215c-0.697-0.213-1.354-0.321-1.97-0.321h-4.806v18.936H275.031z M237.368,369.456h-11.636
			l-3.649,11.173h6.835v0.926h-12.854v-0.744c-0.362,0.178-0.77,0.349-1.243,0.515c-0.56,0.192-1.169,0.355-1.825,0.49
			c-0.656,0.136-1.313,0.205-1.97,0.205c-0.772,0-1.495-0.097-2.171-0.289c-0.675-0.195-1.266-0.559-1.765-1.103
			c-0.544-0.578-0.937-1.272-1.188-2.083c-0.252-0.811-0.425-1.7-0.521-2.664c-0.098-0.964-0.154-1.97-0.173-3.009
			c-0.02-1.042-0.088-2.067-0.201-3.069c-0.195-1.659-0.516-3.022-0.958-4.084c-0.443-1.062-0.965-1.891-1.562-2.487
			c-0.6-0.601-1.244-1.006-1.941-1.219c-0.694-0.211-1.351-0.317-1.966-0.317h-4.807v18.932h4.976v0.926h-15.574v-0.926h4.982
			v-37.054h-4.982v-0.927h16.328c1.659,0,3.236,0.21,4.719,0.638c1.488,0.424,2.771,1.043,3.851,1.854
			c1.081,0.811,1.941,1.815,2.576,3.009c0.638,1.197,0.955,2.547,0.955,4.052c0,2.431-0.811,4.448-2.432,6.05
			s-3.936,2.677-6.948,3.217c1.162,0.308,2.24,0.647,3.245,1.012c1.002,0.367,1.888,0.867,2.66,1.504
			c0.773,0.638,1.43,1.458,1.973,2.459c0.541,1.005,0.924,2.281,1.156,3.823c0.116,0.772,0.183,1.583,0.201,2.431
			c0.019,0.851,0.038,1.68,0.06,2.491c0.019,0.811,0.06,1.564,0.116,2.259s0.145,1.234,0.261,1.621
			c0.349,0.964,1.118,1.448,2.315,1.448c0.964,0,1.834-0.271,2.606-0.814c0.151-0.076,0.271-0.113,0.346-0.113
			c0.116,0,0.176,0.057,0.176,0.173s-0.06,0.232-0.176,0.349c-0.167,0.164-0.425,0.339-0.749,0.518h4.628l12.681-38.502h0.691
			l12.682,38.502h5.038v0.926h-16.966v-0.926h5.965L237.368,369.456z M178.4,287.994v-0.93h15.574v0.93h-4.981v37.054h4.981v0.924
			H178.4v-0.924h4.979v-37.054H178.4z M229.232,325.972v-0.924h4.925v-37.054h-8.513l-12.389,38.559h-1.043l-13.03-38.559h-4.976
			v-0.93h15.631v0.93h-5.211l10.193,29.93l9.608-29.93h-4.979v-0.93h35.606c0.964,0,1.448,0.465,1.448,1.392v8.798
			c0,0.503-0.136,0.754-0.405,0.754c-0.309,0-0.462-0.27-0.462-0.81c-0.041-0.848-0.186-1.803-0.437-2.865
			c-0.252-1.062-0.647-2.067-1.185-3.013c-0.543-0.945-1.257-1.737-2.143-2.372c-0.889-0.641-1.988-0.955-3.301-0.955h-8.799v17.019
			h4.573c0.849,0,1.523-0.125,2.023-0.377c0.502-0.251,0.898-0.606,1.187-1.068c0.293-0.465,0.513-1.024,0.666-1.681
			c0.154-0.656,0.312-1.392,0.465-2.202c0.117-0.54,0.271-0.811,0.462-0.811c0.232,0,0.349,0.232,0.349,0.697v11.755
			c0,0.499-0.116,0.751-0.349,0.751c-0.191,0-0.345-0.271-0.462-0.811c-0.153-0.811-0.311-1.542-0.465-2.202
			c-0.153-0.653-0.373-1.213-0.666-1.678c-0.288-0.465-0.685-0.819-1.187-1.071c-0.5-0.251-1.175-0.377-2.023-0.377h-4.573v19.108
			h9.32c1.351,0,2.469-0.232,3.357-0.697c0.886-0.462,1.621-1.128,2.199-1.998c0.581-0.867,1.043-1.897,1.392-3.097
			c0.345-1.194,0.672-2.526,0.983-3.993c0.153-0.813,0.367-1.215,0.637-1.215c0.309,0,0.462,0.462,0.462,1.388v8.686
			c0,1.235-0.559,1.851-1.677,1.851H229.232z M213.535,203.083c-0.87,2.45-2.095,4.543-3.679,6.281
			c-1.583,1.737-3.492,3.079-5.729,4.024c-2.239,0.947-4.712,1.418-7.413,1.418h-17.079v-0.925h5.095v-37.056h-5.095v-0.927h17.079
			c2.664,0,5.104,0.454,7.325,1.36c2.218,0.907,4.128,2.2,5.729,3.879c1.603,1.679,2.85,3.687,3.738,6.022
			c0.886,2.335,1.332,4.912,1.332,7.729C214.839,197.899,214.405,200.631,213.535,203.083z M179.679,141.489
			c-1.438,3.727-3.39,7.027-5.852,9.901c-2.463,2.875-5.356,5.178-8.67,6.909c-3.317,1.729-6.852,2.596-10.605,2.596
			c-3.757,0-7.291-0.867-10.604-2.596c-3.314-1.731-6.204-4.034-8.67-6.909c-2.463-2.875-4.413-6.175-5.849-9.901
			c-1.439-3.726-2.158-7.582-2.158-11.572c0-3.99,0.719-7.847,2.158-11.574c1.436-3.724,3.386-7.01,5.849-9.855
			c2.466-2.846,5.355-5.119,8.67-6.821c3.313-1.701,6.848-2.553,10.604-2.553c3.754,0,7.288,0.852,10.605,2.553
			c3.313,1.702,6.207,3.975,8.67,6.821c2.462,2.846,4.413,6.132,5.852,9.855c1.436,3.727,2.158,7.584,2.158,11.574
			C181.837,133.908,181.114,137.764,179.679,141.489z M178.884,195.526c0,2.625-0.478,5.163-1.42,7.613
			c-0.948,2.452-2.229,4.624-3.851,6.515c-1.621,1.891-3.524,3.406-5.705,4.544c-2.18,1.139-4.504,1.709-6.974,1.709
			c-2.472,0-4.799-0.57-6.979-1.709c-2.18-1.138-4.08-2.653-5.701-4.544c-1.624-1.891-2.905-4.063-3.852-6.515
			c-0.945-2.45-1.416-4.988-1.416-7.613s0.471-5.163,1.416-7.614c0.946-2.45,2.228-4.611,3.852-6.485
			c1.621-1.87,3.521-3.367,5.701-4.487c2.181-1.118,4.508-1.679,6.979-1.679c2.47,0,4.794,0.561,6.974,1.679
			c2.181,1.12,4.084,2.617,5.705,4.487c1.621,1.874,2.902,4.035,3.851,6.485C178.406,190.364,178.884,192.902,178.884,195.526z
			 M145.631,288.05c0.038-0.657,0.421-0.986,1.156-0.986h28.544c0.732,0,1.119,0.33,1.159,0.986l0.867,10.074h-1.216
			c-0.424-3.125-1.304-5.598-2.635-7.411c-1.332-1.815-2.884-2.72-4.662-2.72h-4.976v37.054h4.976v0.924h-15.574v-0.924h4.982
			v-37.054h-4.982c-1.775,0-3.33,0.904-4.662,2.72c-1.332,1.812-2.208,4.285-2.632,7.411h-1.216L145.631,288.05z M147.942,354.664
			c0.949-2.45,2.23-4.611,3.852-6.484c1.621-1.872,3.524-3.368,5.705-4.489c2.18-1.121,4.504-1.681,6.977-1.681
			c2.472,0,4.797,0.56,6.977,1.681s4.083,2.617,5.704,4.489c1.621,1.873,2.902,4.034,3.852,6.484
			c0.942,2.45,1.417,4.988,1.417,7.614c0,2.623-0.475,5.161-1.417,7.611c-0.949,2.453-2.23,4.624-3.852,6.515
			c-1.621,1.891-3.524,3.405-5.704,4.545c-2.18,1.137-4.505,1.709-6.977,1.709c-2.473,0-4.797-0.572-6.977-1.709
			c-2.181-1.14-4.084-2.654-5.705-4.545c-1.621-1.891-2.902-4.062-3.852-6.515c-0.941-2.45-1.416-4.988-1.416-7.611
			C146.526,359.652,147.001,357.114,147.942,354.664z M263.192,381.038c-2.124-1.081-3.993-2.547-5.617-4.401
			c-1.62-1.854-2.915-4.015-3.879-6.486c-0.965-2.469-1.445-5.076-1.445-7.815s0.472-5.347,1.417-7.815
			c0.945-2.469,2.221-4.634,3.823-6.484c1.602-1.853,3.483-3.323,5.645-4.404c2.161-1.081,4.457-1.621,6.889-1.621
			c1.815,0,3.521,0.289,5.127,0.87c1.599,0.578,2.959,1.37,4.08,2.372l2.491-2.488c0.15-0.154,0.279-0.27,0.374-0.346
			c0.097-0.078,0.241-0.119,0.437-0.119c0.308,0,0.462,0.214,0.462,0.641v10.941c0,0.349-0.117,0.521-0.35,0.521
			c-0.229,0-0.404-0.173-0.518-0.521c-1.238-3.937-2.859-6.726-4.866-8.365c-2.007-1.643-4.42-2.463-7.237-2.463
			c-1.583,0-3.019,0.302-4.312,0.898c-1.295,0.597-2.413,1.526-3.358,2.777c-0.945,1.256-1.678,2.868-2.199,4.837
			c-0.521,1.967-0.782,4.322-0.782,7.062v7.125c0,5.249,0.927,9.204,2.78,11.868c1.851,2.664,4.458,3.996,7.815,3.996
			c1.583,0,2.865-0.242,3.852-0.726c0.982-0.481,1.743-1.1,2.286-1.85c0.541-0.754,0.905-1.593,1.1-2.52
			c0.191-0.927,0.289-1.854,0.289-2.78v-5.443H271.3v-0.924h17.195v0.924h-5.035v1.97c0,2.161-0.358,4.023-1.071,5.588
			c-0.717,1.564-1.7,2.846-2.956,3.848c-1.254,1.005-2.701,1.75-4.342,2.23c-1.64,0.484-3.386,0.726-5.239,0.726
			C267.536,382.659,265.315,382.115,263.192,381.038z M287.974,380.629h4.922v-37.054h-4.979v-0.927h25.881
			c0.964,0,1.445,0.462,1.445,1.392v8.799c0,0.502-0.136,0.75-0.406,0.75c-0.308,0-0.461-0.267-0.461-0.81
			c-0.038-0.849-0.183-1.804-0.434-2.865c-0.252-1.062-0.647-2.063-1.188-3.009c-0.54-0.945-1.257-1.737-2.143-2.375
			c-0.889-0.635-1.988-0.955-3.301-0.955h-8.799v17.022h4.573c0.849,0,1.523-0.126,2.026-0.377c0.499-0.248,0.898-0.606,1.188-1.071
			c0.289-0.462,0.509-1.024,0.666-1.678c0.153-0.656,0.308-1.388,0.461-2.198c0.117-0.544,0.271-0.814,0.466-0.814
			c0.229,0,0.345,0.233,0.345,0.694v11.754c0,0.503-0.116,0.754-0.345,0.754c-0.195,0-0.349-0.27-0.466-0.811
			c-0.153-0.811-0.308-1.545-0.461-2.199c-0.157-0.66-0.377-1.219-0.666-1.684c-0.289-0.458-0.688-0.817-1.188-1.068
			c-0.503-0.251-1.178-0.377-2.026-0.377h-4.573v19.105h9.32c1.351,0,2.469-0.229,3.357-0.694c0.889-0.461,1.621-1.127,2.202-1.998
			c0.578-0.867,1.04-1.9,1.389-3.098c0.349-1.196,0.675-2.525,0.983-3.996c0.153-0.81,0.367-1.215,0.637-1.215
			c0.309,0,0.465,0.465,0.465,1.392v8.682c0,1.238-0.562,1.853-1.68,1.853h-27.213V380.629z M335.014,70.115
			c0-0.539,0.135-0.811,0.405-0.811c0.311,0,0.521,0.251,0.638,0.752c0.424,1.623,1.033,3.089,1.825,4.401
			c0.788,1.313,1.728,2.412,2.809,3.3c1.08,0.889,2.258,1.574,3.53,2.056c1.275,0.482,2.607,0.725,3.996,0.725
			c1.196,0,2.374-0.212,3.53-0.638c1.159-0.424,2.18-1.022,3.069-1.794c0.889-0.772,1.602-1.728,2.142-2.866
			c0.541-1.139,0.811-2.403,0.811-3.793c0-1.118-0.232-2.229-0.693-3.328c-0.462-1.102-1.352-1.959-2.664-2.578
			c-1.043-0.501-1.96-0.897-2.749-1.188c-0.791-0.289-1.573-0.559-2.347-0.81c-0.772-0.25-1.602-0.511-2.487-0.781
			c-0.89-0.27-1.97-0.618-3.245-1.043c-2.664-0.887-4.621-2.18-5.877-3.879c-1.254-1.698-1.882-3.57-1.882-5.617
			c0-1.504,0.271-2.932,0.811-4.285c0.54-1.351,1.332-2.548,2.375-3.589c1.042-1.043,2.306-1.872,3.791-2.489
			c1.486-0.617,3.176-0.927,5.067-0.927c0.926,0,1.746,0.049,2.462,0.145c0.714,0.098,1.389,0.242,2.026,0.435
			c0.638,0.193,1.263,0.443,1.882,0.752c0.615,0.31,1.272,0.656,1.966,1.041l1.681-2.143c0.232-0.308,0.443-0.463,0.638-0.463
			c0.229,0,0.346,0.194,0.346,0.58v10.306c0,0.387-0.135,0.58-0.405,0.58c-0.308,0-0.48-0.193-0.521-0.58
			c-0.153-1.234-0.471-2.431-0.954-3.59c-0.481-1.158-1.128-2.18-1.938-3.067c-0.811-0.889-1.815-1.602-3.013-2.142
			c-1.197-0.541-2.585-0.812-4.168-0.812c-1.04,0-2.074,0.146-3.098,0.436c-1.024,0.289-1.929,0.724-2.721,1.302
			c-0.791,0.58-1.438,1.322-1.941,2.23c-0.499,0.906-0.75,1.958-0.75,3.155c0,1.273,0.308,2.394,0.927,3.358
			c0.615,0.964,1.523,1.679,2.72,2.142c1.081,0.424,2.064,0.781,2.953,1.071c0.889,0.289,1.737,0.55,2.547,0.781
			c0.811,0.232,1.603,0.445,2.375,0.638c0.77,0.193,1.603,0.425,2.488,0.694c2.626,0.773,4.545,2.056,5.761,3.851
			s1.825,3.984,1.825,6.571c0,1.892-0.339,3.658-1.015,5.298c-0.675,1.642-1.593,3.06-2.749,4.255
			c-1.158,1.197-2.528,2.133-4.111,2.809c-1.583,0.675-3.299,1.013-5.151,1.013c-1.006,0-1.979-0.125-2.925-0.375
			c-0.945-0.252-1.834-0.57-2.664-0.955c-0.829-0.387-1.583-0.812-2.258-1.274c-0.676-0.463-1.244-0.908-1.709-1.332l-2.083,3.011
			c-0.271,0.385-0.521,0.578-0.754,0.578c-0.346,0-0.521-0.251-0.521-0.752V70.115z M298.394,53.586
			c0.945-2.452,2.229-4.613,3.851-6.485s3.521-3.367,5.704-4.487c2.181-1.12,4.505-1.679,6.978-1.679
			c2.469,0,4.793,0.559,6.977,1.679c2.18,1.12,4.08,2.615,5.701,4.487s2.905,4.034,3.852,6.485c0.945,2.45,1.419,4.988,1.419,7.613
			c0,2.626-0.474,5.165-1.419,7.615c-0.946,2.451-2.23,4.622-3.852,6.513c-1.621,1.893-3.521,3.407-5.701,4.546
			c-2.184,1.139-4.508,1.707-6.977,1.707c-2.473,0-4.797-0.568-6.978-1.707c-2.183-1.139-4.083-2.653-5.704-4.546
			c-1.621-1.891-2.905-4.062-3.851-6.513c-0.946-2.45-1.417-4.989-1.417-7.615C296.977,58.574,297.447,56.036,298.394,53.586z
			 M295.142,118.343c1.439-3.724,3.39-7.01,5.855-9.855c2.463-2.846,5.353-5.119,8.667-6.821c3.313-1.701,6.851-2.553,10.604-2.553
			s7.291,0.852,10.605,2.553c3.313,1.702,6.203,3.975,8.67,6.821c2.462,2.846,4.413,6.132,5.852,9.855
			c1.436,3.727,2.155,7.584,2.155,11.574c0,3.991-0.72,7.847-2.155,11.572c-1.438,3.727-3.39,7.027-5.852,9.901
			c-2.467,2.875-5.356,5.178-8.67,6.909c-3.314,1.729-6.852,2.596-10.605,2.596s-7.291-0.867-10.604-2.596
			c-3.314-1.731-6.204-4.034-8.667-6.909c-2.466-2.875-4.416-6.175-5.855-9.901c-1.436-3.726-2.154-7.582-2.154-11.572
			C292.987,125.927,293.706,122.07,295.142,118.343z M292.02,101.49h-7.567v56.324h7.567v1.408h-23.676v-1.408h7.57v-29.307h-23.32
			v29.307h7.567v1.408h-23.673v-1.408h7.567V101.49h-7.567v-1.407h23.673v1.407h-7.567v25.522h23.32V101.49h-7.57v-1.407h23.676
			V101.49z M256.737,70.115c0-0.539,0.135-0.811,0.404-0.811c0.309,0,0.521,0.251,0.635,0.752c0.424,1.623,1.033,3.089,1.825,4.401
			c0.792,1.313,1.728,2.412,2.809,3.3c1.08,0.889,2.259,1.574,3.53,2.056c1.275,0.482,2.607,0.725,3.996,0.725
			c1.197,0,2.375-0.212,3.53-0.638c1.159-0.424,2.184-1.022,3.069-1.794c0.889-0.772,1.602-1.728,2.143-2.866
			c0.54-1.139,0.811-2.403,0.811-3.793c0-1.118-0.229-2.229-0.694-3.328c-0.462-1.102-1.351-1.959-2.664-2.578
			c-1.04-0.501-1.957-0.897-2.749-1.188c-0.791-0.289-1.573-0.559-2.346-0.81c-0.773-0.25-1.603-0.511-2.488-0.781
			c-0.889-0.27-1.97-0.618-3.241-1.043c-2.664-0.887-4.624-2.18-5.878-3.879c-1.256-1.698-1.881-3.57-1.881-5.617
			c0-1.504,0.267-2.932,0.81-4.285c0.541-1.351,1.332-2.548,2.372-3.589c1.043-1.043,2.309-1.872,3.795-2.489
			c1.485-0.617,3.172-0.927,5.066-0.927c0.924,0,1.743,0.049,2.46,0.145c0.713,0.098,1.388,0.242,2.025,0.435
			c0.638,0.193,1.263,0.443,1.882,0.752c0.616,0.31,1.275,0.656,1.97,1.041l1.678-2.143c0.232-0.308,0.442-0.463,0.638-0.463
			c0.232,0,0.349,0.194,0.349,0.58v10.306c0,0.387-0.139,0.58-0.405,0.58c-0.312,0-0.484-0.193-0.521-0.58
			c-0.157-1.234-0.475-2.431-0.955-3.59c-0.483-1.158-1.131-2.18-1.941-3.067c-0.811-0.889-1.815-1.602-3.01-2.142
			c-1.196-0.541-2.588-0.812-4.168-0.812c-1.043,0-2.076,0.146-3.101,0.436c-1.021,0.289-1.929,0.724-2.72,1.302
			c-0.792,0.58-1.439,1.322-1.938,2.23c-0.503,0.906-0.754,1.958-0.754,3.155c0,1.273,0.308,2.394,0.927,3.358
			c0.615,0.964,1.523,1.679,2.721,2.142c1.08,0.424,2.063,0.781,2.952,1.071c0.89,0.289,1.737,0.55,2.548,0.781
			c0.811,0.232,1.602,0.445,2.375,0.638c0.772,0.193,1.602,0.425,2.49,0.694c2.623,0.773,4.543,2.056,5.762,3.851
			c1.216,1.795,1.821,3.984,1.821,6.571c0,1.892-0.339,3.658-1.011,5.298c-0.679,1.642-1.593,3.06-2.752,4.255
			c-1.159,1.197-2.529,2.133-4.112,2.809c-1.583,0.675-3.298,1.013-5.151,1.013c-1.005,0-1.979-0.125-2.925-0.375
			c-0.945-0.252-1.834-0.57-2.663-0.955c-0.83-0.387-1.584-0.812-2.259-1.274c-0.676-0.463-1.244-0.908-1.706-1.332l-2.086,3.011
			c-0.27,0.385-0.521,0.578-0.75,0.578c-0.35,0-0.521-0.251-0.521-0.752V70.115z M220.116,53.586
			c0.942-2.452,2.228-4.613,3.848-6.485c1.624-1.872,3.521-3.367,5.705-4.487c2.18-1.12,4.508-1.679,6.977-1.679
			s4.793,0.559,6.977,1.679c2.18,1.12,4.08,2.615,5.701,4.487c1.624,1.872,2.906,4.034,3.852,6.485
			c0.945,2.45,1.42,4.988,1.42,7.613c0,2.626-0.475,5.165-1.42,7.615c-0.945,2.451-2.228,4.622-3.852,6.513
			c-1.621,1.893-3.521,3.407-5.701,4.546c-2.184,1.139-4.508,1.707-6.977,1.707s-4.797-0.568-6.977-1.707
			c-2.184-1.139-4.081-2.653-5.705-4.546c-1.62-1.891-2.905-4.062-3.848-6.513c-0.949-2.45-1.42-4.989-1.42-7.615
			C218.696,58.574,219.167,56.036,220.116,53.586z M182.798,79.553h5.096V42.497h-5.096V41.57h17.082
			c2.664,0,5.102,0.454,7.326,1.362c2.217,0.906,4.127,2.2,5.729,3.879c1.602,1.679,2.846,3.687,3.734,6.021
			c0.89,2.335,1.332,4.913,1.332,7.73c0,3.011-0.437,5.742-1.304,8.192c-0.867,2.452-2.092,4.545-3.675,6.283
			c-1.583,1.737-3.493,3.079-5.733,4.024c-2.239,0.945-4.708,1.418-7.41,1.418h-17.082V79.553z M182.54,157.814h7.564V101.49h-7.564
			v-1.407h17.334l27.285,44.62V101.49h-7.57v-1.407h16.548v1.407h-7.57v58.437h-2.991l-34.061-55.885v53.772h7.567v1.408H182.54
			V157.814z M147.565,53.586c0.949-2.452,2.23-4.613,3.852-6.485s3.524-3.367,5.705-4.487c2.18-1.12,4.504-1.679,6.977-1.679
			c2.469,0,4.797,0.559,6.977,1.679c2.18,1.12,4.083,2.615,5.704,4.487s2.902,4.034,3.849,6.485c0.945,2.45,1.42,4.988,1.42,7.613
			c0,2.626-0.475,5.165-1.42,7.615c-0.946,2.451-2.228,4.622-3.849,6.513c-1.621,1.893-3.524,3.407-5.704,4.546
			s-4.508,1.707-6.977,1.707c-2.473,0-4.797-0.568-6.977-1.707c-2.181-1.139-4.084-2.653-5.705-4.546
			c-1.621-1.891-2.902-4.062-3.852-6.513c-0.945-2.45-1.416-4.989-1.416-7.615C146.149,58.574,146.62,56.036,147.565,53.586z
			 M113.553,42.556c0.037-0.657,0.424-0.985,1.155-0.985h28.548c0.732,0,1.118,0.329,1.156,0.985l0.867,10.074h-1.213
			c-0.427-3.125-1.304-5.596-2.636-7.41s-2.887-2.722-4.661-2.722h-4.979v37.056h4.979v0.927h-15.574v-0.927h4.979V42.497h-4.979
			c-1.775,0-3.33,0.908-4.662,2.722s-2.208,4.285-2.636,7.41h-1.212L113.553,42.556z M85.382,143.47
			c0-0.821,0.201-1.231,0.615-1.231c0.465,0,0.792,0.382,0.968,1.144c0.644,2.464,1.567,4.694,2.771,6.688
			c1.203,1.996,2.626,3.669,4.27,5.017c1.643,1.351,3.433,2.392,5.368,3.125c1.935,0.734,3.961,1.1,6.071,1.1
			c1.819,0,3.609-0.322,5.369-0.967c1.759-0.646,3.313-1.555,4.664-2.729c1.348-1.173,2.435-2.626,3.258-4.357
			c0.82-1.729,1.231-3.653,1.231-5.764c0-1.701-0.352-3.39-1.056-5.061c-0.703-1.673-2.054-2.978-4.049-3.917
			c-1.586-0.762-2.981-1.363-4.181-1.803c-1.203-0.44-2.391-0.85-3.562-1.233c-1.175-0.38-2.438-0.777-3.785-1.188
			c-1.351-0.41-2.993-0.938-4.929-1.585c-4.049-1.349-7.027-3.313-8.934-5.896c-1.907-2.581-2.858-5.427-2.858-8.537
			c0-2.289,0.408-4.459,1.231-6.513c0.819-2.053,2.022-3.872,3.605-5.457c1.584-1.583,3.506-2.844,5.768-3.784
			c2.256-0.938,4.825-1.409,7.699-1.409c1.41,0,2.654,0.076,3.741,0.22c1.084,0.148,2.111,0.368,3.079,0.661
			c0.967,0.293,1.922,0.674,2.861,1.144c0.939,0.469,1.938,0.999,2.993,1.584l2.551-3.257c0.353-0.468,0.673-0.704,0.968-0.704
			c0.352,0,0.527,0.294,0.527,0.88v15.665c0,0.588-0.207,0.881-0.615,0.881c-0.472,0-0.735-0.293-0.792-0.881
			c-0.235-1.877-0.719-3.695-1.451-5.456c-0.735-1.759-1.715-3.314-2.949-4.665c-1.231-1.348-2.759-2.433-4.577-3.256
			c-1.818-0.82-3.933-1.231-6.336-1.231c-1.583,0-3.157,0.22-4.709,0.66c-1.555,0.439-2.934,1.101-4.134,1.98
			c-1.206,0.879-2.187,2.01-2.949,3.388c-0.764,1.379-1.146,2.979-1.146,4.797c0,1.937,0.471,3.639,1.41,5.104
			c0.939,1.467,2.315,2.552,4.137,3.256c1.64,0.647,3.136,1.188,4.486,1.628s2.642,0.835,3.873,1.188
			c1.234,0.352,2.435,0.675,3.609,0.967c1.175,0.295,2.431,0.647,3.782,1.057c3.989,1.175,6.91,3.124,8.758,5.852
			c1.847,2.729,2.773,6.06,2.773,9.989c0,2.876-0.516,5.56-1.543,8.053c-1.023,2.494-2.418,4.65-4.178,6.468
			c-1.759,1.82-3.845,3.243-6.251,4.269s-5.013,1.541-7.831,1.541c-1.526,0-3.006-0.191-4.444-0.573
			c-1.439-0.382-2.786-0.865-4.046-1.451c-1.264-0.586-2.406-1.233-3.434-1.937s-1.895-1.377-2.598-2.024l-3.167,4.577
			c-0.411,0.586-0.791,0.879-1.144,0.879c-0.527,0-0.791-0.381-0.791-1.144V143.47z M83.412,243.497
			c0.945-2.452,2.228-4.613,3.848-6.485c1.621-1.873,3.524-3.368,5.705-4.487c2.18-1.12,4.505-1.679,6.979-1.679
			c2.469,0,4.794,0.559,6.974,1.679c2.181,1.12,4.084,2.615,5.704,4.487c1.621,1.872,2.903,4.033,3.852,6.485
			c0.942,2.449,1.417,4.987,1.417,7.613s-0.475,5.164-1.417,7.614c-0.948,2.45-2.23,4.624-3.852,6.515
			c-1.62,1.892-3.523,3.405-5.704,4.543c-2.18,1.137-4.505,1.708-6.974,1.708c-2.475,0-4.8-0.572-6.979-1.708
			c-2.181-1.138-4.084-2.651-5.705-4.543c-1.62-1.891-2.902-4.064-3.848-6.515s-1.417-4.988-1.417-7.614
			S82.467,245.945,83.412,243.497z M72.615,269.464v0.927H57.041v-0.927h4.976v-37.056h-4.976c-1.777,0-3.33,0.907-4.661,2.722
			c-1.332,1.814-2.212,4.284-2.636,7.41h-1.216l0.867-10.074c0.038-0.656,0.427-0.984,1.159-0.984h28.544
			c0.735,0,1.119,0.328,1.156,0.984l0.87,10.074h-1.216c-0.427-3.126-1.3-5.596-2.632-7.41c-1.332-1.814-2.89-2.722-4.662-2.722
			h-4.981v37.056H72.615z M99.63,318.998c-0.678,1.64-1.596,3.06-2.751,4.253c-1.156,1.2-2.529,2.136-4.109,2.809
			c-1.583,0.675-3.304,1.015-5.154,1.015c-1.005,0-1.979-0.126-2.925-0.377c-0.945-0.251-1.834-0.568-2.664-0.955
			c-0.829-0.386-1.583-0.811-2.255-1.272c-0.679-0.465-1.247-0.907-1.709-1.332l-2.086,3.009c-0.27,0.383-0.521,0.578-0.754,0.578
			c-0.346,0-0.521-0.251-0.521-0.754v-10.36c0-0.541,0.139-0.811,0.408-0.811c0.309,0,0.521,0.251,0.635,0.75
			c0.428,1.621,1.034,3.088,1.825,4.401c0.788,1.312,1.725,2.412,2.809,3.298c1.077,0.889,2.258,1.574,3.53,2.055
			c1.272,0.483,2.604,0.726,3.996,0.726c1.196,0,2.375-0.21,3.534-0.638c1.155-0.424,2.18-1.021,3.065-1.794
			c0.889-0.77,1.603-1.728,2.143-2.868c0.54-1.137,0.811-2.4,0.811-3.789c0-1.121-0.232-2.23-0.694-3.329
			c-0.462-1.103-1.351-1.96-2.661-2.579c-1.043-0.5-1.96-0.896-2.751-1.185c-0.792-0.292-1.574-0.559-2.347-0.811
			c-0.771-0.251-1.603-0.515-2.491-0.785c-0.886-0.27-1.967-0.616-3.242-1.043c-2.664-0.886-4.62-2.18-5.874-3.876
			c-1.257-1.7-1.885-3.572-1.885-5.617c0-1.508,0.271-2.934,0.811-4.285s1.332-2.548,2.375-3.591
			c1.043-1.04,2.306-1.872,3.794-2.491c1.483-0.616,3.173-0.923,5.064-0.923c0.93,0,1.746,0.047,2.463,0.145
			c0.713,0.094,1.388,0.238,2.025,0.434c0.638,0.194,1.267,0.446,1.882,0.754c0.616,0.308,1.275,0.653,1.967,1.042l1.681-2.142
			c0.232-0.311,0.442-0.465,0.638-0.465c0.232,0,0.345,0.194,0.345,0.578v10.306c0,0.386-0.132,0.581-0.401,0.581
			c-0.312,0-0.484-0.195-0.521-0.581c-0.157-1.235-0.475-2.431-0.955-3.59c-0.483-1.156-1.131-2.18-1.941-3.066
			c-0.811-0.889-1.815-1.602-3.009-2.142c-1.2-0.541-2.589-0.811-4.172-0.811c-1.043,0-2.073,0.145-3.098,0.434
			c-1.023,0.289-1.929,0.722-2.721,1.3c-0.791,0.578-1.438,1.326-1.94,2.23c-0.503,0.908-0.751,1.96-0.751,3.154
			c0,1.275,0.308,2.394,0.927,3.361c0.615,0.964,1.523,1.677,2.72,2.142c1.081,0.424,2.067,0.779,2.953,1.068
			s1.737,0.553,2.548,0.785c0.811,0.229,1.602,0.439,2.374,0.635c0.771,0.194,1.6,0.427,2.491,0.697
			c2.623,0.77,4.543,2.054,5.762,3.848c1.212,1.794,1.821,3.986,1.821,6.572C100.642,315.593,100.303,317.358,99.63,318.998z
			 M101.857,287.994v-0.93h25.881c0.964,0,1.448,0.465,1.448,1.392v8.798c0,0.503-0.135,0.754-0.405,0.754
			c-0.308,0-0.465-0.27-0.465-0.81c-0.038-0.848-0.183-1.803-0.434-2.865s-0.647-2.067-1.188-3.013s-1.253-1.737-2.143-2.372
			c-0.886-0.641-1.985-0.955-3.298-0.955h-8.802v17.019h4.573c0.849,0,1.527-0.125,2.029-0.377c0.5-0.251,0.896-0.606,1.185-1.068
			c0.292-0.465,0.512-1.024,0.666-1.681c0.153-0.656,0.311-1.392,0.462-2.202c0.119-0.54,0.27-0.811,0.465-0.811
			c0.232,0,0.346,0.232,0.346,0.697v11.755c0,0.499-0.113,0.751-0.346,0.751c-0.195,0-0.346-0.271-0.465-0.811
			c-0.151-0.811-0.309-1.542-0.462-2.202c-0.154-0.653-0.374-1.213-0.666-1.678c-0.289-0.465-0.685-0.819-1.185-1.071
			c-0.502-0.251-1.181-0.377-2.029-0.377h-4.573v19.108h9.323c1.351,0,2.469-0.232,3.354-0.697c0.89-0.462,1.621-1.128,2.202-1.998
			c0.581-0.867,1.043-1.897,1.392-3.097c0.346-1.194,0.672-2.526,0.98-3.993c0.157-0.813,0.37-1.215,0.641-1.215
			c0.308,0,0.462,0.462,0.462,1.388v8.686c0,1.235-0.562,1.851-1.681,1.851h-27.21v-0.924h4.92v-37.054H101.857z M124.986,381.038
			c-2.082-1.081-3.954-2.547-5.616-4.401c-1.658-1.854-3-4.024-4.021-6.515c-1.024-2.491-1.533-5.161-1.533-8.02
			c0-2.469,0.439-4.913,1.329-7.326c0.889-2.413,2.133-4.561,3.734-6.452c1.603-1.891,3.493-3.417,5.673-4.574
			c2.181-1.162,4.549-1.74,7.093-1.74c1.74,0,3.381,0.261,4.923,0.782s2.931,1.285,4.169,2.287l2.258-2.315
			c0.309-0.308,0.56-0.465,0.751-0.465c0.157,0,0.271,0.06,0.349,0.176c0.078,0.113,0.116,0.346,0.116,0.694v9.439
			c0,0.462-0.098,0.691-0.289,0.691c-0.157,0-0.289-0.192-0.405-0.578c-0.462-1.389-1.062-2.683-1.793-3.876
			c-0.735-1.2-1.603-2.221-2.607-3.072c-1.006-0.848-2.124-1.514-3.358-1.998c-1.234-0.48-2.604-0.723-4.112-0.723
			c-3.628,0-6.311,1.382-8.047,4.14c-1.734,2.758-2.604,6.688-2.604,11.783v6.487c0,5.287,0.848,9.301,2.548,12.041
			c1.696,2.742,4.303,4.112,7.815,4.112c1.545,0,2.952-0.28,4.228-0.842c1.272-0.559,2.432-1.338,3.475-2.343
			c1.043-1.002,1.966-2.189,2.776-3.56c0.811-1.372,1.564-2.849,2.259-4.432c0.191-0.424,0.387-0.635,0.581-0.635
			c0.191,0,0.289,0.191,0.289,0.578v11.173c0,0.271-0.116,0.405-0.349,0.405c-0.154,0-0.33-0.094-0.521-0.289l-3.069-3.357
			c-1.312,1.467-2.799,2.557-4.457,3.273c-1.662,0.713-3.396,1.071-5.211,1.071C129.196,382.659,127.072,382.115,124.986,381.038z
			 M131.759,437.141v-0.927h4.982V399.16h-4.982v-0.927h16.039c1.854,0,3.525,0.251,5.008,0.75c1.488,0.503,2.752,1.219,3.795,2.143
			c1.043,0.927,1.84,2.039,2.402,3.33c0.56,1.294,0.839,2.714,0.839,4.256c0,1.583-0.279,3.022-0.839,4.313
			c-0.562,1.294-1.341,2.403-2.347,3.329c-1.005,0.927-2.208,1.64-3.618,2.143c-1.407,0.503-2.963,0.754-4.662,0.754h-6.019v16.963
			h4.979v0.927H131.759z M169.039,485.748c-0.675,1.64-1.589,3.06-2.751,4.257c-1.156,1.196-2.525,2.133-4.109,2.805
			c-1.583,0.676-3.298,1.015-5.151,1.015c-1.005,0-1.979-0.125-2.925-0.377c-0.945-0.251-1.834-0.568-2.663-0.955
			c-0.833-0.387-1.584-0.811-2.259-1.271c-0.676-0.465-1.244-0.908-1.709-1.332l-2.086,3.009c-0.27,0.387-0.519,0.578-0.751,0.578
			c-0.349,0-0.521-0.251-0.521-0.751v-10.363c0-0.543,0.136-0.812,0.405-0.812c0.309,0,0.521,0.251,0.638,0.754
			c0.425,1.62,1.034,3.088,1.825,4.4c0.792,1.312,1.728,2.412,2.809,3.302c1.08,0.886,2.255,1.57,3.53,2.054
			c1.275,0.484,2.607,0.723,3.996,0.723c1.193,0,2.375-0.21,3.53-0.635c1.156-0.427,2.181-1.023,3.069-1.797
			c0.889-0.772,1.599-1.728,2.143-2.864c0.54-1.141,0.811-2.403,0.811-3.795c0-1.118-0.229-2.228-0.694-3.326
			c-0.465-1.103-1.351-1.96-2.664-2.579c-1.043-0.5-1.96-0.896-2.752-1.185c-0.791-0.292-1.57-0.559-2.343-0.813
			c-0.772-0.248-1.603-0.509-2.488-0.779c-0.892-0.27-1.973-0.618-3.245-1.043c-2.66-0.889-4.62-2.18-5.877-3.879
			c-1.253-1.699-1.879-3.572-1.879-5.617c0-1.504,0.268-2.934,0.811-4.284c0.541-1.351,1.332-2.548,2.372-3.591
			c1.043-1.039,2.306-1.872,3.791-2.487c1.486-0.619,3.177-0.927,5.067-0.927c0.927,0,1.746,0.047,2.459,0.145
			c0.717,0.098,1.393,0.242,2.029,0.434c0.635,0.194,1.264,0.445,1.879,0.754c0.619,0.308,1.275,0.656,1.973,1.043l1.678-2.143
			c0.232-0.311,0.442-0.465,0.635-0.465c0.232,0,0.348,0.194,0.348,0.578v10.307c0,0.386-0.135,0.581-0.404,0.581
			c-0.309,0-0.484-0.195-0.521-0.581c-0.154-1.234-0.472-2.432-0.955-3.591c-0.484-1.156-1.128-2.18-1.941-3.065
			c-0.811-0.89-1.812-1.603-3.01-2.143c-1.196-0.541-2.585-0.811-4.168-0.811c-1.04,0-2.076,0.145-3.098,0.434
			c-1.021,0.289-1.932,0.723-2.724,1.304c-0.791,0.577-1.436,1.319-1.935,2.227c-0.503,0.908-0.754,1.96-0.754,3.157
			c0,1.272,0.308,2.394,0.924,3.357c0.618,0.965,1.526,1.678,2.723,2.143c1.078,0.424,2.064,0.782,2.953,1.071
			s1.737,0.55,2.548,0.782c0.811,0.229,1.602,0.443,2.375,0.635c0.772,0.194,1.602,0.428,2.487,0.697
			c2.626,0.77,4.546,2.055,5.762,3.848c1.215,1.797,1.824,3.986,1.824,6.572C170.054,482.34,169.715,484.108,169.039,485.748z
			 M200.22,490.871c0,1.234-0.56,1.854-1.681,1.854h-27.213v-0.927h4.923v-37.057h-4.979v-0.924h25.878
			c0.968,0,1.451,0.462,1.451,1.389v8.802c0,0.499-0.139,0.75-0.408,0.75c-0.308,0-0.462-0.27-0.462-0.811
			c-0.041-0.848-0.186-1.803-0.434-2.864c-0.255-1.062-0.647-2.067-1.188-3.013c-0.543-0.945-1.253-1.736-2.142-2.371
			c-0.89-0.638-1.989-0.958-3.302-0.958h-8.802v17.022h4.576c0.849,0,1.523-0.123,2.026-0.374s0.898-0.609,1.188-1.071
			c0.289-0.465,0.509-1.024,0.666-1.681c0.15-0.656,0.308-1.389,0.462-2.198c0.116-0.541,0.27-0.811,0.462-0.811
			c0.232,0,0.352,0.229,0.352,0.693v11.755c0,0.499-0.119,0.751-0.352,0.751c-0.192,0-0.346-0.271-0.462-0.811
			c-0.154-0.811-0.312-1.543-0.462-2.199c-0.157-0.656-0.377-1.215-0.666-1.68c-0.289-0.463-0.685-0.82-1.188-1.072
			c-0.503-0.251-1.178-0.377-2.026-0.377h-4.576v19.108h9.323c1.351,0,2.469-0.232,3.36-0.694c0.887-0.465,1.621-1.131,2.199-1.997
			c0.578-0.87,1.043-1.901,1.389-3.098s0.676-2.528,0.986-3.995c0.15-0.811,0.364-1.216,0.635-1.216
			c0.308,0,0.465,0.462,0.465,1.388V490.871z M238.027,479.466h-5.038v1.97c0,2.161-0.358,4.023-1.071,5.585
			c-0.713,1.564-1.699,2.849-2.953,3.851c-1.253,1.006-2.701,1.747-4.344,2.23c-1.64,0.48-3.387,0.723-5.24,0.723
			c-2.314,0-4.536-0.54-6.656-1.621c-2.123-1.08-3.995-2.547-5.616-4.4c-1.624-1.854-2.915-4.015-3.88-6.483
			c-0.967-2.473-1.448-5.077-1.448-7.819c0-2.738,0.475-5.343,1.42-7.814c0.946-2.47,2.218-4.631,3.823-6.484
			c1.599-1.854,3.48-3.32,5.642-4.4c2.161-1.081,4.461-1.621,6.892-1.621c1.816,0,3.521,0.289,5.124,0.867
			c1.602,0.581,2.962,1.373,4.08,2.375l2.491-2.491c0.154-0.154,0.279-0.271,0.377-0.346c0.098-0.079,0.242-0.116,0.434-0.116
			c0.311,0,0.462,0.214,0.462,0.638v10.94c0,0.35-0.113,0.521-0.346,0.521s-0.405-0.172-0.521-0.521
			c-1.237-3.936-2.858-6.725-4.863-8.365c-2.007-1.639-4.422-2.459-7.237-2.459c-1.583,0-3.021,0.299-4.315,0.896
			c-1.291,0.6-2.413,1.526-3.355,2.779c-0.948,1.254-1.68,2.865-2.201,4.835c-0.519,1.969-0.782,4.322-0.782,7.064v7.121
			c0,5.249,0.927,9.207,2.779,11.867c1.854,2.664,4.458,3.996,7.819,3.996c1.58,0,2.864-0.238,3.848-0.723
			c0.983-0.483,1.746-1.1,2.287-1.854c0.54-0.754,0.907-1.592,1.103-2.519c0.188-0.927,0.289-1.854,0.289-2.777v-5.443h-6.195
			v-0.927h17.195V479.466z M271.435,454.741h-4.979v28.315c0,3.587-1.024,6.282-3.069,8.076c-2.048,1.793-4.903,2.691-8.569,2.691
			c-1.508,0-3.031-0.173-4.573-0.521c-1.546-0.346-2.946-0.945-4.2-1.793c-1.253-0.849-2.277-1.961-3.065-3.33
			c-0.792-1.37-1.188-3.078-1.188-5.123v-28.315h-4.982v-0.924h15.577v0.924h-4.981v28.315c0,3.125,0.782,5.528,2.347,7.205
			c1.564,1.681,3.693,2.52,6.398,2.52c1.31,0,2.535-0.21,3.676-0.635c1.137-0.427,2.133-1.052,2.98-1.885
			c0.849-0.829,1.514-1.85,1.998-3.065c0.483-1.216,0.726-2.598,0.726-4.14v-28.315h-4.982v-0.924h10.888V454.741z M287.644,454.741
			h-4.979v37.057h4.979v0.927h-15.574v-0.927h4.979v-37.057h-4.979v-0.924h15.574V454.741z M283.051,431.988
			c-1.62-1.891-2.905-4.064-3.851-6.515s-1.417-4.988-1.417-7.614c0-2.623,0.472-5.161,1.417-7.614
			c0.945-2.45,2.23-4.611,3.851-6.483c1.621-1.872,3.521-3.368,5.705-4.486c2.18-1.122,4.505-1.681,6.977-1.681
			c2.469,0,4.794,0.559,6.977,1.681c2.181,1.118,4.081,2.614,5.701,4.486c1.621,1.872,2.906,4.033,3.852,6.483
			c0.945,2.453,1.42,4.991,1.42,7.614c0,2.626-0.475,5.164-1.42,7.614s-2.23,4.624-3.852,6.515c-1.62,1.892-3.521,3.405-5.701,4.546
			c-2.183,1.138-4.508,1.706-6.977,1.706c-2.472,0-4.797-0.568-6.977-1.706C286.572,435.394,284.672,433.88,283.051,431.988z
			 M323.08,491.277c-0.194,0.194-0.493,0.396-0.898,0.609c-0.405,0.21-0.889,0.414-1.448,0.605
			c-0.559,0.195-1.168,0.358-1.822,0.493c-0.656,0.136-1.312,0.201-1.969,0.201c-0.773,0-1.495-0.097-2.171-0.289
			c-0.676-0.191-1.266-0.56-1.769-1.1c-0.54-0.577-0.936-1.274-1.185-2.085c-0.251-0.811-0.427-1.697-0.521-2.661
			c-0.097-0.968-0.156-1.97-0.176-3.013c-0.019-1.043-0.085-2.063-0.201-3.068c-0.194-1.659-0.512-3.02-0.954-4.081
			c-0.446-1.062-0.965-1.891-1.564-2.491c-0.598-0.597-1.244-1.002-1.938-1.215c-0.697-0.211-1.354-0.317-1.97-0.317h-4.806v18.932
			h4.979v0.927h-15.574v-0.927h4.979v-37.057h-4.979v-0.924h16.328c1.659,0,3.232,0.21,4.718,0.635
			c1.486,0.427,2.771,1.043,3.852,1.853c1.081,0.811,1.938,1.816,2.576,3.013c0.638,1.197,0.955,2.548,0.955,4.053
			c0,2.431-0.811,4.448-2.432,6.05s-3.936,2.673-6.948,3.214c1.159,0.308,2.239,0.646,3.241,1.015
			c1.006,0.364,1.892,0.867,2.664,1.504c0.772,0.635,1.43,1.458,1.97,2.46c0.54,1.005,0.927,2.277,1.159,3.823
			c0.113,0.77,0.182,1.583,0.201,2.431c0.019,0.849,0.037,1.678,0.06,2.488c0.019,0.811,0.057,1.564,0.112,2.259
			c0.061,0.693,0.145,1.234,0.262,1.621c0.348,0.967,1.121,1.447,2.317,1.447c0.965,0,1.832-0.27,2.604-0.811
			c0.154-0.078,0.271-0.115,0.349-0.115c0.113,0,0.173,0.059,0.173,0.172C323.253,491.044,323.193,491.16,323.08,491.277z
			 M329.246,492.059c-0.6,0.598-1.344,0.898-2.229,0.898c-0.89,0-1.631-0.301-2.23-0.898c-0.598-0.597-0.896-1.341-0.896-2.23
			c0-0.885,0.298-1.63,0.896-2.227c0.6-0.6,1.341-0.898,2.23-0.898c0.886,0,1.63,0.299,2.229,0.898
			c0.597,0.597,0.896,1.342,0.896,2.227C330.142,490.718,329.843,491.462,329.246,492.059z M340.746,430.164
			c-0.675,1.64-1.592,3.06-2.748,4.256c-1.159,1.197-2.528,2.133-4.112,2.809c-1.583,0.676-3.298,1.012-5.151,1.012
			c-1.005,0-1.979-0.126-2.925-0.374c-0.945-0.255-1.834-0.571-2.663-0.958c-0.83-0.384-1.584-0.811-2.259-1.272
			c-0.676-0.465-1.244-0.907-1.709-1.332l-2.083,3.01c-0.27,0.386-0.521,0.581-0.754,0.581c-0.345,0-0.521-0.252-0.521-0.754
			v-10.363c0-0.54,0.136-0.811,0.405-0.811c0.312,0,0.521,0.252,0.638,0.751c0.425,1.621,1.034,3.091,1.825,4.401
			c0.789,1.312,1.728,2.412,2.809,3.301c1.08,0.889,2.259,1.574,3.53,2.055c1.275,0.483,2.607,0.726,3.996,0.726
			c1.196,0,2.375-0.214,3.53-0.638c1.159-0.424,2.181-1.024,3.069-1.797c0.889-0.77,1.603-1.725,2.143-2.865
			c0.54-1.137,0.811-2.402,0.811-3.791c0-1.121-0.232-2.23-0.694-3.33s-1.351-1.96-2.664-2.575c-1.043-0.503-1.96-0.898-2.748-1.188
			c-0.792-0.289-1.574-0.56-2.347-0.811s-1.603-0.513-2.488-0.782c-0.889-0.271-1.97-0.619-3.245-1.043
			c-2.663-0.886-4.62-2.18-5.877-3.879c-1.253-1.696-1.882-3.568-1.882-5.617c0-1.505,0.271-2.931,0.811-4.284
			c0.54-1.351,1.332-2.548,2.375-3.588c1.043-1.043,2.306-1.872,3.791-2.491c1.486-0.619,3.177-0.927,5.067-0.927
			c0.927,0,1.746,0.05,2.463,0.145c0.713,0.097,1.389,0.242,2.025,0.434c0.638,0.195,1.264,0.446,1.882,0.754
			c0.616,0.308,1.272,0.657,1.967,1.042l1.681-2.142c0.232-0.308,0.442-0.465,0.638-0.465c0.229,0,0.345,0.195,0.345,0.581v10.306
			c0,0.384-0.135,0.578-0.404,0.578c-0.309,0-0.48-0.194-0.521-0.578c-0.154-1.237-0.472-2.434-0.955-3.59
			c-0.48-1.159-1.128-2.18-1.938-3.069c-0.811-0.889-1.815-1.602-3.013-2.143c-1.196-0.54-2.585-0.81-4.168-0.81
			c-1.04,0-2.073,0.145-3.098,0.433c-1.023,0.289-1.929,0.723-2.72,1.304c-0.792,0.578-1.439,1.323-1.941,2.228
			c-0.5,0.908-0.751,1.96-0.751,3.157c0,1.272,0.308,2.394,0.927,3.358c0.615,0.965,1.523,1.681,2.72,2.143
			c1.081,0.424,2.064,0.782,2.953,1.071s1.737,0.55,2.548,0.782s1.602,0.442,2.375,0.638c0.77,0.191,1.599,0.424,2.487,0.694
			c2.626,0.773,4.546,2.054,5.762,3.851c1.215,1.794,1.824,3.983,1.824,6.571C341.761,426.759,341.422,428.523,340.746,430.164z
			 M360.693,343.575h-4.63v37.054h4.63v0.926h-14.88v-0.926h4.633v-36.3l-12.91,37.227h-0.754l-12.91-36.994v36.068h4.63v0.926
			h-10.19v-0.926h4.634v-37.054h-4.634v-0.927h10.712l10.655,29.76l10.303-29.76h10.712V343.575z M371.116,314.305
			c-0.945,2.454-2.23,4.624-3.852,6.515s-3.521,3.409-5.701,4.545c-2.184,1.141-4.508,1.709-6.977,1.709
			c-2.473,0-4.797-0.568-6.98-1.709c-2.18-1.137-4.08-2.654-5.701-4.545c-1.62-1.891-2.905-4.062-3.851-6.515
			c-0.946-2.45-1.417-4.988-1.417-7.611c0-2.623,0.471-5.161,1.417-7.615c0.945-2.45,2.23-4.614,3.851-6.486
			c1.621-1.869,3.521-3.367,5.701-4.486c2.184-1.118,4.508-1.677,6.98-1.677c2.469,0,4.793,0.559,6.977,1.677
			c2.18,1.119,4.08,2.617,5.701,4.486c1.621,1.872,2.906,4.036,3.852,6.486c0.945,2.454,1.417,4.992,1.417,7.615
			C372.533,309.316,372.062,311.854,371.116,314.305z M399.601,318.998c-0.675,1.64-1.592,3.06-2.748,4.253
			c-1.159,1.2-2.529,2.136-4.112,2.809c-1.583,0.675-3.302,1.015-5.151,1.015c-1.005,0-1.979-0.126-2.925-0.377
			c-0.945-0.251-1.834-0.568-2.663-0.955c-0.83-0.386-1.584-0.811-2.259-1.272c-0.676-0.465-1.244-0.907-1.709-1.332l-2.083,3.009
			c-0.27,0.383-0.521,0.578-0.754,0.578c-0.346,0-0.521-0.251-0.521-0.754v-10.36c0-0.541,0.136-0.811,0.405-0.811
			c0.312,0,0.521,0.251,0.638,0.75c0.424,1.621,1.033,3.088,1.825,4.401c0.788,1.312,1.725,2.412,2.809,3.298
			c1.08,0.889,2.255,1.574,3.53,2.055c1.272,0.483,2.604,0.726,3.996,0.726c1.196,0,2.375-0.21,3.53-0.638
			c1.159-0.424,2.181-1.021,3.069-1.794c0.889-0.77,1.602-1.728,2.143-2.868c0.54-1.137,0.811-2.4,0.811-3.789
			c0-1.121-0.232-2.23-0.694-3.329c-0.465-1.103-1.351-1.96-2.664-2.579c-1.043-0.5-1.96-0.896-2.752-1.185
			c-0.791-0.292-1.57-0.559-2.343-0.811c-0.773-0.251-1.603-0.515-2.491-0.785c-0.886-0.27-1.967-0.616-3.242-1.043
			c-2.663-0.886-4.62-2.18-5.877-3.876c-1.253-1.7-1.882-3.572-1.882-5.617c0-1.508,0.271-2.934,0.811-4.285
			s1.332-2.548,2.375-3.591c1.043-1.04,2.306-1.872,3.791-2.491c1.486-0.616,3.176-0.923,5.067-0.923
			c0.927,0,1.746,0.047,2.463,0.145c0.713,0.094,1.388,0.238,2.025,0.434c0.635,0.194,1.263,0.446,1.882,0.754
			c0.616,0.308,1.272,0.653,1.967,1.042l1.681-2.142c0.232-0.311,0.442-0.465,0.638-0.465c0.229,0,0.346,0.194,0.346,0.578v10.306
			c0,0.386-0.136,0.581-0.405,0.581c-0.309,0-0.484-0.195-0.521-0.581c-0.154-1.235-0.472-2.431-0.955-3.59
			c-0.484-1.156-1.128-2.18-1.938-3.066c-0.811-0.889-1.815-1.602-3.013-2.142c-1.196-0.541-2.585-0.811-4.168-0.811
			c-1.043,0-2.073,0.145-3.098,0.434c-1.023,0.289-1.932,0.722-2.72,1.3c-0.792,0.578-1.439,1.326-1.941,2.23
			c-0.503,0.908-0.751,1.96-0.751,3.154c0,1.275,0.308,2.394,0.927,3.361c0.615,0.964,1.523,1.677,2.721,2.142
			c1.08,0.424,2.063,0.779,2.952,1.068c0.886,0.289,1.737,0.553,2.548,0.785c0.811,0.229,1.602,0.439,2.375,0.635
			c0.77,0.194,1.599,0.427,2.487,0.697c2.626,0.77,4.546,2.054,5.761,3.848c1.216,1.794,1.825,3.986,1.825,6.572
			C400.615,315.593,400.276,317.358,399.601,318.998z M411.931,263.414c-0.676,1.64-1.593,3.06-2.752,4.256
			c-1.156,1.194-2.529,2.13-4.109,2.809c-1.583,0.672-3.301,1.011-5.154,1.011c-1.002,0-1.979-0.125-2.921-0.377
			c-0.949-0.251-1.835-0.569-2.664-0.955c-0.833-0.384-1.583-0.811-2.259-1.275c-0.676-0.459-1.247-0.905-1.709-1.329l-2.086,3.013
			c-0.27,0.383-0.518,0.578-0.75,0.578c-0.349,0-0.521-0.252-0.521-0.754v-10.366c0-0.541,0.135-0.811,0.405-0.811
			c0.308,0,0.521,0.251,0.638,0.754c0.424,1.621,1.03,3.091,1.821,4.4c0.792,1.313,1.728,2.413,2.809,3.302
			c1.08,0.886,2.259,1.57,3.534,2.055c1.271,0.483,2.604,0.722,3.992,0.722c1.197,0,2.375-0.21,3.534-0.634
			c1.155-0.428,2.18-1.024,3.068-1.797c0.886-0.773,1.6-1.728,2.143-2.865c0.54-1.137,0.811-2.403,0.811-3.794
			c0-1.118-0.232-2.227-0.694-3.33c-0.465-1.1-1.354-1.957-2.664-2.576c-1.043-0.499-1.96-0.895-2.751-1.187
			c-0.792-0.289-1.574-0.559-2.344-0.811c-0.772-0.248-1.603-0.509-2.491-0.779c-0.889-0.271-1.97-0.616-3.241-1.043
			c-2.664-0.886-4.624-2.18-5.878-3.88c-1.253-1.699-1.881-3.569-1.881-5.616c0-1.505,0.27-2.933,0.811-4.285
			c0.54-1.351,1.331-2.547,2.374-3.589c1.043-1.043,2.306-1.873,3.792-2.49c1.485-0.617,3.176-0.926,5.066-0.926
			c0.927,0,1.747,0.048,2.46,0.144c0.713,0.098,1.392,0.242,2.026,0.434c0.637,0.195,1.266,0.445,1.881,0.754
			c0.619,0.308,1.275,0.657,1.97,1.042l1.681-2.142c0.229-0.308,0.443-0.464,0.635-0.464c0.232,0,0.349,0.193,0.349,0.58v10.306
			c0,0.386-0.136,0.578-0.405,0.578c-0.312,0-0.484-0.192-0.521-0.578c-0.154-1.234-0.475-2.433-0.955-3.59
			c-0.483-1.157-1.128-2.18-1.941-3.069c-0.811-0.887-1.812-1.6-3.009-2.142c-1.197-0.539-2.586-0.81-4.169-0.81
			c-1.043,0-2.076,0.146-3.098,0.435c-1.023,0.289-1.932,0.725-2.723,1.302c-0.792,0.58-1.436,1.323-1.938,2.23
			c-0.503,0.906-0.754,1.959-0.754,3.156c0,1.274,0.312,2.394,0.927,3.358c0.619,0.964,1.526,1.679,2.724,2.143
			c1.077,0.424,2.063,0.782,2.952,1.071c0.887,0.289,1.737,0.549,2.548,0.778c0.811,0.233,1.599,0.446,2.372,0.641
			c0.772,0.192,1.602,0.421,2.49,0.691c2.623,0.773,4.546,2.058,5.762,3.852c1.216,1.797,1.825,3.986,1.825,6.571
			C412.945,260.005,412.605,261.774,411.931,263.414z M424.436,269.812c-0.251,0.811-0.638,1.602-1.156,2.375
			c-0.521,0.77-1.187,1.483-1.997,2.142c-0.811,0.654-1.797,1.213-2.953,1.678c-0.157,0.075-0.273,0.113-0.349,0.113
			c-0.194,0-0.289-0.057-0.289-0.17c0-0.082,0.095-0.176,0.289-0.289c0.964-0.39,1.794-0.879,2.491-1.477
			c0.694-0.603,1.263-1.228,1.705-1.884c0.443-0.657,0.773-1.3,0.986-1.938c0.211-0.638,0.317-1.207,0.317-1.709
			c0-0.927-0.173-1.392-0.521-1.392c-0.116,0-0.173,0.176-0.173,0.521c-0.078,0.659-0.367,1.159-0.87,1.508
			c-0.499,0.346-1.062,0.521-1.677,0.521c-0.927,0-1.699-0.264-2.315-0.782c-0.619-0.521-0.927-1.266-0.927-2.23
			c0-1.002,0.346-1.803,1.04-2.403c0.697-0.597,1.602-0.898,2.724-0.898c1.118,0,2.073,0.377,2.864,1.131
			c0.792,0.754,1.188,1.728,1.188,2.925C424.812,268.248,424.687,269.002,424.436,269.812z M204.906,180.444
			c-1.1-1.292-2.362-2.219-3.792-2.78c-1.429-0.56-2.934-0.839-4.514-0.839h-6.254v37.056h6.254c1.621,0,3.145-0.271,4.574-0.811
			c1.426-0.54,2.683-1.477,3.763-2.809c1.081-1.332,1.938-3.127,2.576-5.385c0.635-2.257,0.955-5.105,0.955-8.54v-2.895
			c0-3.127-0.32-5.752-0.955-7.875C206.876,183.445,206.006,181.736,204.906,180.444z M226.078,368.529h11.001l-5.557-16.561
			L226.078,368.529z M206.106,353.244v-2.086c0-5.055-2.202-7.583-6.604-7.583h-5.729v17.195h5.729
			C203.904,360.771,206.106,358.264,206.106,353.244z M164.476,381.616c3.512,0,6.197-1.341,8.048-4.024
			c1.853-2.683,2.779-6.823,2.779-12.421v-5.789c0-3.088-0.241-5.673-0.722-7.759c-0.484-2.086-1.182-3.763-2.086-5.039
			c-0.908-1.272-2.036-2.18-3.387-2.72c-1.351-0.541-2.896-0.811-4.633-0.811c-1.737,0-3.283,0.289-4.634,0.867
			c-1.351,0.581-2.479,1.517-3.386,2.808c-0.905,1.294-1.603,2.975-2.086,5.039c-0.48,2.067-0.723,4.605-0.723,7.614v5.789
			c0,5.598,0.927,9.738,2.78,12.421C158.28,380.274,160.96,381.616,164.476,381.616z M166.74,106.067
			c-1.376-1.937-3.095-3.314-5.146-4.137c-2.055-0.82-4.404-1.231-7.043-1.231s-4.988,0.44-7.039,1.319
			c-2.055,0.881-3.772,2.304-5.148,4.269c-1.379,1.966-2.438,4.519-3.17,7.657c-0.731,3.14-1.1,6.997-1.1,11.572v8.802
			c0,8.507,1.41,14.8,4.226,18.878c2.814,4.079,6.892,6.116,12.231,6.116s9.418-2.037,12.232-6.116
			c2.817-4.078,4.229-10.371,4.229-18.878v-8.802c0-4.693-0.371-8.624-1.104-11.792C169.178,110.556,168.119,108.003,166.74,106.067
			z M282.386,297.663v-2.085c0-5.058-2.199-7.583-6.601-7.583h-5.732v17.195h5.732C280.187,305.189,282.386,302.679,282.386,297.663
			z M168.951,179.836c-0.904-1.274-2.035-2.182-3.386-2.722c-1.351-0.541-2.896-0.811-4.631-0.811c-1.74,0-3.282,0.289-4.633,0.868
			c-1.354,0.58-2.481,1.516-3.39,2.809c-0.904,1.292-1.602,2.972-2.083,5.037c-0.483,2.065-0.725,4.604-0.725,7.614v5.789
			c0,5.598,0.93,9.736,2.783,12.419c1.85,2.685,4.532,4.024,8.047,4.024c3.513,0,6.195-1.34,8.049-4.024
			c1.853-2.683,2.776-6.821,2.776-12.419v-5.789c0-3.088-0.239-5.675-0.723-7.759C170.554,182.789,169.859,181.109,168.951,179.836z
			 M152.894,416.267c1.196-1.369,1.797-3.54,1.797-6.512v-2.086c0-3.088-0.609-5.277-1.825-6.571
			c-1.216-1.291-2.905-1.938-5.067-1.938h-5.44v19.165h6.019C150.192,418.324,151.7,417.64,152.894,416.267z M285.103,232.408
			h-5.732v17.196h5.732c4.4,0,6.6-2.51,6.6-7.528v-2.084C291.702,234.937,289.503,232.408,285.103,232.408z M99.944,270.447
			c3.512,0,6.194-1.338,8.048-4.021c1.851-2.683,2.777-6.822,2.777-12.42v-5.793c0-3.084-0.242-5.673-0.723-7.757
			c-0.483-2.084-1.181-3.764-2.086-5.037c-0.907-1.274-2.035-2.18-3.386-2.722c-1.352-0.539-2.896-0.81-4.631-0.81
			c-1.74,0-3.285,0.29-4.637,0.868c-1.351,0.58-2.479,1.516-3.386,2.809c-0.905,1.294-1.603,2.973-2.083,5.037
			c-0.483,2.065-0.726,4.604-0.726,7.612v5.793c0,5.598,0.93,9.737,2.78,12.42C93.747,269.108,96.43,270.447,99.944,270.447z
			 M196.692,257.363h11l-5.557-16.561L196.692,257.363z M312.02,464.413v-2.086c0-5.058-2.198-7.586-6.6-7.586h-5.732v17.198h5.732
			C309.821,471.939,312.02,469.43,312.02,464.413z M303.78,433.176c1.851-2.682,2.777-6.822,2.777-12.42v-5.79
			c0-3.088-0.242-5.676-0.723-7.759c-0.484-2.086-1.179-3.763-2.086-5.039c-0.905-1.272-2.035-2.18-3.387-2.721
			c-1.351-0.54-2.893-0.81-4.63-0.81s-3.282,0.289-4.634,0.867c-1.351,0.581-2.481,1.518-3.386,2.809
			c-0.908,1.294-1.603,2.975-2.086,5.039s-0.723,4.602-0.723,7.614v5.79c0,5.598,0.927,9.738,2.78,12.42
			c1.85,2.684,4.533,4.024,8.048,4.024C299.244,437.2,301.927,435.859,303.78,433.176z M314.926,80.538
			c3.512,0,6.194-1.342,8.048-4.024c1.85-2.683,2.776-6.822,2.776-12.419v-5.791c0-3.087-0.241-5.674-0.723-7.759
			c-0.483-2.084-1.178-3.763-2.085-5.037c-0.905-1.273-2.036-2.18-3.387-2.72c-1.351-0.541-2.894-0.812-4.63-0.812
			c-1.737,0-3.283,0.291-4.634,0.869c-1.351,0.579-2.481,1.516-3.387,2.808c-0.907,1.294-1.602,2.974-2.085,5.037
			c-0.484,2.065-0.723,4.604-0.723,7.614v5.791c0,5.597,0.927,9.736,2.78,12.419C308.728,79.196,311.41,80.538,314.926,80.538z"/>
	</g>
</g>
<path fill="#FFFFFF" d="M237.028,745.315c25.012,0,47.189-12.178,60.969-30.919H176.036
	C189.834,733.139,211.983,745.315,237.028,745.315z M332.606,612.162c0-10.46-8.727-18.936-19.442-18.936H160.861
	c-10.729,0-19.444,8.476-19.444,18.936c0,10.497,8.715,18.994,19.444,18.994c-10.729,0-19.444,8.508-19.444,18.973
	c0,10.47,8.715,18.967,19.444,18.967c-10.729,0-19.444,8.508-19.444,18.964c0,10.499,8.715,18.994,19.444,18.994h152.303
	c10.717,0,19.442-8.495,19.442-18.994c0-10.456-8.727-18.964-19.442-18.964c10.717,0,19.442-8.497,19.442-18.967
	c0-10.465-8.727-18.973-19.442-18.973C323.881,631.156,332.606,622.659,332.606,612.162z M262.324,623.417
	c0.022-0.385,0.252-0.578,0.683-0.578h16.846c0.431,0,0.658,0.193,0.682,0.578l0.514,5.945h-0.716
	c-0.252-1.846-0.769-3.302-1.558-4.372c-0.784-1.07-1.7-1.605-2.75-1.605h-2.938v21.865h2.938v0.547h-9.19v-0.547h2.938v-21.865
	h-2.938c-1.048,0-1.963,0.535-2.751,1.605c-0.783,1.07-1.303,2.526-1.553,4.372h-0.719L262.324,623.417z M245.222,645.25h2.938
	v-21.865h-2.938v-0.546h9.496v0.546h-3.244v21.865h7.004c0.797,0,1.457-0.137,1.983-0.408c0.522-0.272,0.955-0.668,1.295-1.18
	c0.343-0.514,0.617-1.121,0.821-1.826c0.203-0.708,0.396-1.493,0.58-2.357c0.091-0.479,0.218-0.718,0.378-0.718
	c0.18,0,0.271,0.271,0.271,0.818v5.125c0,0.728-0.328,1.093-0.988,1.093h-17.596V645.25z M234.134,622.529l7.482,22.721h2.974v0.547
	h-10.012v-0.547h3.519l-2.22-6.595h-6.868l-2.152,6.595h4.033v0.547h-7.586v-0.547h2.938l7.481-22.721H234.134z M206.556,667.836
	c-0.513,1.447-1.236,2.683-2.17,3.707c-0.933,1.025-2.061,1.816-3.382,2.375c-1.322,0.558-2.779,0.838-4.374,0.838h-10.078v-0.549
	h3.007v-21.865h-3.007v-0.549h10.078c1.573,0,3.013,0.269,4.323,0.805c1.31,0.535,2.437,1.299,3.382,2.288
	c0.946,0.992,1.68,2.175,2.204,3.552c0.524,1.383,0.785,2.9,0.785,4.562C207.325,664.779,207.068,666.39,206.556,667.836z
	 M216.607,652.342h-2.938v21.865h2.938v0.549h-9.19v-0.549h2.939v-21.865h-2.939v-0.549h9.19V652.342z M217.308,646.139
	l-3.827-10.626l-3.723,10.626h-0.444l-7.962-22.754h-2.528v-0.546h21.491v0.546h-2.084l-2.836,8.062l3.417,9.875l6.32-17.938h-2.938
	v-0.546h5.91v0.546h-2.357l-7.995,22.754L217.308,646.139L217.308,646.139z M232.743,670.637c-0.398,0.971-0.938,1.808-1.622,2.514
	c-0.685,0.705-1.492,1.259-2.427,1.656s-1.946,0.597-3.041,0.597c-0.592,0-1.166-0.074-1.725-0.223s-1.082-0.336-1.572-0.562
	c-0.489-0.229-0.934-0.479-1.332-0.753c-0.399-0.271-0.734-0.534-1.008-0.784l-1.229,1.775c-0.16,0.229-0.308,0.343-0.446,0.343
	c-0.203,0-0.307-0.15-0.307-0.443v-6.118c0-0.316,0.08-0.478,0.24-0.478c0.182,0,0.307,0.146,0.375,0.444
	c0.25,0.957,0.608,1.821,1.076,2.596c0.467,0.773,1.02,1.424,1.656,1.949c0.639,0.521,1.333,0.928,2.083,1.212
	c0.752,0.284,1.538,0.428,2.359,0.428c0.704,0,1.399-0.125,2.083-0.377c0.684-0.251,1.287-0.604,1.812-1.061
	c0.523-0.454,0.945-1.019,1.265-1.689c0.319-0.673,0.479-1.419,0.479-2.238c0-0.659-0.136-1.315-0.41-1.964
	c-0.273-0.648-0.797-1.156-1.57-1.521c-0.614-0.294-1.156-0.528-1.623-0.7c-0.467-0.17-0.93-0.331-1.385-0.479
	c-0.455-0.146-0.945-0.302-1.469-0.461c-0.523-0.16-1.162-0.366-1.913-0.614c-1.571-0.524-2.728-1.288-3.468-2.291
	c-0.739-1.003-1.109-2.105-1.109-3.313c0-0.888,0.16-1.729,0.479-2.526c0.318-0.796,0.785-1.505,1.4-2.118
	c0.614-0.616,1.361-1.105,2.237-1.47c0.876-0.365,1.874-0.548,2.99-0.548c0.547,0,1.03,0.031,1.453,0.085
	c0.42,0.058,0.817,0.144,1.194,0.257c0.377,0.115,0.746,0.263,1.11,0.445c0.363,0.182,0.751,0.388,1.161,0.613l0.99-1.265
	c0.138-0.184,0.262-0.273,0.375-0.273c0.138,0,0.207,0.114,0.207,0.343v6.082c0,0.229-0.08,0.342-0.239,0.342
	c-0.183,0-0.286-0.113-0.308-0.342c-0.092-0.729-0.279-1.436-0.563-2.119c-0.286-0.682-0.667-1.285-1.146-1.811
	c-0.478-0.522-1.071-0.944-1.776-1.266c-0.707-0.315-1.526-0.477-2.46-0.477c-0.615,0-1.225,0.083-1.828,0.257
	c-0.604,0.17-1.139,0.426-1.605,0.769c-0.468,0.342-0.85,0.778-1.145,1.314c-0.296,0.534-0.443,1.157-0.443,1.862
	c0,0.751,0.18,1.413,0.545,1.98c0.364,0.568,0.899,0.99,1.606,1.265c0.636,0.251,1.218,0.461,1.742,0.632
	c0.524,0.173,1.024,0.325,1.503,0.462c0.479,0.138,0.945,0.261,1.4,0.375s0.944,0.251,1.471,0.411
	c1.547,0.456,2.682,1.212,3.398,2.27c0.717,1.062,1.077,2.354,1.077,3.881C233.342,668.627,233.142,669.668,232.743,670.637z
	 M254.479,652.342h-2.938v22.685h-1.162l-13.221-21.694v20.876h2.938v0.549h-6.424v-0.549h2.938v-21.865h-2.938v-0.549h6.73
	l10.593,17.324v-16.775h-2.938v-0.549h6.422V652.342L254.479,652.342z M272.319,673.661c0,0.729-0.332,1.095-0.993,1.095h-16.058
	v-0.549h2.904v-21.865h-2.938v-0.549h15.271c0.568,0,0.854,0.274,0.854,0.822v5.19c0,0.298-0.08,0.444-0.24,0.444
	c-0.182,0-0.271-0.158-0.271-0.479c-0.022-0.499-0.108-1.064-0.257-1.691c-0.149-0.624-0.383-1.218-0.7-1.775
	c-0.32-0.56-0.74-1.024-1.266-1.399c-0.521-0.378-1.173-0.563-1.945-0.563h-5.195v10.044h2.701c0.5,0,0.897-0.073,1.194-0.223
	c0.296-0.147,0.53-0.358,0.701-0.632c0.172-0.271,0.301-0.604,0.392-0.989c0.092-0.388,0.184-0.819,0.274-1.3
	c0.067-0.319,0.16-0.479,0.272-0.479c0.136,0,0.205,0.138,0.205,0.411v6.938c0,0.295-0.069,0.443-0.205,0.443
	c-0.112,0-0.205-0.16-0.272-0.479c-0.092-0.479-0.183-0.911-0.274-1.297c-0.091-0.389-0.22-0.72-0.392-0.991
	c-0.171-0.274-0.405-0.484-0.701-0.634c-0.297-0.146-0.694-0.224-1.194-0.224h-2.701v11.276h5.502c0.797,0,1.455-0.139,1.981-0.409
	c0.524-0.273,0.956-0.667,1.3-1.18c0.34-0.514,0.613-1.121,0.818-1.83c0.206-0.704,0.396-1.488,0.581-2.355
	c0.092-0.477,0.216-0.716,0.376-0.716c0.184,0,0.273,0.271,0.273,0.819v5.125H272.319z M293.899,652.342h-2.77l-5.637,10.25v11.615
	h3.279v0.549h-9.871v-0.549h3.277v-10.729l-6.628-11.138h-2.731v-0.549h9.531v0.549h-3.143l5.738,9.633l5.295-9.633h-3.312v-0.549
	h6.971V652.342L293.899,652.342z M201.465,654.476c-0.648-0.763-1.395-1.31-2.237-1.64c-0.843-0.328-1.731-0.494-2.665-0.494h-3.69
	v21.865h3.69c0.957,0,1.856-0.16,2.698-0.479c0.843-0.318,1.583-0.871,2.221-1.655c0.637-0.787,1.145-1.848,1.52-3.182
	c0.377-1.33,0.565-3.01,0.565-5.038v-1.706c0-1.848-0.188-3.396-0.565-4.647C202.627,656.249,202.114,655.24,201.465,654.476z
	 M204.598,623.385l6.251,17.869l2.325-6.662l-3.86-11.207H204.598L204.598,623.385z M212.559,623.385l2.528,7.175l2.528-7.175
	H212.559z M232.426,628.34l-3.212,9.771h6.491L232.426,628.34z"/>
<path fill="none" stroke="#FF0000" stroke-width="21" stroke-miterlimit="10" d="M236.295,803"/>
<path fill="#FFFFFF" d="M247.795,788c0,0,0.5,15-11.375,15s-11.625-15-11.625-15l-2-69h28L247.795,788z"/>
</svg>
