<?xml version="1.0" encoding="utf-8"?>
<!-- Generator: Adobe Illustrator 15.0.2, SVG Export Plug-In . SVG Version: 6.00 Build 0)  -->
<!DOCTYPE svg PUBLIC "-//W3C//DTD SVG 1.1//EN" "http://www.w3.org/Graphics/SVG/1.1/DTD/svg11.dtd">
<svg version="1.1" xmlns="http://www.w3.org/2000/svg" xmlns:xlink="http://www.w3.org/1999/xlink" x="0px" y="0px"
	 width="469.897px" height="878.52px" viewBox="0 -40.52 469.897 878.52" enable-background="new 0 -40.52 469.897 878.52"
	 xml:space="preserve">
<filter  id="f1">
	<feGaussianBlur  stdDeviation="15"></feGaussianBlur>
</filter>
<g id="Layer_2">
</g>
<g id="Layer_1">
	<circle cx="236.129" cy="792.5" r="16.335"/>
	<path fill="#FFFFFF" filter="url(#f1)" d="M237.028,744.997 M385.661,47.911C360.78,23.043,329.923,4.677,296.348-5.204
		c-19.189-5.628-39.116-8.49-59.319-8.49c-56.163,0-108.934,21.883-148.643,61.605C48.685,87.6,26.853,140.37,26.853,196.49
		l0.891,19.331c2.634,28.901,11.082,56.432,25.045,81.836c0.153,1.42,79.151,143.066,79.151,231.579l2.686,26.194
		c4.281,17.476,13.206,26.349,26.504,26.349h151.745c13.351,0,22.252-8.873,26.524-26.349l2.686-26.194
		c0-88.513,78.992-230.158,79.801-231.579c13.322-25.405,21.759-52.935,24.395-81.836l0.897-19.332
		C447.178,140.351,425.328,87.6,385.661,47.911z"/>
	<path fill="#333333" d="M237.028,734.485 M381.542,56.716c-24.191-24.179-54.193-42.037-86.839-51.644
		c-18.657-5.472-38.032-8.255-57.675-8.255c-54.606,0-105.915,21.277-144.524,59.898c-38.601,38.589-59.828,89.896-59.828,144.461
		l0.867,18.795c2.561,28.101,10.775,54.868,24.351,79.569c0.149,1.381,76.958,139.102,76.958,225.161l2.611,25.469
		c4.163,16.991,12.839,25.618,25.77,25.618h147.539c12.98,0,21.636-8.627,25.79-25.618l2.61-25.469
		c0-86.06,76.804-223.78,77.59-225.161c12.953-24.701,21.156-51.468,23.719-79.568l0.872-18.796
		C441.354,146.594,420.109,95.305,381.542,56.716z"/>
	<path fill="#FFFFFF" d="M237.028,745.315c25.012,0,47.189-12.178,60.969-30.919H176.036
		C189.834,733.139,211.983,745.315,237.028,745.315z M332.606,612.162c0-10.46-8.727-18.936-19.442-18.936H160.861
		c-10.729,0-19.444,8.476-19.444,18.936c0,10.497,8.715,18.994,19.444,18.994c-10.729,0-19.444,8.508-19.444,18.973
		c0,10.47,8.715,18.967,19.444,18.967c-10.729,0-19.444,8.508-19.444,18.964c0,10.499,8.715,18.994,19.444,18.994h152.303
		c10.717,0,19.442-8.495,19.442-18.994c0-10.456-8.727-18.964-19.442-18.964c10.717,0,19.442-8.497,19.442-18.967
		c0-10.465-8.727-18.973-19.442-18.973C323.881,631.156,332.606,622.659,332.606,612.162z M262.324,623.417
		c0.022-0.385,0.252-0.578,0.683-0.578h16.846c0.431,0,0.658,0.193,0.682,0.578l0.514,5.945h-0.716
		c-0.252-1.846-0.769-3.302-1.558-4.372c-0.784-1.07-1.7-1.605-2.75-1.605h-2.938v21.865h2.938v0.547h-9.19v-0.547h2.938v-21.865
		h-2.938c-1.048,0-1.963,0.535-2.751,1.605c-0.783,1.07-1.303,2.526-1.553,4.372h-0.719L262.324,623.417z M245.222,645.25h2.938
		v-21.865h-2.938v-0.546h9.496v0.546h-3.244v21.865h7.004c0.797,0,1.457-0.137,1.983-0.408c0.522-0.272,0.955-0.668,1.295-1.18
		c0.343-0.514,0.617-1.121,0.821-1.826c0.203-0.708,0.396-1.493,0.58-2.357c0.091-0.479,0.218-0.718,0.378-0.718
		c0.18,0,0.271,0.271,0.271,0.818v5.125c0,0.728-0.328,1.093-0.988,1.093h-17.596V645.25z M234.134,622.529l7.482,22.721h2.974
		v0.547h-10.012v-0.547h3.519l-2.22-6.595h-6.868l-2.152,6.595h4.033v0.547h-7.586v-0.547h2.938l7.481-22.721H234.134z
		 M206.556,667.836c-0.513,1.447-1.236,2.683-2.17,3.707c-0.933,1.025-2.061,1.816-3.382,2.375
		c-1.322,0.558-2.779,0.838-4.374,0.838h-10.078v-0.549h3.007v-21.865h-3.007v-0.549h10.078c1.573,0,3.013,0.269,4.323,0.805
		c1.31,0.535,2.437,1.299,3.382,2.288c0.946,0.992,1.68,2.175,2.204,3.552c0.524,1.383,0.785,2.9,0.785,4.562
		C207.325,664.779,207.068,666.39,206.556,667.836z M216.607,652.342h-2.938v21.865h2.938v0.549h-9.19v-0.549h2.939v-21.865h-2.939
		v-0.549h9.19V652.342z M217.308,646.139l-3.827-10.626l-3.723,10.626h-0.444l-7.962-22.754h-2.528v-0.546h21.491v0.546h-2.084
		l-2.836,8.062l3.417,9.875l6.32-17.938h-2.938v-0.546h5.91v0.546h-2.357l-7.995,22.754L217.308,646.139L217.308,646.139z
		 M232.743,670.637c-0.398,0.971-0.938,1.808-1.622,2.514c-0.685,0.705-1.492,1.259-2.427,1.656s-1.946,0.597-3.041,0.597
		c-0.592,0-1.166-0.074-1.725-0.223s-1.082-0.336-1.572-0.562c-0.489-0.229-0.934-0.479-1.332-0.753
		c-0.399-0.271-0.734-0.534-1.008-0.784l-1.229,1.775c-0.16,0.229-0.308,0.343-0.446,0.343c-0.203,0-0.307-0.15-0.307-0.443v-6.118
		c0-0.316,0.08-0.478,0.24-0.478c0.182,0,0.307,0.146,0.375,0.444c0.25,0.957,0.608,1.821,1.076,2.596
		c0.467,0.773,1.02,1.424,1.656,1.949c0.639,0.521,1.333,0.928,2.083,1.212c0.752,0.284,1.538,0.428,2.359,0.428
		c0.704,0,1.399-0.125,2.083-0.377c0.684-0.251,1.287-0.604,1.812-1.061c0.523-0.454,0.945-1.019,1.265-1.689
		c0.319-0.673,0.479-1.419,0.479-2.238c0-0.659-0.136-1.315-0.41-1.964c-0.273-0.648-0.797-1.156-1.57-1.521
		c-0.614-0.294-1.156-0.528-1.623-0.7c-0.467-0.17-0.93-0.331-1.385-0.479c-0.455-0.146-0.945-0.302-1.469-0.461
		c-0.523-0.16-1.162-0.366-1.913-0.614c-1.571-0.524-2.728-1.288-3.468-2.291c-0.739-1.003-1.109-2.105-1.109-3.313
		c0-0.888,0.16-1.729,0.479-2.526c0.318-0.796,0.785-1.505,1.4-2.118c0.614-0.616,1.361-1.105,2.237-1.47
		c0.876-0.365,1.874-0.548,2.99-0.548c0.547,0,1.03,0.031,1.453,0.085c0.42,0.058,0.817,0.144,1.194,0.257
		c0.377,0.115,0.746,0.263,1.11,0.445c0.363,0.182,0.751,0.388,1.161,0.613l0.99-1.265c0.138-0.184,0.262-0.273,0.375-0.273
		c0.138,0,0.207,0.114,0.207,0.343v6.082c0,0.229-0.08,0.342-0.239,0.342c-0.183,0-0.286-0.113-0.308-0.342
		c-0.092-0.729-0.279-1.436-0.563-2.119c-0.286-0.682-0.667-1.285-1.146-1.811c-0.478-0.522-1.071-0.944-1.776-1.266
		c-0.707-0.315-1.526-0.477-2.46-0.477c-0.615,0-1.225,0.083-1.828,0.257c-0.604,0.17-1.139,0.426-1.605,0.769
		c-0.468,0.342-0.85,0.778-1.145,1.314c-0.296,0.534-0.443,1.157-0.443,1.862c0,0.751,0.18,1.413,0.545,1.98
		c0.364,0.568,0.899,0.99,1.606,1.265c0.636,0.251,1.218,0.461,1.742,0.632c0.524,0.173,1.024,0.325,1.503,0.462
		c0.479,0.138,0.945,0.261,1.4,0.375s0.944,0.251,1.471,0.411c1.547,0.456,2.682,1.212,3.398,2.27
		c0.717,1.062,1.077,2.354,1.077,3.881C233.342,668.627,233.142,669.668,232.743,670.637z M254.479,652.342h-2.938v22.685h-1.162
		l-13.221-21.694v20.876h2.938v0.549h-6.424v-0.549h2.938v-21.865h-2.938v-0.549h6.73l10.593,17.324v-16.775h-2.938v-0.549h6.422
		V652.342L254.479,652.342z M272.319,673.661c0,0.729-0.332,1.095-0.993,1.095h-16.058v-0.549h2.904v-21.865h-2.938v-0.549h15.271
		c0.568,0,0.854,0.274,0.854,0.822v5.19c0,0.298-0.08,0.444-0.24,0.444c-0.182,0-0.271-0.158-0.271-0.479
		c-0.022-0.499-0.108-1.064-0.257-1.691c-0.149-0.624-0.383-1.218-0.7-1.775c-0.32-0.56-0.74-1.024-1.266-1.399
		c-0.521-0.378-1.173-0.563-1.945-0.563h-5.195v10.044h2.701c0.5,0,0.897-0.073,1.194-0.223c0.296-0.147,0.53-0.358,0.701-0.632
		c0.172-0.271,0.301-0.604,0.392-0.989c0.092-0.388,0.184-0.819,0.274-1.3c0.067-0.319,0.16-0.479,0.272-0.479
		c0.136,0,0.205,0.138,0.205,0.411v6.938c0,0.295-0.069,0.443-0.205,0.443c-0.112,0-0.205-0.16-0.272-0.479
		c-0.092-0.479-0.183-0.911-0.274-1.297c-0.091-0.389-0.22-0.72-0.392-0.991c-0.171-0.274-0.405-0.484-0.701-0.634
		c-0.297-0.146-0.694-0.224-1.194-0.224h-2.701v11.276h5.502c0.797,0,1.455-0.139,1.981-0.409c0.524-0.273,0.956-0.667,1.3-1.18
		c0.34-0.514,0.613-1.121,0.818-1.83c0.206-0.704,0.396-1.488,0.581-2.355c0.092-0.477,0.216-0.716,0.376-0.716
		c0.184,0,0.273,0.271,0.273,0.819v5.125H272.319z M293.899,652.342h-2.77l-5.637,10.25v11.615h3.279v0.549h-9.871v-0.549h3.277
		v-10.729l-6.628-11.138h-2.731v-0.549h9.531v0.549h-3.143l5.738,9.633l5.295-9.633h-3.312v-0.549h6.971V652.342L293.899,652.342z
		 M201.465,654.476c-0.648-0.763-1.395-1.31-2.237-1.64c-0.843-0.328-1.731-0.494-2.665-0.494h-3.69v21.865h3.69
		c0.957,0,1.856-0.16,2.698-0.479c0.843-0.318,1.583-0.871,2.221-1.655c0.637-0.787,1.145-1.848,1.52-3.182
		c0.377-1.33,0.565-3.01,0.565-5.038v-1.706c0-1.848-0.188-3.396-0.565-4.647C202.627,656.249,202.114,655.24,201.465,654.476z
		 M204.598,623.385l6.251,17.869l2.325-6.662l-3.86-11.207H204.598L204.598,623.385z M212.559,623.385l2.528,7.175l2.528-7.175
		H212.559z M232.426,628.34l-3.212,9.771h6.491L232.426,628.34z M130.193,220.37v-2.361c0-5.729-2.492-8.593-7.477-8.593h-6.496
		v19.481h6.496C127.701,228.896,130.193,226.055,130.193,220.37z M138.104,98.225h-7.084v41.982h7.084
		c1.837,0,3.564-0.305,5.183-0.918c1.617-0.61,3.038-1.672,4.262-3.181c1.225-1.508,2.198-3.542,2.92-6.099
		c0.721-2.559,1.082-5.783,1.082-9.676v-3.28c0-3.542-0.36-6.516-1.082-8.921c-0.722-2.403-1.706-4.34-2.952-5.804
		c-1.247-1.465-2.68-2.516-4.297-3.15C141.603,98.544,139.897,98.225,138.104,98.225z M177.12,98.225h-6.494v19.483h6.494
		c4.985,0,7.478-2.842,7.478-8.527v-2.361C184.598,101.091,182.105,98.225,177.12,98.225z M250.245,107.738l-6.166,18.759h12.462
		L250.245,107.738z M265.062,85.728c3.979,0,7.019-1.518,9.119-4.558c2.098-3.04,3.147-7.729,3.147-14.071v-6.56
		c0-3.499-0.274-6.428-0.822-8.79c-0.546-2.361-1.334-4.264-2.36-5.707c-1.027-1.443-2.306-2.47-3.838-3.084
		c-1.529-0.611-3.277-0.918-5.246-0.918c-1.967,0-3.719,0.328-5.248,0.984c-1.531,0.656-2.811,1.718-3.838,3.181
		c-1.024,1.466-1.813,3.37-2.36,5.707c-0.546,2.341-0.818,5.215-0.818,8.626v6.56c0,6.342,1.05,11.031,3.147,14.071
		S261.082,85.728,265.062,85.728z M351.159,53.585v-2.361c0-5.728-2.49-8.593-7.477-8.593h-6.494v19.483h6.494
		C348.669,62.114,351.159,59.272,351.159,53.585z M128.721,52.143l-6.166,18.761h12.463L128.721,52.143z M226.421,442.747v-2.361
		c0-5.729-2.494-8.592-7.479-8.592h-6.493v19.48h6.493C223.928,451.274,226.421,448.433,226.421,442.747z M385.786,47.645
		c-24.902-24.889-55.785-43.271-89.389-53.16c-19.205-5.633-39.149-8.497-59.369-8.497c-56.209,0-109.024,21.901-148.767,61.657
		c-39.734,39.722-61.584,92.536-61.584,148.703l0.892,19.348c2.636,28.925,11.091,56.479,25.066,81.905
		c0.154,1.422,79.217,143.187,79.217,231.772l2.688,26.217c4.285,17.49,13.217,26.37,26.527,26.37h151.872
		c13.361,0,22.271-8.88,26.547-26.37l2.688-26.217c0-88.586,79.059-230.351,79.868-231.772
		c13.333-25.426,21.777-52.979,24.415-81.904l0.897-19.348C447.354,140.162,425.485,87.367,385.786,47.645z M383.897,154.345v9.97
		c0,0.57-0.152,0.854-0.461,0.854c-0.35,0-0.524-0.306-0.524-0.918c-0.044-0.962-0.207-2.044-0.49-3.247
		c-0.284-1.203-0.733-2.34-1.347-3.412c-0.612-1.071-1.419-1.967-2.428-2.689c-1.004-0.721-2.252-1.083-3.736-1.083h-9.973v19.286
		h5.185c0.96,0,1.728-0.142,2.296-0.427c0.566-0.285,1.018-0.688,1.344-1.214c0.329-0.524,0.58-1.157,0.752-1.901
		c0.178-0.744,0.354-1.575,0.528-2.493c0.129-0.612,0.306-0.918,0.524-0.918c0.261,0,0.393,0.262,0.393,0.788v13.316
		c0,0.568-0.132,0.852-0.393,0.852c-0.221,0-0.396-0.306-0.524-0.918c-0.176-0.918-0.353-1.749-0.528-2.493
		c-0.172-0.743-0.423-1.377-0.752-1.901c-0.326-0.524-0.775-0.93-1.344-1.213c-0.568-0.285-1.336-0.427-2.296-0.427h-5.185v21.646
		h10.562c1.528,0,2.797-0.262,3.803-0.787c1.008-0.524,1.836-1.279,2.493-2.262c0.656-0.984,1.181-2.154,1.573-3.511
		c0.396-1.355,0.766-2.862,1.117-4.525c0.173-0.918,0.414-1.378,0.719-1.378c0.354,0,0.527,0.526,0.527,1.575v9.839
		c0,1.4-0.637,2.099-1.902,2.099h-30.829v-1.05h5.573v-41.98h-5.639v-1.05h29.317C383.349,152.771,383.897,153.296,383.897,154.345z
		 M342.856,306.992v1.048h-17.646v-1.048h5.642v-21.845h-17.385v21.845h5.643v1.048h-17.644v-1.048h5.64V265.01h-5.64v-1.051h17.644
		v1.051h-5.643v19.022h17.385V265.01h-5.642v-1.051h17.646v1.051h-5.644v41.982H342.856z M309.306,359.174
		c2.101,3.019,5.053,4.526,8.857,4.526c1.79,0,3.247-0.273,4.361-0.819c1.113-0.546,1.979-1.247,2.591-2.1s1.026-1.805,1.247-2.854
		c0.216-1.049,0.326-2.099,0.326-3.147v-6.166h-7.02v-1.05h19.48v1.05h-5.705v2.229c0,2.449-0.404,4.56-1.215,6.33
		c-0.808,1.771-1.926,3.226-3.345,4.362c-1.423,1.138-3.062,1.979-4.92,2.525c-1.86,0.547-3.838,0.819-5.937,0.819
		c-2.625,0-5.139-0.614-7.545-1.837c-2.405-1.223-4.524-2.886-6.362-4.985c-1.837-2.099-3.3-4.549-4.394-7.346
		c-1.096-2.798-1.643-5.751-1.643-8.856c0-3.104,0.538-6.057,1.607-8.855c1.07-2.798,2.517-5.247,4.33-7.346
		c1.815-2.1,3.943-3.761,6.396-4.985c2.447-1.224,5.05-1.836,7.805-1.836c2.057,0,3.991,0.328,5.807,0.984
		c1.813,0.653,3.355,1.553,4.625,2.688l2.818-2.822c0.176-0.174,0.317-0.305,0.428-0.394c0.109-0.086,0.273-0.13,0.494-0.13
		c0.348,0,0.522,0.24,0.522,0.721v12.398c0,0.393-0.131,0.59-0.396,0.59c-0.261,0-0.459-0.197-0.59-0.59
		c-1.397-4.46-3.234-7.619-5.509-9.479c-2.276-1.858-5.009-2.788-8.2-2.788c-1.793,0-3.421,0.339-4.888,1.018
		s-2.731,1.728-3.803,3.147c-1.074,1.421-1.903,3.247-2.493,5.479c-0.591,2.229-0.885,4.896-0.885,8.002v8.066
		C306.159,351.676,307.208,356.156,309.306,359.174z M270.546,431.794v-1.052h17.645v1.052h-5.64v32.075
		c0,3.543,0.886,6.263,2.656,8.166c1.771,1.902,4.187,2.854,7.248,2.854c1.483,0,2.876-0.237,4.167-0.723
		c1.287-0.479,2.415-1.19,3.375-2.131c0.961-0.939,1.719-2.098,2.266-3.478c0.545-1.378,0.819-2.938,0.819-4.688v-32.075h-5.642
		v-1.052h12.332v1.052h-5.645v32.075c0,4.066-1.156,7.117-3.475,9.151c-2.317,2.03-5.553,3.049-9.707,3.049
		c-1.709,0-3.437-0.197-5.184-0.59c-1.75-0.395-3.336-1.07-4.755-2.032c-1.423-0.964-2.581-2.221-3.478-3.774
		c-0.896-1.552-1.348-3.483-1.348-5.804v-32.075H270.546L270.546,431.794z M265.823,460.818c-0.524-1.247-1.532-2.219-3.018-2.918
		c-1.181-0.568-2.221-1.018-3.115-1.348c-0.897-0.326-1.783-0.632-2.656-0.917c-0.876-0.282-1.814-0.581-2.819-0.886
		c-1.008-0.304-2.231-0.7-3.675-1.181c-3.018-1.005-5.237-2.473-6.659-4.396c-1.42-1.922-2.13-4.045-2.13-6.362
		c0-1.705,0.305-3.321,0.918-4.854c0.611-1.529,1.507-2.886,2.688-4.066c1.182-1.18,2.612-2.119,4.299-2.819
		c1.684-0.699,3.597-1.049,5.74-1.049c1.049,0,1.979,0.054,2.785,0.162c0.812,0.11,1.576,0.273,2.299,0.491
		c0.72,0.221,1.43,0.505,2.129,0.854c0.701,0.352,1.445,0.744,2.231,1.181l1.9-2.428c0.265-0.35,0.502-0.524,0.723-0.524
		c0.265,0,0.396,0.22,0.396,0.656v11.675c0,0.439-0.153,0.657-0.461,0.657c-0.349,0-0.547-0.218-0.59-0.657
		c-0.174-1.396-0.535-2.753-1.082-4.065c-0.549-1.312-1.279-2.472-2.197-3.477c-0.92-1.005-2.057-1.814-3.409-2.428
		c-1.356-0.612-2.933-0.917-4.724-0.917c-1.181,0-2.352,0.163-3.511,0.49c-1.157,0.33-2.188,0.818-3.084,1.476
		c-0.895,0.657-1.63,1.498-2.198,2.525c-0.566,1.028-0.851,2.223-0.851,3.575c0,1.444,0.349,2.714,1.049,3.807
		c0.701,1.094,1.728,1.898,3.084,2.424c1.226,0.484,2.339,0.89,3.345,1.216c1.004,0.326,1.969,0.622,2.886,0.886
		c0.92,0.262,1.813,0.502,2.69,0.723c0.873,0.221,1.814,0.48,2.82,0.784c2.973,0.877,5.148,2.33,6.527,4.364
		c1.375,2.032,2.065,4.518,2.065,7.443c0,2.144-0.384,4.144-1.149,6.003c-0.767,1.859-1.801,3.467-3.113,4.82
		c-1.312,1.355-2.864,2.418-4.657,3.181c-1.796,0.767-3.739,1.149-5.841,1.149c-1.137,0-2.239-0.143-3.311-0.428
		c-1.073-0.286-2.078-0.644-3.018-1.081c-0.941-0.436-1.797-0.92-2.561-1.443c-0.767-0.524-1.409-1.025-1.935-1.507l-2.362,3.409
		c-0.307,0.438-0.592,0.657-0.853,0.657c-0.394,0-0.591-0.287-0.591-0.854v-11.741c0-0.612,0.154-0.921,0.462-0.921
		c0.345,0,0.591,0.287,0.719,0.854c0.481,1.837,1.171,3.499,2.067,4.987c0.895,1.484,1.956,2.731,3.18,3.736
		c1.225,1.008,2.561,1.783,4.004,2.33c1.441,0.546,2.952,0.818,4.525,0.818c1.354,0,2.688-0.238,4-0.723
		c1.312-0.479,2.472-1.158,3.477-2.031c1.008-0.876,1.814-1.956,2.428-3.246c0.611-1.292,0.92-2.724,0.92-4.3
		C266.61,463.323,266.349,462.064,265.823,460.818z M263.813,418.539c-2.472,1.291-5.105,1.938-7.903,1.938
		c-2.802,0-5.437-0.646-7.903-1.938c-2.472-1.287-4.626-3.005-6.463-5.149c-1.837-2.142-3.29-4.601-4.363-7.379
		c-1.07-2.775-1.605-5.648-1.605-8.626c0-2.971,0.535-5.847,1.605-8.626c1.073-2.775,2.526-5.226,4.363-7.345
		c1.837-2.123,3.991-3.815,6.463-5.084c2.469-1.27,5.104-1.903,7.903-1.903c2.798,0,5.433,0.635,7.903,1.903
		c2.472,1.269,4.625,2.961,6.463,5.084c1.834,2.119,3.287,4.568,4.361,7.345c1.07,2.779,1.604,5.655,1.604,8.626
		c0,2.978-0.533,5.851-1.604,8.626c-1.074,2.778-2.527,5.237-4.361,7.379C268.438,415.534,266.285,417.252,263.813,418.539z
		 M225.099,418.178v1.053h-17.645v-1.053h5.642v-41.979h-5.642c-2.013,0-3.772,1.025-5.281,3.083
		c-1.507,2.057-2.502,4.854-2.983,8.396h-1.378l0.984-11.414c0.042-0.744,0.48-1.113,1.311-1.113h32.339
		c0.83,0,1.268,0.369,1.312,1.113l0.984,11.414h-1.378c-0.48-3.542-1.477-6.34-2.982-8.396c-1.509-2.058-3.271-3.083-5.281-3.083
		h-5.642v41.979H225.099z M159.928,431.794v-1.052h17.645v1.052h-5.641v32.075c0,3.543,0.885,6.263,2.657,8.166
		c1.772,1.902,4.187,2.854,7.249,2.854c1.485,0,2.875-0.237,4.166-0.723c1.289-0.479,2.417-1.19,3.379-2.131
		c0.961-0.939,1.714-2.098,2.262-3.478c0.546-1.378,0.819-2.938,0.819-4.688v-32.075h-5.641v-1.052h12.333v1.052h-5.641v32.075
		c0,4.066-1.161,7.117-3.478,9.151c-2.317,2.03-5.553,3.049-9.707,3.049c-1.706,0-3.435-0.197-5.182-0.59
		c-1.75-0.395-3.336-1.07-4.755-2.032c-1.422-0.964-2.581-2.221-3.478-3.774c-0.896-1.552-1.344-3.483-1.344-5.804v-32.075H159.928
		L159.928,431.794z M121.862,251.397v1.049h-17.644v-1.049h5.641v-41.981h-5.641v-1.05h18.498c1.879,0,3.662,0.242,5.346,0.722
		c1.682,0.482,3.137,1.181,4.361,2.099c1.223,0.918,2.197,2.055,2.919,3.41c0.722,1.357,1.082,2.888,1.082,4.593
		c0,2.755-0.918,5.04-2.754,6.854c-1.836,1.815-4.46,3.029-7.872,3.641c1.313,0.35,2.536,0.731,3.674,1.148
		c1.137,0.416,2.142,0.982,3.018,1.705c0.873,0.723,1.617,1.652,2.229,2.789c0.613,1.136,1.05,2.58,1.312,4.329
		c0.13,0.875,0.208,1.793,0.229,2.755c0.022,0.963,0.042,1.901,0.066,2.82c0.021,0.918,0.064,1.771,0.13,2.559
		c0.065,0.787,0.165,1.399,0.295,1.835c0.394,1.095,1.269,1.641,2.624,1.641c1.093,0,2.077-0.306,2.953-0.918
		c0.174-0.087,0.305-0.13,0.392-0.13c0.132,0,0.198,0.064,0.198,0.196c0,0.13-0.066,0.262-0.198,0.395
		c-0.218,0.218-0.557,0.447-1.015,0.688c-0.46,0.242-1.007,0.471-1.641,0.689c-0.634,0.22-1.323,0.404-2.066,0.557
		c-0.744,0.152-1.487,0.229-2.23,0.229c-0.876,0-1.695-0.11-2.46-0.328c-0.766-0.219-1.433-0.633-2-1.246
		c-0.614-0.656-1.062-1.444-1.346-2.363c-0.284-0.917-0.482-1.923-0.591-3.016c-0.11-1.093-0.175-2.231-0.196-3.412
		c-0.024-1.181-0.099-2.339-0.229-3.476c-0.22-1.879-0.581-3.421-1.083-4.625c-0.502-1.201-1.092-2.141-1.771-2.82
		c-0.678-0.678-1.41-1.137-2.197-1.376c-0.788-0.24-1.532-0.361-2.231-0.361h-5.444v21.45h5.642V251.397z M166.015,209.416v-1.05
		h12.332v1.05h-5.641v32.076c0,4.066-1.159,7.117-3.476,9.15c-2.319,2.033-5.555,3.051-9.708,3.051
		c-1.707,0-3.434-0.198-5.183-0.591c-1.749-0.394-3.334-1.071-4.755-2.033c-1.421-0.963-2.582-2.22-3.477-3.773
		c-0.896-1.551-1.345-3.487-1.345-5.805v-32.076h-5.641v-1.05h17.646v1.05h-5.641v32.076c0,3.542,0.886,6.265,2.657,8.166
		c1.771,1.903,4.187,2.855,7.247,2.855c1.487,0,2.876-0.241,4.165-0.723c1.291-0.48,2.417-1.19,3.379-2.132
		c0.961-0.938,1.716-2.099,2.263-3.476c0.546-1.376,0.821-2.94,0.821-4.689v-32.076H166.015z M166.973,153.821v-1.05h12.923
		l20.333,33.257v-32.207h-5.641v-1.05h12.333v1.05h-5.641v43.555h-2.231l-25.384-41.653v40.079h5.641v1.05h-12.332v-1.05h5.641
		v-41.979h-5.642V153.821z M196.857,228.701c0.961,0,1.727-0.142,2.295-0.427c0.567-0.282,1.018-0.688,1.345-1.213
		c0.328-0.524,0.579-1.158,0.755-1.902c0.174-0.742,0.35-1.574,0.524-2.493c0.132-0.613,0.305-0.919,0.524-0.919
		c0.262,0,0.394,0.262,0.394,0.789v13.315c0,0.568-0.132,0.853-0.394,0.853c-0.22,0-0.393-0.306-0.524-0.918
		c-0.175-0.918-0.35-1.75-0.524-2.494c-0.176-0.742-0.427-1.376-0.755-1.901c-0.327-0.524-0.778-0.929-1.345-1.214
		c-0.568-0.284-1.334-0.427-2.295-0.427h-5.183v21.647h10.562c1.529,0,2.798-0.264,3.804-0.788c1.005-0.524,1.836-1.279,2.491-2.262
		c0.657-0.985,1.181-2.154,1.575-3.509c0.394-1.354,0.764-2.864,1.115-4.527c0.174-0.918,0.416-1.378,0.722-1.378
		c0.35,0,0.524,0.526,0.524,1.575v9.84c0,1.4-0.634,2.099-1.901,2.099h-30.832v-1.049h5.577v-41.981h-5.642v-1.05h29.321
		c1.093,0,1.639,0.526,1.639,1.575v9.971c0,0.569-0.154,0.853-0.458,0.853c-0.351,0-0.524-0.306-0.524-0.918
		c-0.044-0.962-0.209-2.044-0.493-3.247c-0.284-1.202-0.731-2.339-1.344-3.411c-0.614-1.071-1.423-1.968-2.427-2.689
		c-1.006-0.721-2.253-1.082-3.738-1.082h-9.971v19.285h5.183V228.701z M225.101,248.904c-0.129,0-0.195,0.196-0.195,0.59
		c-0.088,0.744-0.416,1.313-0.985,1.705c-0.567,0.395-1.202,0.59-1.901,0.59c-1.051,0-1.925-0.295-2.623-0.885
		c-0.701-0.591-1.051-1.432-1.051-2.524c0-1.137,0.395-2.044,1.182-2.723c0.787-0.678,1.814-1.017,3.082-1.017
		s2.352,0.427,3.248,1.279c0.895,0.853,1.344,1.958,1.344,3.313c0,0.787-0.143,1.64-0.426,2.558
		c-0.285,0.918-0.722,1.814-1.312,2.689c-0.59,0.875-1.344,1.683-2.262,2.427c-0.918,0.743-2.033,1.377-3.346,1.903
		c-0.177,0.086-0.307,0.13-0.396,0.13c-0.218,0-0.328-0.066-0.328-0.197c0-0.089,0.11-0.197,0.328-0.328
		c1.093-0.438,2.033-0.996,2.822-1.672c0.786-0.68,1.432-1.389,1.935-2.132c0.502-0.744,0.874-1.476,1.116-2.198
		c0.237-0.72,0.358-1.366,0.358-1.935C225.69,249.429,225.495,248.904,225.101,248.904z M240.909,263.959
		c1.094,0,1.64,0.526,1.64,1.575v9.971c0,0.568-0.153,0.853-0.458,0.853c-0.354,0-0.523-0.307-0.523-0.919
		c-0.045-0.962-0.211-2.044-0.494-3.247c-0.281-1.202-0.731-2.339-1.344-3.412c-0.612-1.071-1.422-1.967-2.428-2.689
		c-1.006-0.721-2.253-1.082-3.738-1.082h-9.971v19.285h5.184c0.961,0,1.727-0.142,2.295-0.427c0.568-0.283,1.017-0.688,1.346-1.212
		c0.326-0.526,0.578-1.159,0.753-1.903c0.175-0.743,0.351-1.575,0.524-2.494c0.133-0.611,0.307-0.918,0.523-0.918
		c0.264,0,0.395,0.264,0.395,0.788v13.315c0,0.568-0.129,0.853-0.395,0.853c-0.218,0-0.392-0.305-0.523-0.918
		c-0.174-0.919-0.351-1.75-0.524-2.492c-0.175-0.744-0.427-1.378-0.753-1.901c-0.329-0.524-0.777-0.931-1.346-1.215
		c-0.569-0.283-1.334-0.427-2.295-0.427h-5.184v21.648h10.562c1.529,0,2.799-0.263,3.804-0.788c1.005-0.524,1.837-1.278,2.494-2.263
		c0.651-0.985,1.18-2.154,1.571-3.51c0.393-1.354,0.764-2.862,1.115-4.525c0.176-0.918,0.416-1.377,0.723-1.377
		c0.353,0,0.523,0.523,0.523,1.572v9.841c0,1.399-0.635,2.099-1.898,2.099h-30.833v-1.048h5.578V265.01h-5.643v-1.051H240.909z
		 M181.048,320.604v-1.049h17.646v1.049h-5.641v32.076c0,3.542,0.885,6.266,2.656,8.167s4.188,2.854,7.249,2.854
		c1.485,0,2.875-0.24,4.166-0.723c1.289-0.479,2.415-1.189,3.377-2.13c0.962-0.939,1.716-2.099,2.264-3.478
		c0.546-1.377,0.819-2.941,0.819-4.69v-32.076h-5.641v-1.049h12.332v1.049h-5.642v32.076c0,4.066-1.159,7.117-3.476,9.15
		c-2.319,2.033-5.555,3.051-9.708,3.051c-1.706,0-3.434-0.196-5.183-0.59c-1.749-0.395-3.334-1.071-4.755-2.034
		c-1.421-0.962-2.582-2.218-3.476-3.771c-0.896-1.554-1.346-3.487-1.346-5.807v-32.076H181.048z M193.596,298.923l10.888-33.913
		h-5.641v-1.051h11.743v1.051h-4.723l-14.038,43.688h-1.181l-14.759-43.688h-5.641v-1.051h17.71v1.051h-5.903L193.596,298.923z
		 M165.852,196.852h-19.219v-1.05h6.756l-4.265-12.659h-13.183l-4.133,12.659h7.741v1.05h-14.562v-1.05h5.642l14.364-43.621h0.789
		l14.364,43.621h5.707L165.852,196.852L165.852,196.852z M139.296,306.992h5.641l14.366-43.623h0.787l14.366,43.623h5.707v1.048
		h-19.219v-1.048h6.756l-4.264-12.661h-13.184l-4.134,12.661h7.74v1.048h-14.562V306.992L139.296,306.992z M142.715,333.166
		c1.071-2.777,2.524-5.226,4.362-7.348c1.837-2.12,3.989-3.813,6.46-5.082c2.471-1.27,5.106-1.903,7.905-1.903
		c2.798,0,5.433,0.634,7.904,1.903c2.469,1.269,4.625,2.962,6.46,5.082c1.837,2.123,3.291,4.57,4.363,7.348
		c1.071,2.777,1.606,5.652,1.606,8.625s-0.535,5.849-1.606,8.626c-1.072,2.777-2.526,5.235-4.363,7.379
		c-1.835,2.144-3.991,3.859-6.46,5.149c-2.472,1.289-5.106,1.935-7.904,1.935c-2.799,0-5.434-0.646-7.905-1.935
		c-2.472-1.29-4.624-3.006-6.46-5.149c-1.837-2.144-3.291-4.602-4.362-7.379c-1.072-2.778-1.608-5.653-1.608-8.626
		S141.643,335.943,142.715,333.166z M221.567,363.634v-1.048h5.641v-41.982h-5.641v-1.049h18.498c1.882,0,3.662,0.24,5.345,0.721
		c1.684,0.481,3.138,1.181,4.362,2.099c1.225,0.919,2.196,2.057,2.92,3.412c0.723,1.354,1.084,2.886,1.084,4.591
		c0,2.756-0.922,5.042-2.758,6.854c-1.836,1.814-4.459,3.028-7.873,3.642c1.312,0.35,2.537,0.733,3.674,1.146
		c1.139,0.416,2.146,0.984,3.019,1.705c0.877,0.723,1.617,1.651,2.231,2.788c0.609,1.138,1.05,2.581,1.311,4.329
		c0.133,0.876,0.207,1.794,0.229,2.755c0.021,0.962,0.045,1.903,0.066,2.82c0.021,0.918,0.065,1.772,0.131,2.559
		c0.067,0.787,0.163,1.401,0.297,1.837c0.393,1.093,1.269,1.64,2.625,1.64c1.094,0,2.074-0.305,2.951-0.918
		c0.172-0.086,0.305-0.13,0.393-0.13c0.133,0,0.197,0.064,0.197,0.195c0,0.133-0.064,0.263-0.197,0.395
		c-0.221,0.219-0.555,0.449-1.018,0.688c-0.459,0.242-1.005,0.472-1.64,0.69c-0.634,0.22-1.321,0.403-2.065,0.557
		c-0.744,0.152-1.488,0.229-2.229,0.229c-0.875,0-1.695-0.108-2.461-0.326c-0.765-0.22-1.433-0.634-2-1.246
		c-0.613-0.657-1.062-1.443-1.345-2.362c-0.285-0.918-0.48-1.925-0.59-3.018c-0.111-1.092-0.177-2.23-0.199-3.411
		c-0.021-1.181-0.098-2.338-0.229-3.476c-0.22-1.879-0.577-3.421-1.08-4.624c-0.505-1.203-1.096-2.145-1.773-2.821
		c-0.678-0.678-1.406-1.137-2.194-1.377s-1.532-0.361-2.231-0.361h-5.443v21.451h5.641v1.048L221.567,363.634L221.567,363.634z
		 M247.403,209.416v-1.05h17.646v1.05h-5.641v41.981h5.641v1.049h-17.646v-1.049h5.641v-41.981H247.403z M274.926,98.225v-1.049
		h12.138l12.071,33.717l11.675-33.717h12.137v1.049h-5.25v41.982h5.25v1.051h-16.859v-1.051h5.247V99.08l-14.626,42.178h-0.855
		l-14.625-41.916v40.865h5.248v1.051h-11.549v-1.051h5.252V98.225H274.926z M350.354,127.252c-0.523-1.246-1.527-2.218-3.019-2.918
		c-1.18-0.568-2.22-1.017-3.114-1.346c-0.895-0.328-1.779-0.633-2.656-0.918c-0.877-0.283-1.814-0.578-2.819-0.886
		c-1.009-0.305-2.229-0.699-3.673-1.181c-3.02-1.005-5.238-2.47-6.658-4.395c-1.422-1.923-2.132-4.044-2.132-6.362
		c0-1.707,0.305-3.324,0.917-4.854c0.611-1.53,1.511-2.887,2.691-4.068c1.18-1.181,2.611-2.12,4.295-2.82
		c1.684-0.699,3.596-1.049,5.74-1.049c1.049,0,1.979,0.055,2.788,0.163c0.808,0.11,1.572,0.273,2.295,0.492
		c0.724,0.22,1.433,0.504,2.134,0.853c0.695,0.352,1.439,0.744,2.229,1.181l1.902-2.426c0.261-0.35,0.502-0.526,0.723-0.526
		c0.261,0,0.393,0.22,0.393,0.656v11.676c0,0.438-0.154,0.656-0.459,0.656c-0.352,0-0.55-0.218-0.591-0.656
		c-0.175-1.399-0.536-2.755-1.082-4.066c-0.548-1.313-1.278-2.472-2.198-3.478c-0.916-1.005-2.058-1.813-3.41-2.426
		c-1.355-0.612-2.93-0.918-4.723-0.918c-1.182,0-2.354,0.163-3.512,0.492c-1.158,0.328-2.186,0.819-3.08,1.476
		c-0.896,0.657-1.629,1.498-2.197,2.525c-0.568,1.028-0.854,2.22-0.854,3.575c0,1.445,0.348,2.713,1.049,3.806
		c0.7,1.092,1.727,1.901,3.083,2.426c1.226,0.482,2.34,0.885,3.349,1.213c1.004,0.328,1.965,0.623,2.885,0.886
		c0.918,0.263,1.812,0.504,2.688,0.722c0.877,0.22,1.815,0.482,2.82,0.787c2.975,0.876,5.149,2.328,6.528,4.363
		c1.379,2.033,2.065,4.516,2.065,7.444c0,2.145-0.383,4.145-1.149,6.002c-0.763,1.86-1.803,3.466-3.115,4.822
		c-1.312,1.356-2.862,2.417-4.655,3.181c-1.793,0.765-3.74,1.149-5.838,1.149c-1.138,0-2.242-0.143-3.312-0.427
		c-1.074-0.286-2.08-0.645-3.019-1.082c-0.942-0.437-1.793-0.918-2.56-1.445c-0.767-0.524-1.41-1.027-1.935-1.507l-2.36,3.41
		c-0.31,0.437-0.592,0.656-0.854,0.656c-0.394,0-0.591-0.285-0.591-0.852v-11.743c0-0.61,0.152-0.918,0.462-0.918
		c0.349,0,0.59,0.286,0.719,0.853c0.483,1.837,1.172,3.5,2.065,4.987c0.898,1.486,1.959,2.733,3.185,3.738
		c1.222,1.006,2.558,1.782,4.001,2.328c1.441,0.548,2.951,0.821,4.523,0.821c1.357,0,2.691-0.24,4.004-0.722
		c1.311-0.48,2.469-1.159,3.478-2.033c1.004-0.875,1.812-1.957,2.427-3.247c0.609-1.29,0.918-2.723,0.918-4.297
		C351.146,129.757,350.88,128.5,350.354,127.252z M327.379,186.488l11.679-33.717h12.133v1.05h-5.246v41.98h5.246v1.05h-16.858
		v-1.05h5.251v-41.127l-14.63,42.178h-0.851l-14.632-41.916v40.865h5.248v1.05h-11.543v-1.05h5.246v-41.979h-5.246v-1.05h12.134
		L327.379,186.488z M282.694,152.05c2.799,0,5.437,0.634,7.904,1.901c2.471,1.269,4.625,2.965,6.463,5.084
		c1.836,2.121,3.289,4.57,4.361,7.346c1.07,2.779,1.605,5.654,1.605,8.626c0,2.975-0.535,5.85-1.605,8.625
		c-1.072,2.778-2.525,5.238-4.361,7.381c-1.838,2.144-3.992,3.859-6.463,5.148c-2.469,1.289-5.105,1.936-7.904,1.936
		c-2.797,0-5.432-0.646-7.903-1.936c-2.472-1.289-4.625-3.005-6.461-5.148c-1.834-2.143-3.292-4.603-4.362-7.381
		c-1.07-2.775-1.607-5.65-1.607-8.625c0-2.972,0.537-5.847,1.607-8.626c1.07-2.776,2.528-5.225,4.362-7.346
		c1.836-2.12,3.989-3.815,6.461-5.084C277.263,152.685,279.897,152.05,282.694,152.05z M285.058,349.924h-13.187l-4.134,12.662h7.74
		v1.048h-14.562v-1.048h5.645l14.365-43.621h0.785l14.365,43.621h5.71v1.048h-19.222v-1.048h6.758L285.058,349.924z
		 M296.041,268.093c-1.508-2.055-3.269-3.083-5.278-3.083h-5.644v41.982h5.644v1.048h-17.646v-1.048h5.643V265.01h-5.643
		c-2.012,0-3.771,1.028-5.279,3.083c-1.51,2.055-2.506,4.853-2.984,8.395h-1.377l0.982-11.413c0.045-0.744,0.48-1.116,1.312-1.116
		h32.338c0.832,0,1.268,0.372,1.312,1.116l0.985,11.413h-1.379C298.543,272.946,297.551,270.148,296.041,268.093z M284.413,228.701
		c0.961,0,1.729-0.142,2.295-0.427c0.568-0.282,1.016-0.688,1.346-1.213c0.325-0.524,0.576-1.158,0.752-1.902
		c0.178-0.742,0.35-1.574,0.524-2.493c0.133-0.613,0.31-0.919,0.524-0.919c0.264,0,0.396,0.262,0.396,0.789v13.315
		c0,0.568-0.133,0.853-0.396,0.853c-0.217,0-0.393-0.306-0.524-0.918c-0.177-0.918-0.349-1.75-0.524-2.494
		c-0.176-0.742-0.427-1.376-0.752-1.901c-0.33-0.524-0.777-0.929-1.346-1.214c-0.566-0.284-1.334-0.427-2.295-0.427h-5.184v21.647
		h5.643v1.049h-17.518v-1.049h5.513v-41.981h-5.644v-1.05h29.321c1.093,0,1.64,0.526,1.64,1.575v9.971
		c0,0.569-0.152,0.853-0.457,0.853c-0.35,0-0.524-0.306-0.524-0.918c-0.044-0.962-0.207-2.044-0.494-3.247
		c-0.28-1.202-0.729-2.339-1.343-3.411c-0.613-1.071-1.424-1.968-2.428-2.689c-1.006-0.721-2.252-1.082-3.739-1.082h-9.97v19.285
		h5.184V228.701z M337.871,253.102h-0.853l-15.287-43.687h-4.851v-1.05h41.259v1.05h-4l-5.445,15.48l6.561,18.957l12.137-34.438
		h-5.644v-1.05h11.348v1.05h-4.524l-15.353,43.687h-0.851l-7.35-20.401L337.871,253.102z M325.185,84.613h5.644V42.631h-5.644
		v-1.049h18.5c1.879,0,3.659,0.241,5.347,0.721c1.684,0.482,3.137,1.181,4.362,2.099c1.221,0.919,2.196,2.057,2.916,3.412
		c0.723,1.356,1.084,2.886,1.084,4.591c0,2.756-0.918,5.042-2.754,6.854c-1.839,1.816-4.463,3.03-7.873,3.641
		c1.312,0.352,2.533,0.733,3.674,1.147c1.138,0.416,2.142,0.985,3.019,1.705c0.873,0.722,1.617,1.652,2.229,2.789
		c0.611,1.138,1.049,2.582,1.312,4.33c0.129,0.875,0.207,1.793,0.229,2.754c0.021,0.962,0.041,1.903,0.065,2.822
		c0.019,0.918,0.065,1.771,0.128,2.557c0.066,0.789,0.166,1.401,0.295,1.837c0.396,1.094,1.27,1.639,2.627,1.639
		c1.092,0,2.074-0.304,2.95-0.917c0.177-0.088,0.306-0.132,0.394-0.132c0.131,0,0.197,0.066,0.197,0.197s-0.066,0.262-0.197,0.394
		c-0.217,0.22-0.557,0.449-1.015,0.689c-0.463,0.24-1.009,0.469-1.643,0.688c-0.636,0.22-1.322,0.405-2.066,0.559
		c-0.743,0.152-1.485,0.229-2.229,0.229c-0.875,0-1.695-0.11-2.457-0.329c-0.768-0.218-1.438-0.632-2-1.246
		c-0.616-0.657-1.062-1.443-1.35-2.362c-0.281-0.918-0.479-1.923-0.59-3.017c-0.109-1.093-0.173-2.23-0.193-3.411
		c-0.021-1.181-0.103-2.339-0.229-3.479c-0.222-1.879-0.581-3.421-1.084-4.624c-0.503-1.203-1.093-2.142-1.771-2.821
		c-0.678-0.677-1.408-1.136-2.197-1.377c-0.788-0.24-1.532-0.361-2.229-0.361h-5.446v21.45h5.641v1.049h-17.645V84.613
		L325.185,84.613z M284.667,41.583h17.645v1.049h-5.64v32.076c0,3.542,0.886,6.265,2.657,8.167c1.771,1.901,4.186,2.853,7.247,2.853
		c1.485,0,2.877-0.238,4.167-0.72c1.287-0.48,2.414-1.191,3.376-2.132c0.964-0.94,1.717-2.099,2.263-3.476
		c0.549-1.378,0.82-2.941,0.82-4.691V42.631h-5.641v-1.049h12.332v1.049h-5.641v32.076c0,4.068-1.162,7.117-3.479,9.152
		c-2.318,2.033-5.554,3.049-9.707,3.049c-1.705,0-3.437-0.196-5.186-0.59c-1.749-0.393-3.334-1.071-4.753-2.034
		c-1.423-0.96-2.582-2.218-3.478-3.771c-0.897-1.551-1.344-3.487-1.344-5.806V42.631h-5.644v-1.048H284.667z M246.333,55.193
		c1.07-2.775,2.523-5.225,4.361-7.346c1.837-2.121,3.99-3.815,6.462-5.084c2.472-1.267,5.104-1.903,7.903-1.903
		s5.434,0.636,7.904,1.903c2.471,1.269,4.624,2.963,6.461,5.084c1.838,2.121,3.292,4.571,4.362,7.346
		c1.069,2.777,1.606,5.652,1.606,8.625c0,2.976-0.537,5.85-1.606,8.626c-1.07,2.777-2.524,5.238-4.362,7.379
		c-1.837,2.143-3.99,3.861-6.461,5.15c-2.472,1.289-5.105,1.934-7.904,1.934s-5.433-0.645-7.903-1.934
		c-2.472-1.289-4.625-3.007-6.462-5.15c-1.838-2.141-3.291-4.602-4.361-7.379c-1.07-2.776-1.607-5.651-1.607-8.626
		C244.726,60.846,245.263,57.971,246.333,55.193z M232.731,140.207h5.641l14.367-43.621h0.783l14.365,43.621h5.711v1.051h-19.222
		v-1.051h6.757l-4.264-12.659h-13.186l-4.134,12.659h7.74v1.051h-14.562v-1.051H232.731z M237.323,154.018
		c2.469-1.313,5.15-1.967,8.035-1.967c1.97,0,3.828,0.295,5.576,0.886c1.75,0.59,3.323,1.454,4.725,2.59l2.556-2.624
		c0.353-0.351,0.636-0.524,0.854-0.524c0.172,0,0.305,0.064,0.393,0.196c0.088,0.13,0.132,0.394,0.132,0.787v10.692
		c0,0.526-0.11,0.789-0.325,0.789c-0.178,0-0.332-0.219-0.463-0.657c-0.523-1.575-1.203-3.039-2.031-4.395
		c-0.832-1.355-1.814-2.515-2.951-3.478c-1.137-0.96-2.405-1.714-3.807-2.263c-1.399-0.546-2.951-0.819-4.656-0.819
		c-4.11,0-7.15,1.563-9.117,4.689c-1.969,3.128-2.952,7.576-2.952,13.349v7.346c0,5.991,0.961,10.54,2.886,13.644
		c1.924,3.105,4.875,4.658,8.856,4.658c1.747,0,3.345-0.317,4.788-0.952c1.441-0.634,2.756-1.52,3.936-2.657
		c1.182-1.137,2.229-2.482,3.15-4.035c0.916-1.552,1.77-3.223,2.556-5.018c0.22-0.48,0.437-0.721,0.656-0.721
		c0.219,0,0.329,0.218,0.329,0.656v12.659c0,0.305-0.131,0.458-0.396,0.458c-0.174,0-0.37-0.11-0.591-0.328l-3.477-3.804
		c-1.485,1.663-3.172,2.898-5.051,3.707c-1.879,0.809-3.849,1.213-5.902,1.213c-2.452,0-4.854-0.614-7.217-1.836
		c-2.362-1.225-4.482-2.886-6.362-4.985c-1.882-2.099-3.4-4.56-4.56-7.379c-1.158-2.822-1.738-5.849-1.738-9.086
		c0-2.797,0.503-5.564,1.509-8.298c1.004-2.732,2.416-5.17,4.231-7.312C232.709,157.057,234.853,155.33,237.323,154.018z
		 M229.216,98.751v9.97c0,0.569-0.154,0.852-0.46,0.852c-0.351,0-0.524-0.305-0.524-0.917c-0.043-0.962-0.209-2.044-0.491-3.248
		c-0.286-1.201-0.733-2.338-1.347-3.411c-0.611-1.07-1.42-1.967-2.427-2.689c-1.007-0.722-2.253-1.083-3.737-1.083h-9.973v19.287
		h5.183c0.961,0,1.727-0.141,2.295-0.427c0.567-0.284,1.018-0.689,1.345-1.214c0.329-0.524,0.58-1.157,0.754-1.901
		c0.174-0.744,0.351-1.575,0.524-2.494c0.132-0.612,0.307-0.918,0.525-0.918c0.262,0,0.393,0.262,0.393,0.786v13.316
		c0,0.57-0.131,0.854-0.393,0.854c-0.22,0-0.395-0.306-0.525-0.918c-0.174-0.918-0.352-1.749-0.524-2.493
		c-0.174-0.742-0.425-1.377-0.754-1.903c-0.328-0.524-0.777-0.928-1.345-1.212c-0.569-0.284-1.334-0.427-2.295-0.427h-5.183v21.646
		h10.562c1.529,0,2.798-0.262,3.804-0.787c1.005-0.524,1.837-1.279,2.493-2.262c0.654-0.984,1.181-2.154,1.572-3.511
		c0.396-1.354,0.766-2.864,1.117-4.526c0.174-0.917,0.414-1.377,0.721-1.377c0.35,0,0.523,0.526,0.523,1.575v9.839
		c0,1.401-0.634,2.1-1.902,2.1h-30.83v-1.051h5.576V98.225h-5.642v-1.049h29.321C228.668,97.176,229.216,97.701,229.216,98.751z
		 M190.414,84.613h5.641V42.631h-5.641v-1.049h18.236v1.049h-6.231v41.982h13.446c1.53,0,2.797-0.262,3.804-0.787
		c1.006-0.526,1.837-1.279,2.494-2.264c0.656-0.983,1.18-2.153,1.574-3.509c0.393-1.354,0.765-2.864,1.115-4.526
		c0.174-0.918,0.414-1.377,0.723-1.377c0.348,0,0.523,0.524,0.523,1.575v9.839c0,1.398-0.634,2.098-1.902,2.098h-33.782V84.613z
		 M190.83,108c0,2.754-0.919,5.041-2.756,6.855c-1.837,1.814-4.46,3.028-7.872,3.639c1.312,0.352,2.537,0.733,3.674,1.147
		c1.137,0.418,2.143,0.985,3.018,1.707c0.875,0.721,1.617,1.65,2.229,2.787c0.613,1.138,1.05,2.581,1.312,4.33
		c0.132,0.875,0.208,1.793,0.229,2.754c0.022,0.964,0.043,1.903,0.065,2.821c0.022,0.919,0.066,1.771,0.132,2.558
		c0.064,0.789,0.163,1.4,0.295,1.837c0.393,1.094,1.267,1.641,2.624,1.641c1.093,0,2.076-0.307,2.952-0.919
		c0.174-0.087,0.305-0.132,0.394-0.132c0.13,0,0.196,0.066,0.196,0.198c0,0.13-0.065,0.262-0.196,0.393
		c-0.22,0.22-0.559,0.449-1.018,0.689c-0.459,0.24-1.006,0.471-1.641,0.689c-0.634,0.218-1.321,0.403-2.065,0.557
		c-0.743,0.152-1.487,0.229-2.23,0.229c-0.876,0-1.695-0.11-2.46-0.329c-0.765-0.218-1.432-0.632-2-1.247
		c-0.612-0.656-1.062-1.443-1.345-2.361c-0.285-0.918-0.481-1.924-0.591-3.018c-0.108-1.091-0.174-2.229-0.196-3.41
		s-0.099-2.339-0.229-3.478c-0.22-1.879-0.581-3.419-1.082-4.623c-0.504-1.203-1.095-2.142-1.773-2.82
		c-0.678-0.679-1.41-1.137-2.196-1.379c-0.787-0.239-1.531-0.359-2.231-0.359h-5.443v21.448h5.641v1.051h-17.646v-1.051h5.641
		V98.222h-5.641v-1.049h18.499c1.879,0,3.662,0.243,5.346,0.723c1.683,0.482,3.136,1.181,4.361,2.099
		c1.225,0.918,2.198,2.056,2.919,3.41C190.469,104.765,190.83,106.294,190.83,108z M153.287,84.613h5.641V42.631h-5.641v-1.049
		h18.236v1.049h-6.233v41.982h13.447c1.531,0,2.797-0.262,3.804-0.787c1.007-0.526,1.837-1.279,2.494-2.264
		c0.656-0.983,1.181-2.153,1.575-3.509c0.393-1.354,0.765-2.864,1.115-4.526c0.174-0.918,0.415-1.377,0.723-1.377
		c0.348,0,0.524,0.524,0.524,1.575v9.839c0,1.398-0.634,2.098-1.903,2.098h-33.781L153.287,84.613L153.287,84.613z M157.259,109.935
		c1.005,2.647,1.509,5.566,1.509,8.758c0,3.41-0.493,6.504-1.476,9.282c-0.984,2.777-2.374,5.148-4.165,7.115
		c-1.795,1.969-3.958,3.489-6.494,4.56c-2.537,1.072-5.336,1.608-8.396,1.608h-19.352v-1.051h5.773V98.225h-5.773v-1.049h19.352
		c3.017,0,5.782,0.516,8.297,1.542c2.514,1.028,4.679,2.493,6.494,4.395C154.842,105.016,156.252,107.289,157.259,109.935z
		 M111.208,84.613h5.641l14.365-43.621h0.788l14.364,43.621h5.708v1.049h-19.219v-1.049h6.755l-4.264-12.66h-13.184l-4.132,12.66
		h7.74v1.049h-14.562V84.613z M89.609,166.513c1.006-2.732,2.417-5.17,4.231-7.312c1.815-2.144,3.958-3.871,6.428-5.183
		c2.472-1.313,5.15-1.967,8.038-1.967c1.967,0,3.824,0.295,5.575,0.886c1.747,0.59,3.322,1.454,4.723,2.59l2.558-2.624
		c0.35-0.351,0.634-0.524,0.852-0.524c0.175,0,0.307,0.064,0.395,0.196c0.086,0.13,0.132,0.394,0.132,0.787v10.692
		c0,0.526-0.11,0.789-0.328,0.789c-0.176,0-0.328-0.219-0.46-0.657c-0.524-1.575-1.203-3.039-2.033-4.395
		c-0.831-1.355-1.815-2.515-2.952-3.478c-1.139-0.96-2.405-1.714-3.804-2.263c-1.4-0.546-2.952-0.819-4.657-0.819
		c-4.112,0-7.15,1.563-9.119,4.689c-1.967,3.128-2.952,7.576-2.952,13.349v7.346c0,5.991,0.961,10.54,2.887,13.644
		c1.923,3.105,4.875,4.658,8.855,4.658c1.747,0,3.344-0.317,4.789-0.952c1.443-0.634,2.754-1.52,3.935-2.657
		c1.181-1.137,2.231-2.482,3.149-4.035c0.917-1.552,1.771-3.223,2.558-5.018c0.218-0.48,0.437-0.721,0.656-0.721
		c0.218,0,0.328,0.218,0.328,0.656v12.659c0,0.305-0.131,0.458-0.394,0.458c-0.176,0-0.372-0.11-0.59-0.328l-3.476-3.804
		c-1.488,1.663-3.171,2.898-5.051,3.707c-1.881,0.809-3.85,1.213-5.903,1.213c-2.451,0-4.855-0.614-7.216-1.836
		c-2.362-1.225-4.484-2.886-6.364-4.985c-1.881-2.099-3.401-4.56-4.558-7.379c-1.16-2.822-1.738-5.849-1.738-9.086
		C88.103,172.014,88.603,169.247,89.609,166.513z M93.546,251.397v1.049H75.9v-1.049h5.641v-41.981H75.9
		c-2.011,0-3.771,1.029-5.28,3.082c-1.509,2.057-2.504,4.854-2.985,8.396h-1.377l0.982-11.413c0.044-0.744,0.482-1.116,1.313-1.116
		h32.338c0.831,0,1.269,0.372,1.312,1.116l0.983,11.413h-1.376c-0.483-3.542-1.476-6.339-2.985-8.396
		c-1.508-2.053-3.269-3.082-5.28-3.082h-5.642v41.981H93.546z M96.783,306.992h5.642V265.01h-5.642v-1.051h17.646v1.051h-5.641
		v19.022h17.384V265.01h-5.642v-1.051h17.644v1.051h-5.641v41.982h5.641v1.048H120.53v-1.048h5.642v-21.845h-17.384v21.845h5.641
		v1.048H96.783V306.992z M116.563,363.044c-2.361-1.223-4.484-2.886-6.364-4.985c-1.881-2.099-3.401-4.56-4.558-7.379
		c-1.161-2.821-1.738-5.849-1.738-9.086c0-2.797,0.501-5.563,1.507-8.297c1.007-2.731,2.417-5.171,4.231-7.312
		c1.813-2.143,3.956-3.871,6.429-5.184c2.47-1.311,5.148-1.967,8.034-1.967c1.969,0,3.826,0.295,5.577,0.885
		c1.747,0.59,3.322,1.454,4.722,2.591l2.558-2.624c0.35-0.348,0.633-0.523,0.853-0.523c0.174,0,0.306,0.066,0.394,0.197
		c0.086,0.132,0.13,0.394,0.13,0.788v10.691c0,0.524-0.109,0.787-0.329,0.787c-0.174,0-0.326-0.218-0.458-0.657
		c-0.524-1.574-1.203-3.038-2.034-4.395c-0.832-1.354-1.814-2.514-2.952-3.477c-1.138-0.962-2.405-1.716-3.804-2.264
		c-1.4-0.546-2.952-0.819-4.658-0.819c-4.11,0-7.149,1.563-9.117,4.69c-1.968,3.127-2.952,7.577-2.952,13.349v7.348
		c0,5.991,0.961,10.538,2.886,13.644c1.924,3.105,4.876,4.657,8.856,4.657c1.748,0,3.345-0.317,4.788-0.951
		c1.444-0.633,2.755-1.519,3.936-2.657c1.181-1.137,2.231-2.479,3.148-4.033c0.92-1.553,1.772-3.225,2.56-5.019
		c0.218-0.482,0.436-0.722,0.656-0.722c0.219,0,0.329,0.22,0.329,0.655v12.659c0,0.308-0.132,0.46-0.394,0.46
		c-0.176,0-0.372-0.109-0.59-0.328l-3.476-3.805c-1.489,1.661-3.172,2.897-5.051,3.706c-1.881,0.808-3.85,1.213-5.904,1.213
		C121.328,364.881,118.924,364.267,116.563,363.044z M146.992,473.774v1.049h-17.645v-1.049h5.642v-41.98h-5.642v-1.052h18.169
		c2.099,0,3.991,0.285,5.674,0.854c1.683,0.569,3.117,1.379,4.297,2.429c1.18,1.049,2.088,2.309,2.722,3.771
		c0.633,1.466,0.95,3.074,0.95,4.819c0,1.797-0.317,3.423-0.95,4.89c-0.634,1.464-1.52,2.72-2.657,3.771
		c-1.138,1.049-2.504,1.859-4.101,2.428c-1.597,0.568-3.356,0.852-5.28,0.852h-6.822v19.222h5.643V473.774z M185.198,498.867
		c-0.48-3.543-1.476-6.341-2.983-8.397c-1.509-2.057-3.271-3.083-5.281-3.083h-5.642v41.98h5.642v1.051h-17.645v-1.051h5.641v-41.98
		h-5.641c-2.013,0-3.773,1.026-5.282,3.083c-1.507,2.058-2.502,4.854-2.982,8.397h-1.378l0.984-11.415
		c0.042-0.744,0.48-1.114,1.311-1.114h32.34c0.829,0,1.268,0.37,1.311,1.114l0.985,11.415H185.198z M229.028,487.387h-5.641v41.98
		h5.641v1.051h-17.646v-1.051h5.642v-21.844h-17.382v21.844h5.641v1.051h-17.645v-1.051h5.641v-41.98h-5.641v-1.049h17.645v1.049
		h-5.641v19.022h17.382v-19.022h-5.642v-1.049h17.646V487.387z M227.536,473.774c-0.612-0.657-1.062-1.445-1.346-2.361
		c-0.283-0.921-0.48-1.926-0.59-3.02c-0.108-1.092-0.175-2.229-0.197-3.408c-0.021-1.183-0.098-2.341-0.229-3.478
		c-0.22-1.881-0.581-3.423-1.083-4.625c-0.502-1.203-1.093-2.143-1.771-2.82c-0.68-0.679-1.41-1.137-2.197-1.379
		c-0.789-0.236-1.531-0.36-2.23-0.36h-5.443v21.451h5.641v1.049h-17.646v-1.049h5.641v-41.98h-5.641v-1.052h18.5
		c1.879,0,3.66,0.241,5.346,0.722c1.684,0.483,3.137,1.181,4.361,2.102c1.226,0.918,2.199,2.054,2.92,3.409
		c0.722,1.357,1.082,2.888,1.082,4.592c0,2.755-0.918,5.04-2.754,6.854c-1.838,1.816-4.461,3.031-7.873,3.64
		c1.312,0.354,2.535,0.735,3.674,1.149c1.137,0.418,2.142,0.983,3.018,1.706c0.875,0.722,1.617,1.651,2.229,2.787
		c0.613,1.138,1.052,2.581,1.312,4.331c0.133,0.872,0.207,1.793,0.229,2.754c0.021,0.964,0.045,1.902,0.066,2.818
		c0.022,0.922,0.065,1.771,0.133,2.561c0.063,0.788,0.162,1.398,0.295,1.837c0.393,1.093,1.267,1.639,2.623,1.639
		c1.092,0,2.078-0.305,2.951-0.916c0.176-0.088,0.309-0.133,0.396-0.133c0.133,0,0.194,0.066,0.194,0.198
		c0,0.128-0.062,0.261-0.194,0.393c-0.22,0.221-0.56,0.449-1.019,0.688c-0.457,0.241-1.004,0.47-1.64,0.688
		c-0.634,0.219-1.322,0.402-2.065,0.558c-0.744,0.153-1.487,0.229-2.229,0.229c-0.876,0-1.696-0.107-2.461-0.325
		C228.771,474.801,228.104,474.386,227.536,473.774z M263.276,528.318c0,1.398-0.635,2.1-1.902,2.1h-30.83v-1.051h5.575v-41.98
		h-5.642v-1.049H259.8c1.094,0,1.639,0.524,1.639,1.573v9.97c0,0.571-0.152,0.854-0.457,0.854c-0.353,0-0.524-0.306-0.524-0.916
		c-0.043-0.966-0.211-2.046-0.493-3.251c-0.285-1.199-0.73-2.335-1.345-3.41c-0.614-1.07-1.422-1.965-2.427-2.688
		c-1.008-0.722-2.254-1.083-3.739-1.083h-9.972v19.286h5.184c0.96,0,1.727-0.142,2.294-0.427c0.569-0.283,1.019-0.69,1.349-1.215
		c0.326-0.524,0.577-1.155,0.754-1.9c0.172-0.743,0.349-1.576,0.523-2.493c0.132-0.612,0.305-0.92,0.523-0.92
		c0.265,0,0.394,0.264,0.394,0.788v13.316c0,0.567-0.129,0.852-0.394,0.852c-0.219,0-0.393-0.305-0.523-0.917
		c-0.176-0.92-0.354-1.749-0.523-2.493c-0.177-0.744-0.428-1.378-0.754-1.901c-0.33-0.524-0.779-0.931-1.349-1.212
		c-0.567-0.287-1.334-0.429-2.294-0.429h-5.184v21.646h10.562c1.528,0,2.797-0.261,3.807-0.785c1.004-0.524,1.836-1.281,2.491-2.265
		c0.654-0.982,1.181-2.153,1.573-3.512c0.395-1.354,0.764-2.859,1.115-4.524c0.173-0.916,0.414-1.378,0.723-1.378
		c0.35,0,0.523,0.523,0.523,1.576V528.318L263.276,528.318z M313.324,487.387h-5.248v41.98h5.248v1.051h-16.856v-1.051h5.248V488.24
		l-14.627,42.178h-0.854l-14.627-41.917v40.866h5.248v1.051H265.31v-1.051h5.246v-41.98h-5.246v-1.049h12.137l12.066,33.715
		l11.68-33.715h12.133L313.324,487.387L313.324,487.387z M321.983,529.661c-0.678,0.683-1.521,1.019-2.523,1.019
		c-1.009,0-1.85-0.336-2.527-1.019c-0.679-0.675-1.019-1.518-1.019-2.524c0-1.005,0.34-1.846,1.019-2.523
		c0.678-0.678,1.52-1.019,2.527-1.019c1.004,0,1.848,0.341,2.523,1.019c0.68,0.679,1.018,1.52,1.018,2.523
		C323.001,528.145,322.663,528.986,321.983,529.661z M343.894,472.726c0,1.4-0.635,2.099-1.899,2.099H311.16v-1.049h5.577v-41.98
		h-5.641v-1.052h29.319c1.093,0,1.64,0.523,1.64,1.575v9.971c0,0.568-0.154,0.854-0.459,0.854c-0.349,0-0.522-0.309-0.522-0.92
		c-0.046-0.962-0.208-2.045-0.494-3.247c-0.282-1.202-0.731-2.339-1.345-3.41c-0.611-1.07-1.422-1.969-2.426-2.69
		c-1.006-0.72-2.252-1.08-3.737-1.08h-9.974v19.283h5.186c0.96,0,1.727-0.143,2.295-0.427c0.568-0.283,1.018-0.688,1.344-1.212
		c0.326-0.524,0.578-1.158,0.754-1.902c0.178-0.746,0.352-1.575,0.524-2.494c0.132-0.612,0.308-0.917,0.524-0.917
		c0.264,0,0.396,0.261,0.396,0.785v13.316c0,0.567-0.132,0.854-0.396,0.854c-0.218,0-0.394-0.309-0.524-0.921
		c-0.173-0.916-0.349-1.749-0.524-2.493c-0.176-0.74-0.428-1.375-0.754-1.899c-0.326-0.526-0.775-0.93-1.344-1.215
		c-0.568-0.282-1.335-0.428-2.295-0.428h-5.186v21.648h10.563c1.528,0,2.798-0.265,3.802-0.788c1.006-0.524,1.838-1.279,2.493-2.266
		c0.657-0.981,1.183-2.149,1.573-3.508c0.396-1.355,0.767-2.863,1.113-4.523c0.178-0.921,0.418-1.38,0.724-1.38
		c0.353,0,0.524,0.524,0.524,1.573v9.843H343.894z M370.041,361.535c0,1.399-0.634,2.099-1.901,2.099h-30.83v-1.048h5.575v-41.982
		h-5.643v-1.049h29.323c1.092,0,1.639,0.524,1.639,1.573v9.971c0,0.568-0.154,0.854-0.459,0.854c-0.352,0-0.523-0.306-0.523-0.918
		c-0.045-0.961-0.21-2.044-0.492-3.247c-0.287-1.203-0.732-2.339-1.346-3.412c-0.611-1.071-1.422-1.967-2.428-2.689
		c-1.008-0.72-2.254-1.082-3.739-1.082h-9.97v19.285h5.181c0.962,0,1.728-0.141,2.296-0.425s1.018-0.688,1.348-1.213
		c0.326-0.526,0.578-1.159,0.754-1.903c0.173-0.742,0.35-1.574,0.523-2.494c0.133-0.609,0.305-0.916,0.524-0.916
		c0.265,0,0.394,0.262,0.394,0.786v13.315c0,0.568-0.129,0.853-0.394,0.853c-0.22,0-0.394-0.305-0.524-0.919
		c-0.175-0.918-0.352-1.748-0.523-2.491c-0.176-0.744-0.428-1.379-0.754-1.903c-0.33-0.524-0.778-0.928-1.348-1.213
		c-0.568-0.285-1.334-0.425-2.296-0.425h-5.181v21.646h10.561c1.531,0,2.799-0.262,3.807-0.789c1.005-0.523,1.837-1.278,2.492-2.262
		c0.653-0.984,1.181-2.154,1.574-3.509c0.391-1.355,0.764-2.864,1.113-4.526c0.176-0.918,0.415-1.377,0.723-1.377
		c0.35,0,0.524,0.523,0.524,1.573V361.535L370.041,361.535z M377.104,305.941c0,1.399-0.636,2.099-1.899,2.099h-30.833v-1.048h5.576
		V265.01h-5.641v-1.051h29.319c1.093,0,1.64,0.526,1.64,1.575v9.971c0,0.568-0.15,0.853-0.459,0.853
		c-0.348,0-0.523-0.307-0.523-0.919c-0.043-0.962-0.208-2.044-0.493-3.247c-0.282-1.202-0.731-2.339-1.345-3.412
		c-0.611-1.071-1.42-1.967-2.428-2.689c-1.004-0.721-2.25-1.082-3.735-1.082h-9.974v19.285h5.185c0.962,0,1.728-0.142,2.296-0.427
		c0.568-0.283,1.018-0.688,1.345-1.212c0.326-0.526,0.577-1.159,0.753-1.903c0.176-0.743,0.354-1.575,0.524-2.494
		c0.131-0.611,0.308-0.918,0.526-0.918c0.262,0,0.394,0.264,0.394,0.788v13.315c0,0.568-0.132,0.853-0.394,0.853
		c-0.22,0-0.396-0.305-0.526-0.918c-0.173-0.919-0.349-1.75-0.524-2.492c-0.176-0.744-0.427-1.378-0.753-1.901
		c-0.327-0.524-0.776-0.931-1.345-1.215c-0.568-0.283-1.334-0.427-2.296-0.427h-5.185v21.648h10.563
		c1.528,0,2.798-0.263,3.803-0.788c1.005-0.524,1.837-1.278,2.492-2.263c0.657-0.985,1.181-2.154,1.573-3.51
		c0.396-1.354,0.768-2.862,1.115-4.525c0.174-0.918,0.418-1.377,0.723-1.377c0.352,0,0.523,0.523,0.523,1.572v9.841H377.104z
		 M407.167,250.347c0,1.4-0.635,2.099-1.902,2.099h-30.83v-1.049h5.572v-41.981h-5.639v-1.05h29.322c1.092,0,1.64,0.526,1.64,1.575
		v9.971c0,0.569-0.154,0.853-0.459,0.853c-0.353,0-0.524-0.306-0.524-0.918c-0.047-0.962-0.211-2.044-0.492-3.247
		c-0.285-1.202-0.734-2.339-1.345-3.411c-0.614-1.071-1.423-1.968-2.428-2.689c-1.008-0.721-2.254-1.082-3.74-1.082h-9.969v19.285
		h5.181c0.961,0,1.727-0.142,2.297-0.427c0.567-0.282,1.017-0.688,1.344-1.213c0.33-0.524,0.58-1.158,0.757-1.902
		c0.172-0.742,0.348-1.574,0.524-2.493c0.131-0.613,0.305-0.919,0.523-0.919c0.261,0,0.393,0.262,0.393,0.789v13.315
		c0,0.568-0.132,0.853-0.393,0.853c-0.221,0-0.393-0.306-0.523-0.918c-0.178-0.918-0.354-1.75-0.524-2.494
		c-0.177-0.742-0.427-1.376-0.757-1.901c-0.327-0.524-0.775-0.929-1.344-1.214c-0.57-0.284-1.336-0.427-2.297-0.427h-5.181v21.647
		h10.562c1.528,0,2.797-0.264,3.806-0.788c1.005-0.524,1.836-1.279,2.489-2.262c0.656-0.985,1.181-2.154,1.576-3.509
		c0.393-1.354,0.764-2.864,1.114-4.527c0.172-0.918,0.414-1.378,0.724-1.378c0.348,0,0.523,0.526,0.523,1.575V250.347z
		 M153.29,451.175c1.355-1.552,2.033-4.011,2.033-7.379v-2.361c0-3.499-0.689-5.979-2.066-7.444
		c-1.377-1.463-3.291-2.195-5.74-2.195h-6.166v21.711h6.822C150.228,453.505,151.933,452.729,153.29,451.175z M247.542,331.558
		v-2.36c0-5.729-2.494-8.593-7.479-8.593h-6.494v19.48h6.494C245.048,340.085,247.542,337.244,247.542,331.558z M161.443,363.7
		c3.979,0,7.019-1.521,9.117-4.561c2.099-3.038,3.15-7.728,3.15-14.068v-6.561c0-3.499-0.275-6.43-0.821-8.791
		c-0.546-2.36-1.335-4.263-2.361-5.706c-1.028-1.443-2.306-2.471-3.837-3.083c-1.53-0.612-3.28-0.918-5.247-0.918
		c-1.969,0-3.718,0.328-5.247,0.984c-1.532,0.656-2.812,1.716-3.838,3.181c-1.028,1.464-1.816,3.368-2.362,5.707
		s-0.819,5.214-0.819,8.626v6.561c0,6.341,1.05,11.03,3.149,14.068C154.423,362.18,157.463,363.7,161.443,363.7z M156.812,274.521
		l-6.167,18.761h12.463L156.812,274.521z M136.333,182.093h12.464l-6.296-18.76L136.333,182.093z M264.994,379.607
		c-1.026-1.44-2.308-2.469-3.838-3.079c-1.531-0.613-3.281-0.921-5.246-0.921c-1.97,0-3.72,0.328-5.247,0.981
		c-1.532,0.657-2.811,1.719-3.838,3.186c-1.029,1.463-1.817,3.365-2.363,5.706c-0.548,2.339-0.82,5.216-0.82,8.626v6.56
		c0,6.339,1.053,11.03,3.149,14.07c2.103,3.04,5.137,4.561,9.119,4.561c3.979,0,7.019-1.521,9.114-4.561
		c2.103-3.04,3.15-7.731,3.15-14.07v-6.56c0-3.498-0.273-6.43-0.82-8.789C266.81,382.956,266.021,381.053,264.994,379.607z
		 M352.959,209.416h-9.709l4.854,13.774L352.959,209.416z M327.967,209.416l12.005,34.306l4.459-12.791l-7.412-21.515H327.967
		L327.967,209.416z M272.265,348.875h12.463l-6.297-18.76L272.265,348.875z M273.61,157.396c-1.026,1.465-1.814,3.368-2.36,5.708
		s-0.819,5.214-0.819,8.624v6.56c0,6.342,1.049,11.031,3.149,14.071c2.098,3.04,5.137,4.56,9.114,4.56
		c3.979,0,7.019-1.52,9.119-4.56c2.099-3.04,3.149-7.729,3.149-14.071v-6.56c0-3.498-0.276-6.428-0.821-8.789
		c-0.548-2.362-1.332-4.265-2.361-5.708c-1.027-1.443-2.307-2.47-3.838-3.082c-1.528-0.612-3.277-0.918-5.248-0.918
		c-1.965,0-3.717,0.328-5.246,0.983C275.916,154.87,274.638,155.931,273.61,157.396z"/>
	<path display="none" fill="#FFFFFF" d="M237.028,745.315c25.012,0,47.189-12.178,60.969-30.919H176.036
		C189.834,733.139,211.983,745.315,237.028,745.315z M332.606,612.162c0-10.46-8.727-18.936-19.442-18.936H160.861
		c-10.729,0-19.444,8.476-19.444,18.936c0,10.497,8.715,18.994,19.444,18.994c-10.729,0-19.444,8.508-19.444,18.973
		c0,10.47,8.715,18.967,19.444,18.967c-10.729,0-19.444,8.508-19.444,18.964c0,10.499,8.715,18.994,19.444,18.994h152.303
		c10.717,0,19.442-8.495,19.442-18.994c0-10.456-8.727-18.964-19.442-18.964c10.717,0,19.442-8.497,19.442-18.967
		c0-10.465-8.727-18.973-19.442-18.973C323.881,631.156,332.606,622.659,332.606,612.162z M262.324,623.417
		c0.022-0.385,0.252-0.578,0.683-0.578h16.846c0.431,0,0.658,0.193,0.682,0.578l0.514,5.945h-0.716
		c-0.252-1.846-0.769-3.302-1.558-4.372c-0.784-1.07-1.7-1.605-2.75-1.605h-2.938v21.865h2.938v0.547h-9.19v-0.547h2.938v-21.865
		h-2.938c-1.048,0-1.963,0.535-2.751,1.605c-0.783,1.07-1.303,2.526-1.553,4.372h-0.719L262.324,623.417z M245.222,645.25h2.938
		v-21.865h-2.938v-0.546h9.496v0.546h-3.244v21.865h7.004c0.797,0,1.457-0.137,1.983-0.408c0.522-0.272,0.955-0.668,1.295-1.18
		c0.343-0.514,0.617-1.121,0.821-1.826c0.203-0.708,0.396-1.493,0.58-2.357c0.091-0.479,0.218-0.718,0.378-0.718
		c0.18,0,0.271,0.271,0.271,0.818v5.125c0,0.728-0.328,1.093-0.988,1.093h-17.596V645.25z M234.134,622.529l7.482,22.721h2.974
		v0.547h-10.012v-0.547h3.519l-2.22-6.595h-6.868l-2.152,6.595h4.033v0.547h-7.586v-0.547h2.938l7.481-22.721H234.134z
		 M206.556,667.836c-0.513,1.447-1.236,2.683-2.17,3.707c-0.933,1.025-2.061,1.816-3.382,2.375
		c-1.322,0.558-2.779,0.838-4.374,0.838h-10.078v-0.549h3.007v-21.865h-3.007v-0.549h10.078c1.573,0,3.013,0.269,4.323,0.805
		c1.31,0.535,2.437,1.299,3.382,2.288c0.946,0.992,1.68,2.175,2.204,3.552c0.524,1.383,0.785,2.9,0.785,4.562
		C207.325,664.779,207.068,666.39,206.556,667.836z M216.607,652.342h-2.938v21.865h2.938v0.549h-9.19v-0.549h2.939v-21.865h-2.939
		v-0.549h9.19V652.342z M217.308,646.139l-3.827-10.626l-3.723,10.626h-0.444l-7.962-22.754h-2.528v-0.546h21.491v0.546h-2.084
		l-2.836,8.062l3.417,9.875l6.32-17.938h-2.938v-0.546h5.91v0.546h-2.357l-7.995,22.754L217.308,646.139L217.308,646.139z
		 M232.743,670.637c-0.398,0.971-0.938,1.808-1.622,2.514c-0.685,0.705-1.492,1.259-2.427,1.656s-1.946,0.597-3.041,0.597
		c-0.592,0-1.166-0.074-1.725-0.223s-1.082-0.336-1.572-0.562c-0.489-0.229-0.934-0.479-1.332-0.753
		c-0.399-0.271-0.734-0.534-1.008-0.784l-1.229,1.775c-0.16,0.229-0.308,0.343-0.446,0.343c-0.203,0-0.307-0.15-0.307-0.443v-6.118
		c0-0.316,0.08-0.478,0.24-0.478c0.182,0,0.307,0.146,0.375,0.444c0.25,0.957,0.608,1.821,1.076,2.596
		c0.467,0.773,1.02,1.424,1.656,1.949c0.639,0.521,1.333,0.928,2.083,1.212c0.752,0.284,1.538,0.428,2.359,0.428
		c0.704,0,1.399-0.125,2.083-0.377c0.684-0.251,1.287-0.604,1.812-1.061c0.523-0.454,0.945-1.019,1.265-1.689
		c0.319-0.673,0.479-1.419,0.479-2.238c0-0.659-0.136-1.315-0.41-1.964c-0.273-0.648-0.797-1.156-1.57-1.521
		c-0.614-0.294-1.156-0.528-1.623-0.7c-0.467-0.17-0.93-0.331-1.385-0.479c-0.455-0.146-0.945-0.302-1.469-0.461
		c-0.523-0.16-1.162-0.366-1.913-0.614c-1.571-0.524-2.728-1.288-3.468-2.291c-0.739-1.003-1.109-2.105-1.109-3.313
		c0-0.888,0.16-1.729,0.479-2.526c0.318-0.796,0.785-1.505,1.4-2.118c0.614-0.616,1.361-1.105,2.237-1.47
		c0.876-0.365,1.874-0.548,2.99-0.548c0.547,0,1.03,0.031,1.453,0.085c0.42,0.058,0.817,0.144,1.194,0.257
		c0.377,0.115,0.746,0.263,1.11,0.445c0.363,0.182,0.751,0.388,1.161,0.613l0.99-1.265c0.138-0.184,0.262-0.273,0.375-0.273
		c0.138,0,0.207,0.114,0.207,0.343v6.082c0,0.229-0.08,0.342-0.239,0.342c-0.183,0-0.286-0.113-0.308-0.342
		c-0.092-0.729-0.279-1.436-0.563-2.119c-0.286-0.682-0.667-1.285-1.146-1.811c-0.478-0.522-1.071-0.944-1.776-1.266
		c-0.707-0.315-1.526-0.477-2.46-0.477c-0.615,0-1.225,0.083-1.828,0.257c-0.604,0.17-1.139,0.426-1.605,0.769
		c-0.468,0.342-0.85,0.778-1.145,1.314c-0.296,0.534-0.443,1.157-0.443,1.862c0,0.751,0.18,1.413,0.545,1.98
		c0.364,0.568,0.899,0.99,1.606,1.265c0.636,0.251,1.218,0.461,1.742,0.632c0.524,0.173,1.024,0.325,1.503,0.462
		c0.479,0.138,0.945,0.261,1.4,0.375s0.944,0.251,1.471,0.411c1.547,0.456,2.682,1.212,3.398,2.27
		c0.717,1.062,1.077,2.354,1.077,3.881C233.342,668.627,233.142,669.668,232.743,670.637z M254.479,652.342h-2.938v22.685h-1.162
		l-13.221-21.694v20.876h2.938v0.549h-6.424v-0.549h2.938v-21.865h-2.938v-0.549h6.73l10.593,17.324v-16.775h-2.938v-0.549h6.422
		V652.342L254.479,652.342z M272.319,673.661c0,0.729-0.332,1.095-0.993,1.095h-16.058v-0.549h2.904v-21.865h-2.938v-0.549h15.271
		c0.568,0,0.854,0.274,0.854,0.822v5.19c0,0.298-0.08,0.444-0.24,0.444c-0.182,0-0.271-0.158-0.271-0.479
		c-0.022-0.499-0.108-1.064-0.257-1.691c-0.149-0.624-0.383-1.218-0.7-1.775c-0.32-0.56-0.74-1.024-1.266-1.399
		c-0.521-0.378-1.173-0.563-1.945-0.563h-5.195v10.044h2.701c0.5,0,0.897-0.073,1.194-0.223c0.296-0.147,0.53-0.358,0.701-0.632
		c0.172-0.271,0.301-0.604,0.392-0.989c0.092-0.388,0.184-0.819,0.274-1.3c0.067-0.319,0.16-0.479,0.272-0.479
		c0.136,0,0.205,0.138,0.205,0.411v6.938c0,0.295-0.069,0.443-0.205,0.443c-0.112,0-0.205-0.16-0.272-0.479
		c-0.092-0.479-0.183-0.911-0.274-1.297c-0.091-0.389-0.22-0.72-0.392-0.991c-0.171-0.274-0.405-0.484-0.701-0.634
		c-0.297-0.146-0.694-0.224-1.194-0.224h-2.701v11.276h5.502c0.797,0,1.455-0.139,1.981-0.409c0.524-0.273,0.956-0.667,1.3-1.18
		c0.34-0.514,0.613-1.121,0.818-1.83c0.206-0.704,0.396-1.488,0.581-2.355c0.092-0.477,0.216-0.716,0.376-0.716
		c0.184,0,0.273,0.271,0.273,0.819v5.125H272.319z M293.899,652.342h-2.77l-5.637,10.25v11.615h3.279v0.549h-9.871v-0.549h3.277
		v-10.729l-6.628-11.138h-2.731v-0.549h9.531v0.549h-3.143l5.738,9.633l5.295-9.633h-3.312v-0.549h6.971V652.342L293.899,652.342z
		 M201.465,654.476c-0.648-0.763-1.395-1.31-2.237-1.64c-0.843-0.328-1.731-0.494-2.665-0.494h-3.69v21.865h3.69
		c0.957,0,1.856-0.16,2.698-0.479c0.843-0.318,1.583-0.871,2.221-1.655c0.637-0.787,1.145-1.848,1.52-3.182
		c0.377-1.33,0.565-3.01,0.565-5.038v-1.706c0-1.848-0.188-3.396-0.565-4.647C202.627,656.249,202.114,655.24,201.465,654.476z
		 M204.598,623.385l6.251,17.869l2.325-6.662l-3.86-11.207H204.598L204.598,623.385z M212.559,623.385l2.528,7.175l2.528-7.175
		H212.559z M232.426,628.34l-3.212,9.771h6.491L232.426,628.34z"/>
	<path fill="none" stroke="#FF0000" stroke-width="21" stroke-miterlimit="10" d="M236.295,803"/>
	<path fill="#FFFFFF" d="M247.795,788c0,0,0.5,15-11.375,15s-11.625-15-11.625-15l-2-69h28L247.795,788z"/>
</g>
</svg>
