<?xml version="1.0" encoding="utf-8"?>
<!-- Generator: Adobe Illustrator 15.0.2, SVG Export Plug-In . SVG Version: 6.00 Build 0)  -->
<!DOCTYPE svg PUBLIC "-//W3C//DTD SVG 1.1//EN" "http://www.w3.org/Graphics/SVG/1.1/DTD/svg11.dtd">
<svg version="1.1" id="Layer_1" xmlns="http://www.w3.org/2000/svg" xmlns:xlink="http://www.w3.org/1999/xlink" x="0px" y="0px"
	 width="543.795px" height="208px" viewBox="0 0 543.795 208" enable-background="new 0 0 543.795 208" xml:space="preserve">
<circle cx="32.546" cy="98.917" r="16.335"/>
<path fill="#FFFFFF" d="M36.92,110.584c0,0-14.937,0.5-14.937-11.375s14.905-11.625,14.905-11.625l54.906-3v28L36.92,110.584z"/>
<path fill="none" stroke="#FF0000" stroke-width="21" stroke-miterlimit="10" d="M22.046,99.084"/>
<path fill="#FFFFFF" d="M-289.205,74c0,6.627-5.373,12-12,12h-117c-6.627,0-12-5.373-12-12V-31c0-6.627,5.373-12,12-12h117
	c6.627,0,12,5.373,12,12V74z"/>
<g>
	<path fill="#FFFFFF" d="M159.304,95.417c0.571-1.024,0.856-2.633,0.856-4.871c0-1.83-0.29-3.122-0.868-3.967
		c-0.579-0.845-1.279-1.273-2.101-1.469c-0.821-0.195-1.897-0.11-3.227-0.11h-5.17v13h4.067c1.815,0,3.199-0.28,4.154-0.523
		C157.97,97.234,158.732,96.442,159.304,95.417z"/>
	<path fill="#FFFFFF" d="M123.759,85.509C122.32,85.048,120.442,85,118.127,85h-4.332v29h4.238c2.143,0,3.892-0.34,5.245-0.73
		c1.353-0.392,2.472-1.389,3.355-2.703c0.884-1.313,1.482-2.979,1.795-4.998s0.469-4.608,0.469-7.862
		c0-3.911-0.497-6.784-1.49-8.708C126.415,87.073,125.198,85.971,123.759,85.509z"/>
	<polygon fill="#FFFFFF" points="214.423,91 209.823,104 218.952,104 214.517,91 	"/>
	<path fill="#FFFFFF" d="M520.795,25h-442c-2.761,0-5,2.239-5,5v144c0,2.761,2.239,5,5,5h442c2.762,0,5-2.239,5-5V30
		C525.795,27.239,523.557,25,520.795,25z M132.372,108.172c-1.721,2.645-3.705,4.455-5.949,5.387
		c-2.245,0.931-4.979,1.441-8.202,1.441h-14.426v-1h5V85h-5v-2h14.52c3.285,0,6.097,0.685,8.437,1.615
		c2.338,0.931,4.291,2.869,5.855,5.583c1.564,2.716,2.347,5.775,2.347,8.951C134.953,102.513,134.093,105.527,132.372,108.172z
		 M169.795,114.579c-1,0.469-2.682,0.711-3.949,0.711c-2.581,0-4.411-0.712-5.474-2.151c-1.064-1.439-1.581-2.832-1.549-4.209
		l0.094-3.96c0-1.393-0.442-2.706-1.326-4.059C156.707,99.558,154.7,99,151.571,99h-2.776v15h5v1h-16v-1h5V85h-5v-2h17.555
		c2.253,0,4.082,0.415,5.529,0.806c1.447,0.391,2.674,1.419,3.723,2.647c1.048,1.229,1.531,2.64,1.531,4.236
		c0,1.987-0.849,3.599-2.382,4.834c-1.533,1.236-3.956,2.167-7.956,2.792v0.118c3,0.516,4.948,1.518,6.63,3.004
		c1.682,1.486,2.687,4.004,2.687,7.556c0,2.034,0.238,3.336,0.716,3.907c0.477,0.572,1.145,0.856,1.99,0.856
		c0.547,0,0.978-0.108,1.978-0.329L169.795,114.579L169.795,114.579z M199.072,115h-28.277v-1h5V85h-5v-2h27.127l0.54,9h-1.197
		c-0.407-3-1.244-4.286-2.511-5.413c-1.268-1.126-3.379-1.587-6.336-1.587h-6.623v13h2.774c1.001,0,1.85-0.087,2.546-0.283
		c0.696-0.195,1.322-0.712,1.877-1.574c0.555-0.86,0.872-2.144,0.95-4.144h0.852v14h-0.852c-0.125-3-0.614-4.595-1.467-5.401
		c-0.853-0.806-2.155-1.599-3.907-1.599h-2.774v15h6.341c3.629,0,6.146-1.093,7.545-2.618s2.233-3.382,2.5-7.382h1.197L199.072,115z
		 M268.795,85h-5v29h5v1h-15v-1h5V84h-0.484l-9.364,31h-1.079l-9.072-30.037V114h4v1h-10h-15v-1h4.653l-3.074-9h-9.997l-3.215,9
		h5.633v1h-11v-1h4.123l11.477-31h0.727l11.007,31h4.667h4V85h-4v-2h10.989l6.734,23h0.095l6.781-23h11.4L268.795,85L268.795,85z"/>
</g>
</svg>
