<?xml version="1.0" encoding="utf-8"?>
<!-- Generator: Adobe Illustrator 15.0.2, SVG Export Plug-In . SVG Version: 6.00 Build 0)  -->
<!DOCTYPE svg PUBLIC "-//W3C//DTD SVG 1.1//EN" "http://www.w3.org/Graphics/SVG/1.1/DTD/svg11.dtd">
<svg version="1.1" id="Layer_1" xmlns="http://www.w3.org/2000/svg" xmlns:xlink="http://www.w3.org/1999/xlink" x="0px" y="0px"
	 width="543.795px" height="208px" viewBox="0 0 543.795 208" enable-background="new 0 0 543.795 208" xml:space="preserve">
<circle cx="32.546" cy="98.917" r="16.335"/>
<path fill="#FFFFFF" d="M36.92,110.584c0,0-14.937,0.5-14.937-11.375s14.905-11.625,14.905-11.625l54.906-3v28L36.92,110.584z"/>
<path fill="none" stroke="#FF0000" stroke-width="21" stroke-miterlimit="10" d="M22.046,99.084"/>
<path fill="#FFFFFF" d="M-289.205,74c0,6.627-5.373,12-12,12h-117c-6.627,0-12-5.373-12-12V-31c0-6.627,5.373-12,12-12h117
	c6.627,0,12,5.373,12,12V74z"/>
<g>
	<g>
		<path fill="#FFFFFF" d="M520.795,25h-442c-2.761,0-5,2.239-5,5v144c0,2.761,2.239,5,5,5h442c2.762,0,5-2.239,5-5V30
			C525.795,27.239,523.557,25,520.795,25z M123.667,115.141c-2.125,2.167-4.759,3.25-7.901,3.25c-2.563,0-5.119-0.95-7.666-2.853
			l-2.332,2.084H104.9v-9.303h1.067c0.976,2.927,2.34,5.127,4.093,6.599c1.753,1.472,3.671,2.208,5.755,2.208
			c2.067,0,3.965-0.683,5.693-2.047c1.728-1.364,2.592-3.089,2.592-5.172c0-1.753-0.6-3.229-1.799-4.429s-3.142-2.026-5.83-2.481
			c-2.688-0.455-4.75-0.984-6.189-1.587s-2.671-1.654-3.696-3.151c-1.025-1.497-1.538-3.154-1.538-4.974
			c0-2.514,0.893-4.759,2.679-6.735c1.786-1.976,4.209-2.964,7.269-2.964c2.563,0,4.953,0.811,7.169,2.431
			c0.612-0.579,1.141-1.257,1.588-2.034h1.017l0.148,8.633h-1.166c-1.654-5.176-4.573-7.765-8.757-7.765
			c-2.315,0-4.114,0.641-5.396,1.923c-1.282,1.282-1.922,2.609-1.922,3.981c0,1.273,0.533,2.356,1.6,3.25
			c1.066,0.893,3.014,1.584,5.842,2.072s4.982,1.083,6.462,1.786c1.48,0.703,2.729,1.873,3.746,3.51
			c1.017,1.638,1.525,3.515,1.525,5.631C126.854,110.263,125.792,112.975,123.667,115.141z M155.658,113.145
			c-3.118,3.497-6.71,5.246-10.779,5.246c-4.3,0-7.951-1.802-10.953-5.408c-3.001-3.604-4.502-7.458-4.502-11.56
			c0-4.928,1.575-9.133,4.726-12.614c3.15-3.481,6.81-5.222,10.977-5.222c3.919,0,7.434,1.77,10.543,5.309
			c3.109,3.54,4.664,7.558,4.664,12.057C160.334,105.582,158.775,109.646,155.658,113.145z M196.965,85.62h-5.036v32.771h-1.017
			l-21.905-32.919h-0.099v30.885h5.631v1.266h-11.833v-1.266h4.937V85.62h-5.284v-1.265h12.701l15.505,23.319h0.099V85.62h-5.507
			v-1.265h11.809V85.62z M235.356,85.62h-5.234v30.736h5.234v1.266h-16.323v-1.266h5.185V101.1h-14.364v15.256h5.284v1.266h-16.422
			v-1.266h5.234V85.62h-5.234v-1.265h16.422v1.265h-5.284v14.215h14.364V85.62h-5.185v-1.265h16.323V85.62z M263.913,113.145
			c-3.118,3.497-6.71,5.246-10.779,5.246c-4.3,0-7.951-1.802-10.953-5.408c-3.001-3.604-4.502-7.458-4.502-11.56
			c0-4.928,1.575-9.133,4.726-12.614c3.15-3.481,6.81-5.222,10.977-5.222c3.919,0,7.434,1.77,10.543,5.309
			c3.109,3.54,4.664,7.558,4.664,12.057C268.589,105.582,267.03,109.646,263.913,113.145z"/>
		<path fill="#FFFFFF" d="M149.605,86.029c-1.332-0.785-2.874-1.178-4.626-1.178c-1.819,0-3.453,0.418-4.899,1.253
			c-1.447,0.835-2.431,2.287-2.952,4.354c-0.521,2.067-0.781,5.673-0.781,10.816c0,3.557,0.149,6.393,0.446,8.51
			c0.298,2.116,1.055,3.869,2.27,5.259c1.215,1.389,3.122,2.084,5.718,2.084c1.587,0,3.179-0.422,4.775-1.266
			c1.596-0.844,2.638-2.501,3.125-4.974s0.732-6.272,0.732-11.399c0-4.647-0.302-7.855-0.905-9.625
			C151.904,88.093,150.936,86.815,149.605,86.029z"/>
		<path fill="#FFFFFF" d="M257.859,86.029c-1.332-0.785-2.874-1.178-4.626-1.178c-1.819,0-3.453,0.418-4.899,1.253
			c-1.447,0.835-2.431,2.287-2.952,4.354c-0.521,2.067-0.781,5.673-0.781,10.816c0,3.557,0.149,6.393,0.446,8.51
			c0.298,2.116,1.055,3.869,2.27,5.259c1.215,1.389,3.122,2.084,5.718,2.084c1.587,0,3.179-0.422,4.775-1.266
			c1.596-0.844,2.638-2.501,3.125-4.974s0.732-6.272,0.732-11.399c0-4.647-0.302-7.855-0.905-9.625
			C260.158,88.093,259.19,86.815,257.859,86.029z"/>
	</g>
</g>
</svg>
